{"glyphs":{"0":{"ha":907,"x_min":41,"x_max":868,"o":"m 776 854 q 831 748 810 810 q 860 617 852 687 q 864 474 868 547 q 843 332 859 400 q 798 205 827 264 q 730 105 770 146 q 633 37 688 62 q 518 6 578 13 q 397 10 458 0 q 279 46 335 20 q 177 112 223 72 q 102 207 131 153 q 58 323 73 261 q 42 449 43 385 q 52 580 41 514 q 86 707 64 646 q 140 824 108 768 q 214 924 173 880 q 302 992 253 966 q 406 1029 352 1019 q 516 1035 460 1040 q 621 1008 572 1029 q 711 948 671 987 q 776 854 751 910 m 655 314 q 679 418 668 361 q 691 531 689 474 q 683 644 692 589 q 646 745 673 699 q 629 769 635 755 q 621 782 624 775 q 616 794 618 788 q 569 844 596 827 q 512 867 543 862 q 451 865 482 871 q 390 842 419 858 q 337 801 361 825 q 296 747 312 777 q 263 680 279 717 q 235 604 248 644 q 215 522 222 564 q 207 439 207 480 q 216 361 207 399 q 248 292 226 323 q 310 229 273 256 q 387 188 346 203 q 469 173 427 174 q 548 187 511 172 q 613 233 585 201 q 655 314 641 264 z "},"1":{"ha":579,"x_min":28,"x_max":476,"o":"m 473 83 q 466 38 476 56 q 437 11 455 20 q 398 2 420 2 q 356 11 376 2 q 321 38 336 20 q 304 83 307 56 q 293 211 296 146 q 290 339 290 275 q 290 468 289 404 q 293 597 292 533 q 238 539 267 567 q 180 488 210 512 q 136 469 159 471 q 93 474 113 467 q 56 497 72 481 q 35 532 41 513 q 34 571 28 551 q 60 608 39 591 q 138 680 100 640 q 207 765 176 720 q 262 859 239 810 q 296 959 286 908 q 314 998 300 983 q 346 1017 328 1012 q 384 1019 364 1022 q 421 1005 404 1015 q 449 977 438 994 q 462 937 460 960 q 465 724 467 831 q 461 509 463 616 q 460 295 458 401 q 473 83 461 188 z "},"2":{"ha":903,"x_min":42,"x_max":872,"o":"m 791 169 q 836 154 818 168 q 863 121 854 140 q 872 80 872 102 q 863 39 872 58 q 836 9 854 21 q 791 -1 818 -2 q 625 3 708 3 q 460 0 543 2 q 294 -2 377 -1 q 129 -1 212 -3 q 97 7 113 0 q 68 25 81 14 q 49 51 56 36 q 44 84 42 66 q 74 207 53 153 q 127 305 96 261 q 198 386 158 349 q 284 455 238 422 q 380 520 330 488 q 483 589 431 552 q 534 627 508 606 q 581 669 560 647 q 613 713 601 690 q 623 758 625 735 q 602 801 621 780 q 540 841 583 822 q 463 865 502 858 q 385 867 423 872 q 312 846 347 863 q 245 800 276 829 q 204 777 226 781 q 162 780 182 772 q 127 802 142 787 q 104 838 111 818 q 102 879 98 857 q 125 920 106 901 q 228 990 169 962 q 352 1029 287 1018 q 484 1034 417 1040 q 609 1003 550 1028 q 714 934 667 978 q 785 825 760 890 q 801 732 804 776 q 779 649 798 688 q 729 576 760 610 q 662 511 699 541 q 589 457 628 482 q 508 408 549 432 q 427 358 467 383 q 350 304 387 333 q 284 242 314 275 q 237 168 255 208 q 375 169 306 168 q 514 172 445 170 q 652 173 583 173 q 791 169 722 172 z "},"3":{"ha":835,"x_min":20,"x_max":814,"o":"m 766 481 q 801 404 788 446 q 814 321 814 363 q 801 239 814 279 q 757 165 787 199 q 656 84 715 120 q 530 26 597 48 q 391 -3 463 4 q 253 3 319 -9 q 130 50 186 16 q 35 142 73 83 q 21 186 20 165 q 34 225 22 208 q 64 254 45 243 q 105 267 83 264 q 147 259 126 269 q 182 227 168 250 q 230 184 201 199 q 295 165 260 170 q 370 165 331 161 q 447 180 410 170 q 517 204 484 191 q 573 233 550 218 q 633 289 618 260 q 642 344 648 318 q 611 393 635 370 q 553 430 587 415 q 482 450 520 444 q 409 451 444 456 q 361 454 382 446 q 326 476 340 462 q 307 511 313 491 q 306 550 302 530 q 324 587 310 570 q 363 615 338 605 q 440 651 401 630 q 507 703 480 672 q 525 727 515 713 q 542 759 534 742 q 552 792 549 775 q 551 825 555 810 q 533 851 547 840 q 495 867 520 863 q 438 871 467 873 q 381 864 410 870 q 325 850 353 859 q 270 835 297 842 q 222 835 243 827 q 188 858 201 842 q 168 895 174 873 q 166 937 162 916 q 184 975 170 958 q 224 999 198 991 q 313 1020 264 1010 q 414 1033 363 1029 q 516 1031 466 1037 q 608 1005 566 1025 q 677 947 649 985 q 715 849 706 909 q 702 705 726 768 q 632 593 679 642 q 706 549 672 576 q 766 481 740 522 z "},"4":{"ha":859,"x_min":18,"x_max":779,"o":"m 610 961 q 631 1003 615 988 q 666 1021 646 1017 q 707 1019 686 1025 q 744 999 728 1013 q 770 964 761 985 q 774 916 779 943 q 753 708 755 812 q 755 499 751 604 q 764 290 759 394 q 767 81 770 185 q 753 35 766 54 q 721 8 741 17 q 680 -1 702 -1 q 640 8 659 -1 q 609 35 621 17 q 597 81 597 53 q 597 250 600 165 q 591 418 594 334 q 466 390 530 398 q 340 393 401 382 q 223 433 279 403 q 124 517 168 463 q 59 625 84 568 q 25 742 33 682 q 28 863 18 802 q 73 981 39 924 q 106 1015 86 1005 q 147 1022 126 1024 q 186 1010 168 1021 q 217 981 205 999 q 231 942 229 964 q 219 896 233 920 q 194 827 201 864 q 193 753 188 790 q 214 683 198 717 q 257 623 231 650 q 333 573 292 589 q 415 555 373 557 q 501 566 458 554 q 586 597 544 577 q 589 779 585 689 q 610 961 594 869 z "},"5":{"ha":812,"x_min":20,"x_max":769,"o":"m 286 625 q 399 627 341 628 q 511 614 457 626 q 614 576 566 602 q 700 505 663 551 q 738 435 723 477 q 755 350 752 394 q 749 263 758 306 q 718 190 741 221 q 631 101 682 139 q 523 38 581 62 q 402 3 465 13 q 278 -2 340 -7 q 157 27 216 4 q 51 92 99 50 q 25 131 31 110 q 27 171 20 151 q 49 205 33 190 q 85 229 64 221 q 127 233 105 236 q 171 212 150 230 q 226 180 195 192 q 293 165 258 169 q 364 166 328 162 q 435 182 401 171 q 499 210 469 193 q 549 250 528 227 q 581 310 576 277 q 575 371 587 342 q 537 421 564 399 q 473 449 510 442 q 338 457 405 460 q 204 449 272 454 q 171 454 186 448 q 145 473 156 461 q 127 502 134 486 q 119 534 120 517 q 114 735 113 635 q 117 936 115 835 q 123 968 117 954 q 138 992 129 982 q 164 1013 149 1005 q 201 1021 180 1021 q 444 1022 323 1021 q 687 1023 565 1023 q 732 1011 714 1023 q 760 980 751 998 q 769 939 769 961 q 760 898 769 917 q 732 866 751 879 q 687 854 714 854 q 486 852 586 853 q 286 852 387 852 q 284 738 284 794 q 286 625 284 682 z "},"6":{"ha":787,"x_min":24,"x_max":774,"o":"m 766 349 q 753 225 774 281 q 690 124 732 168 q 591 50 648 80 q 472 5 534 20 q 346 -6 409 -9 q 227 17 282 -4 q 101 101 146 48 q 40 219 56 153 q 34 359 24 284 q 71 511 43 434 q 139 663 98 588 q 228 805 180 739 q 326 924 275 871 q 422 1010 376 977 q 466 1025 445 1025 q 504 1014 487 1025 q 532 984 521 1003 q 545 943 543 965 q 538 900 547 922 q 508 863 530 879 q 444 808 476 841 q 381 737 412 776 q 323 654 351 699 q 273 564 295 610 q 370 589 320 583 q 473 585 420 595 q 570 557 521 575 q 661 511 619 539 q 731 442 702 482 q 766 349 760 402 m 526 207 q 576 258 561 232 q 589 310 591 285 q 573 357 588 335 q 533 394 558 378 q 475 417 508 410 q 404 420 441 424 q 345 408 372 417 q 292 385 317 399 q 245 351 267 370 q 202 311 223 332 l 202 290 q 222 227 204 252 q 268 185 240 201 q 331 165 296 170 q 401 163 366 160 q 469 178 436 167 q 526 207 502 189 z "},"7":{"ha":833,"x_min":20,"x_max":819,"o":"m 673 583 q 718 568 700 582 q 746 535 736 555 q 755 494 755 516 q 746 454 755 472 q 718 424 736 435 q 673 413 700 412 q 607 415 640 414 q 541 416 574 416 q 446 242 490 330 q 368 60 401 154 q 340 21 358 35 q 300 3 321 7 q 257 6 279 0 q 221 25 236 12 q 200 59 206 39 q 203 105 194 79 q 268 261 233 185 q 343 410 302 336 q 246 407 294 408 q 149 406 198 406 q 104 418 122 406 q 76 449 85 430 q 67 490 67 468 q 76 531 67 512 q 104 562 85 549 q 149 575 122 575 q 296 578 223 576 q 444 583 370 581 q 516 697 479 641 q 592 809 553 753 q 606 829 600 819 q 620 850 612 840 q 563 850 591 850 q 506 850 534 850 q 304 849 405 850 q 102 843 203 849 q 57 853 75 842 q 30 883 39 865 q 20 923 20 901 q 30 965 20 945 q 57 998 39 984 q 102 1013 75 1011 q 386 1025 243 1021 q 670 1017 529 1028 q 721 1007 695 1015 q 769 985 747 1000 q 805 950 791 971 q 819 899 819 928 q 801 814 819 856 q 755 732 782 772 q 697 655 728 692 q 645 584 667 618 q 659 583 652 583 q 673 583 665 583 z "},"8":{"ha":752,"x_min":24,"x_max":726,"o":"m 527 570 q 605 487 568 530 q 669 397 642 444 q 711 300 696 350 q 723 199 726 251 q 698 113 720 149 q 642 52 676 77 q 562 14 607 28 q 468 -4 517 1 q 368 -5 419 -9 q 270 7 317 -2 q 182 32 222 17 q 113 64 141 46 q 42 138 60 98 q 31 223 24 179 q 64 314 37 268 q 126 404 90 359 q 204 489 163 448 q 282 565 245 530 q 261 585 271 575 q 239 604 250 595 q 187 666 212 632 q 145 737 162 700 q 121 811 128 774 q 122 884 114 849 q 155 948 130 918 q 228 1000 180 978 q 291 1019 254 1011 q 370 1029 328 1027 q 455 1028 412 1031 q 538 1013 499 1024 q 610 984 578 1002 q 662 939 643 966 q 685 875 682 911 q 671 791 689 838 q 609 674 647 728 q 527 570 572 620 m 439 861 q 410 861 428 861 q 372 862 391 862 q 334 859 352 861 q 303 850 315 857 q 289 831 292 844 q 298 800 286 819 q 327 760 312 779 q 359 724 342 742 q 380 705 370 715 q 403 686 391 696 q 445 734 425 709 q 481 787 465 759 q 502 825 495 810 q 505 847 509 840 q 486 858 501 855 q 439 861 470 861 m 543 197 q 555 220 554 205 q 551 251 556 234 q 535 285 545 267 q 513 318 524 302 q 492 347 502 334 q 476 366 481 359 q 440 407 458 387 q 403 447 422 427 q 354 398 380 425 q 303 344 328 371 q 260 291 279 317 q 230 243 240 264 q 223 206 220 221 q 245 185 225 191 q 316 169 276 176 q 396 160 355 161 q 475 167 437 159 q 543 197 513 175 z "},"9":{"ha":859,"x_min":41,"x_max":791,"o":"m 781 770 q 789 645 786 709 q 788 517 791 581 q 775 392 785 454 q 745 275 765 330 q 691 173 724 220 q 611 92 659 126 q 523 42 572 63 q 419 11 473 21 q 310 1 365 0 q 207 18 256 2 q 117 66 157 34 q 52 149 77 98 q 43 196 41 174 q 59 237 46 219 q 90 266 71 254 q 129 278 109 277 q 168 269 149 279 q 199 235 186 259 q 237 192 212 206 q 292 173 262 177 q 354 172 322 168 q 412 183 385 175 q 478 211 450 194 q 529 251 507 227 q 565 305 550 274 q 589 375 580 336 q 604 451 599 414 q 612 528 609 489 q 494 478 557 496 q 366 457 430 460 q 244 466 302 454 q 140 507 185 478 q 69 581 96 535 q 45 691 43 627 q 77 824 47 766 q 156 922 106 882 q 270 986 205 963 q 403 1016 334 1010 q 449 1019 424 1018 q 500 1018 473 1019 q 554 1013 526 1017 q 608 1002 582 1009 q 633 1022 618 1015 q 665 1031 648 1029 q 699 1028 682 1032 q 730 1013 715 1023 q 753 987 744 1003 q 765 950 763 972 q 772 873 768 913 q 780 789 776 833 q 781 780 781 785 q 781 770 781 776 m 215 713 q 230 666 214 685 q 272 637 245 648 q 333 624 299 627 q 404 627 368 622 q 476 643 440 632 q 540 672 511 654 q 588 711 569 689 q 610 761 607 734 q 606 821 610 790 q 601 823 605 821 q 576 833 589 829 q 550 841 564 838 q 487 849 518 848 q 423 848 455 851 q 359 838 395 846 q 292 814 323 830 q 238 773 260 798 q 215 713 216 749 z "},"Б":{"ha":935,"x_min":58,"x_max":912,"o":"m 901 407 q 897 282 912 339 q 846 179 882 225 q 759 97 810 132 q 646 38 707 62 q 519 1 585 14 q 388 -12 452 -12 q 264 -2 323 -13 q 158 33 205 9 q 156 35 157 33 q 150 38 153 36 q 146 41 148 39 q 143 42 144 42 q 140 44 142 43 q 140 45 140 45 q 139 46 140 45 q 119 76 124 60 q 116 109 114 92 q 111 244 118 175 q 93 383 103 313 q 73 524 83 453 q 60 664 63 594 q 66 800 58 733 q 99 932 74 867 q 116 968 102 953 q 145 992 128 986 q 180 997 162 999 q 336 1018 258 1013 q 494 1021 415 1022 q 652 1015 573 1019 q 810 1010 731 1011 q 856 997 838 1010 q 883 966 874 985 q 892 925 892 947 q 883 885 892 903 q 856 853 874 866 q 810 842 838 841 q 668 847 740 842 q 525 853 597 851 q 382 852 454 855 q 241 837 311 850 q 227 724 226 784 q 235 604 228 665 q 358 621 291 613 q 496 630 426 629 q 633 623 566 631 q 756 589 701 614 q 850 520 812 564 q 901 407 888 476 m 624 219 q 655 240 637 227 q 689 269 673 253 q 720 304 706 286 q 739 342 733 323 q 739 380 744 361 q 713 416 734 399 q 651 449 686 437 q 577 465 616 460 q 496 468 538 469 q 412 462 454 467 q 332 451 371 458 q 258 439 292 444 q 276 300 268 369 q 285 162 283 232 q 371 150 326 150 q 460 158 416 149 q 547 183 505 167 q 624 219 589 199 z "},"В":{"ha":880,"x_min":81,"x_max":848,"o":"m 559 557 q 676 524 621 545 q 769 467 730 503 q 828 379 808 431 q 840 253 848 327 q 799 129 831 177 q 720 53 767 81 q 612 15 672 26 q 489 2 553 4 q 363 3 426 0 q 244 7 300 6 q 208 14 223 7 q 182 34 193 22 q 163 68 169 48 q 138 173 147 120 q 124 278 129 225 q 116 384 119 331 q 113 490 114 437 q 113 526 109 508 q 107 715 112 621 q 85 902 103 808 q 83 925 83 916 q 84 952 81 939 q 94 976 87 965 q 114 995 101 987 q 144 1006 126 1002 q 256 1021 193 1014 q 384 1027 318 1027 q 513 1016 450 1026 q 629 979 577 1005 q 716 908 681 953 q 760 795 751 864 q 751 720 765 755 q 709 656 737 686 q 642 602 681 627 q 559 557 604 578 m 469 850 q 365 858 417 857 q 262 852 313 858 q 271 741 269 797 q 275 629 273 685 q 397 674 336 652 q 515 731 458 697 q 535 743 522 736 q 559 758 547 749 q 581 775 571 766 q 591 795 590 785 q 585 810 593 804 q 566 823 578 817 q 539 833 554 829 q 510 842 524 838 q 485 847 496 845 q 469 850 473 850 m 310 172 q 386 165 345 168 q 468 162 427 162 q 547 168 509 163 q 614 188 585 174 q 660 226 643 201 q 675 290 676 251 q 654 339 673 319 q 603 374 635 360 q 530 396 571 388 q 446 409 490 404 q 360 414 403 413 q 280 416 317 416 q 290 293 283 354 q 310 172 296 232 z "},"Г":{"ha":787,"x_min":90,"x_max":771,"o":"m 690 1013 q 735 996 717 1010 q 762 962 753 982 q 771 921 771 943 q 762 881 771 899 q 735 852 753 863 q 690 844 718 842 q 586 854 638 849 q 480 863 533 860 q 375 866 428 866 q 271 859 323 865 q 292 456 298 658 q 256 52 286 254 q 238 11 253 26 q 204 -7 224 -3 q 164 -5 185 -11 q 126 15 142 1 q 99 50 109 28 q 94 98 90 71 q 117 299 108 198 q 126 502 125 401 q 120 705 127 604 q 94 906 112 806 q 93 928 92 916 q 94 954 92 941 q 104 978 97 967 q 124 998 112 989 q 153 1010 136 1006 q 287 1029 220 1025 q 420 1033 353 1034 q 555 1026 488 1031 q 690 1013 623 1020 z "},"Д":{"ha":1069,"x_min":9,"x_max":1064,"o":"m 982 178 q 1027 165 1009 178 q 1055 135 1046 153 q 1064 94 1064 116 q 1055 53 1064 72 q 1027 22 1046 35 q 982 9 1009 9 q 751 4 866 9 q 520 0 636 0 q 412 4 466 0 q 306 12 359 8 q 198 19 252 16 q 91 18 144 21 q 46 28 64 17 q 19 58 28 40 q 9 98 9 76 q 19 139 9 120 q 46 172 28 159 q 91 187 64 186 q 130 189 111 189 q 169 188 149 189 q 236 405 195 298 q 318 616 277 511 q 357 717 338 665 q 400 820 377 769 q 451 918 422 871 q 515 1005 479 966 q 547 1025 528 1019 q 585 1029 566 1031 q 621 1017 604 1027 q 647 988 638 1006 q 726 795 692 895 q 788 594 760 696 q 841 389 817 492 q 890 186 865 286 q 891 182 891 184 q 892 177 891 180 q 937 177 915 177 q 982 178 960 178 m 340 176 q 430 169 385 172 q 520 169 475 167 q 620 172 570 170 q 720 174 669 173 q 684 323 701 248 q 647 473 667 398 q 606 623 628 549 q 557 769 584 698 q 524 694 539 733 q 494 617 508 656 q 467 540 480 578 q 441 469 454 503 q 388 324 415 397 q 340 176 361 251 z "},"Е":{"ha":876,"x_min":73,"x_max":832,"o":"m 751 167 q 796 153 778 166 q 823 121 814 140 q 832 80 832 102 q 823 39 832 58 q 796 9 814 21 q 751 -2 778 -3 q 585 2 668 0 q 418 -1 502 5 q 346 -5 383 -4 q 273 1 309 -5 q 206 23 237 7 q 151 72 174 40 q 99 173 116 119 q 78 286 83 227 q 79 407 73 345 q 94 532 84 469 q 98 553 94 542 q 116 650 106 602 q 134 745 125 699 q 148 836 142 791 q 155 920 154 880 q 156 924 156 922 q 157 928 157 926 q 171 974 157 954 q 218 1001 185 995 q 483 1033 351 1025 q 751 1037 616 1040 q 796 1023 778 1036 q 823 991 814 1010 q 832 950 832 972 q 823 910 832 928 q 796 880 814 892 q 751 868 778 867 q 534 867 642 871 q 318 847 426 863 q 301 749 311 799 q 279 646 291 699 q 500 676 389 669 q 725 683 612 682 q 770 671 752 683 q 797 640 788 659 q 806 599 806 621 q 797 558 806 577 q 770 527 788 539 q 725 514 752 514 q 604 512 664 514 q 484 505 543 511 q 365 490 424 500 q 247 463 305 480 q 242 327 239 393 q 269 203 245 260 q 310 173 277 183 q 389 159 342 163 q 490 156 435 155 q 595 159 544 157 q 687 165 646 162 q 751 167 729 168 z "},"Ж":{"ha":1046,"x_min":15,"x_max":1035,"o":"m 1024 164 q 1031 117 1035 140 q 1016 77 1028 94 q 984 48 1003 59 q 946 35 966 37 q 907 44 926 34 q 878 79 889 54 q 828 159 859 123 q 762 225 798 195 q 686 285 726 256 q 609 342 647 313 q 616 200 612 271 q 618 58 619 130 q 605 12 618 31 q 573 -15 592 -6 q 532 -24 554 -24 q 492 -15 511 -24 q 461 12 473 -6 q 449 58 448 31 q 446 211 450 135 q 438 366 441 288 q 296 202 363 286 q 174 23 229 117 q 141 -10 161 -1 q 100 -18 121 -20 q 60 -5 79 -16 q 30 23 41 5 q 17 62 18 40 q 28 108 15 84 q 193 342 102 233 q 387 553 284 452 q 230 697 310 627 q 62 829 151 767 q 32 865 40 844 q 25 908 23 886 q 38 948 27 929 q 66 978 49 967 q 104 989 83 989 q 147 974 125 989 q 303 852 229 916 q 450 721 378 789 q 444 826 450 774 q 417 924 437 877 q 410 971 406 948 q 426 1012 414 994 q 458 1041 439 1029 q 496 1053 477 1052 q 534 1044 516 1055 q 563 1009 552 1034 q 600 885 590 947 q 611 759 610 823 q 720 853 666 806 q 829 947 774 900 q 872 967 849 964 q 915 963 895 970 q 950 940 935 956 q 972 906 966 925 q 974 866 979 886 q 948 827 968 845 q 788 690 869 758 q 629 551 708 623 q 644 536 637 543 q 659 523 652 530 q 758 441 705 480 q 861 361 811 402 q 955 272 911 319 q 1024 164 998 224 z "},"З":{"ha":694,"x_min":16,"x_max":654,"o":"m 513 532 q 590 468 557 504 q 638 387 622 432 q 651 289 654 342 q 623 172 648 235 q 562 73 598 110 q 482 19 526 37 q 389 0 438 1 q 287 5 339 -2 q 182 24 235 12 q 79 48 129 37 q 38 71 52 54 q 20 107 24 87 q 22 148 16 127 q 41 185 28 169 q 76 209 55 201 q 123 211 97 217 q 171 197 143 206 q 231 178 199 187 q 295 162 262 169 q 358 156 328 155 q 412 168 388 157 q 451 205 437 179 q 479 290 478 254 q 463 352 481 326 q 410 397 445 378 q 331 430 376 416 q 289 458 304 438 q 271 500 274 477 q 278 546 268 524 q 311 585 288 569 q 338 604 319 590 q 379 637 357 618 q 422 677 401 656 q 457 721 444 699 q 472 762 470 743 q 456 796 473 782 q 426 816 446 805 q 382 837 406 827 q 332 851 358 846 q 283 855 306 857 q 243 843 260 854 q 218 809 225 832 q 192 769 210 783 q 154 752 174 755 q 112 754 133 748 q 76 773 91 760 q 54 807 60 787 q 55 854 47 828 q 107 941 71 905 q 191 996 144 977 q 292 1020 237 1016 q 398 1015 346 1025 q 497 979 450 1004 q 576 916 543 954 q 628 813 618 865 q 627 713 639 762 q 584 617 614 663 q 513 532 553 572 z "},"И":{"ha":1093,"x_min":98,"x_max":1002,"o":"m 856 1005 q 901 1025 875 1021 q 949 1021 926 1029 q 987 994 972 1013 q 1000 945 1002 975 q 971 513 984 729 q 958 80 959 296 q 946 35 958 53 q 914 7 933 16 q 873 -2 895 -2 q 832 7 851 -2 q 802 35 814 16 q 789 80 789 53 q 798 414 790 248 q 817 747 805 579 q 513 423 653 595 q 266 56 373 251 q 224 18 250 26 q 173 18 198 10 q 129 47 148 26 q 109 98 111 68 q 100 309 102 203 q 99 520 98 414 q 101 731 100 626 q 102 943 102 837 q 115 988 102 970 q 146 1016 127 1006 q 187 1025 165 1025 q 228 1016 209 1025 q 259 988 246 1006 q 271 943 271 970 q 269 661 271 801 q 269 379 267 521 q 541 712 393 556 q 856 1005 690 869 z "},"Й":{"ha":1093,"x_min":98,"x_max":1002,"o":"m 549 1140 q 504 1153 522 1140 q 477 1184 486 1165 q 468 1224 468 1202 q 477 1265 468 1246 q 504 1296 486 1284 q 549 1309 522 1309 q 595 1296 576 1309 q 622 1265 613 1284 q 631 1224 631 1246 q 622 1184 631 1202 q 595 1153 613 1165 q 549 1140 576 1140 m 856 1005 q 901 1025 875 1021 q 949 1021 926 1029 q 987 994 972 1013 q 1000 945 1002 975 q 971 513 984 729 q 958 80 959 296 q 946 35 958 53 q 914 7 933 16 q 873 -2 895 -2 q 832 7 851 -2 q 802 35 814 16 q 789 80 789 53 q 798 414 790 248 q 817 747 805 579 q 513 423 653 595 q 266 56 373 251 q 224 18 250 26 q 173 18 198 10 q 129 47 148 26 q 109 98 111 68 q 100 309 102 203 q 99 520 98 414 q 101 731 100 626 q 102 943 102 837 q 115 988 102 970 q 146 1016 127 1006 q 187 1025 165 1025 q 228 1016 209 1025 q 259 988 246 1006 q 271 943 271 970 q 269 661 271 801 q 269 379 267 521 q 541 712 393 556 q 856 1005 690 869 z "},"К":{"ha":832,"x_min":85,"x_max":812,"o":"m 786 140 q 809 98 805 120 q 806 57 812 77 q 783 21 799 37 q 748 -1 768 5 q 707 -3 728 -7 q 667 20 686 1 q 577 102 625 64 q 481 176 530 140 q 381 247 431 212 q 282 319 331 282 q 252 50 271 181 q 233 8 248 22 q 198 -11 218 -7 q 158 -8 179 -14 q 120 11 137 -3 q 94 46 104 25 q 89 94 85 68 q 114 312 104 201 q 130 534 124 422 q 138 757 136 646 q 142 976 140 868 q 155 1021 142 1003 q 186 1048 168 1039 q 227 1057 205 1057 q 268 1048 249 1057 q 298 1021 286 1039 q 311 976 311 1003 q 308 818 309 897 q 303 657 307 738 q 401 732 351 695 q 497 808 451 768 q 581 892 543 848 q 644 992 619 937 q 674 1027 656 1017 q 712 1036 692 1038 q 750 1024 732 1035 q 782 995 769 1013 q 797 955 794 977 q 789 907 800 932 q 735 818 767 858 q 666 742 704 777 q 587 676 629 707 q 504 614 546 645 q 422 550 463 583 q 347 480 382 517 q 458 397 401 437 q 572 316 515 357 q 683 233 629 276 q 786 140 738 189 z "},"Л":{"ha":1064,"x_min":15,"x_max":1055,"o":"m 1040 136 q 1054 91 1055 113 q 1041 52 1053 69 q 1010 24 1029 35 q 970 11 991 13 q 929 18 949 9 q 895 50 909 27 q 789 223 841 136 q 687 398 738 311 q 583 572 635 485 q 476 744 531 659 q 409 566 446 654 q 334 391 373 478 q 253 218 294 304 q 172 45 212 132 q 143 11 161 21 q 105 2 125 1 q 66 14 85 3 q 34 43 47 25 q 18 84 22 61 q 26 131 15 106 q 122 335 73 233 q 216 539 171 436 q 299 747 260 642 q 364 962 338 852 q 390 1005 371 991 q 433 1022 410 1020 q 480 1014 457 1024 q 519 982 504 1003 q 656 775 591 880 q 786 563 722 669 q 911 348 849 456 q 1040 136 974 241 z "},"М":{"ha":1199,"x_min":85,"x_max":1127,"o":"m 1121 104 q 1119 56 1127 77 q 1095 21 1112 35 q 1058 2 1079 7 q 1017 0 1037 -4 q 981 18 997 3 q 958 59 964 33 q 928 229 939 142 q 912 401 917 315 q 908 575 907 488 q 911 747 908 662 q 912 770 911 759 q 912 793 912 781 q 898 771 905 782 q 884 748 892 760 q 841 664 860 707 q 798 578 821 621 q 764 526 783 552 q 722 477 745 500 q 673 438 699 454 q 617 414 646 421 q 557 413 589 408 q 494 439 526 418 q 423 502 452 466 q 371 577 394 537 q 328 658 348 616 q 287 739 309 700 q 271 577 279 659 q 260 415 264 496 q 256 253 256 334 q 265 91 257 172 q 257 46 268 64 q 229 19 247 28 q 189 10 211 10 q 148 19 168 10 q 113 46 127 28 q 96 91 99 64 q 87 305 85 198 q 98 519 90 412 q 117 732 106 626 q 137 946 129 839 q 151 987 138 967 q 181 1019 163 1007 q 221 1033 199 1031 q 264 1019 243 1034 q 319 969 294 995 q 365 916 344 944 q 403 856 385 887 q 437 789 420 825 q 461 739 447 768 q 493 683 475 710 q 529 633 510 655 q 569 605 549 612 q 611 610 590 598 q 652 663 631 623 q 696 757 673 707 q 747 855 719 808 q 810 942 774 903 q 893 1002 846 981 q 954 1017 927 1018 q 1002 1005 981 1017 q 1039 972 1023 994 q 1064 926 1054 951 q 1078 872 1074 901 q 1082 817 1082 844 q 1079 638 1080 728 q 1079 458 1077 548 q 1091 280 1082 369 q 1121 104 1101 191 z "},"Н":{"ha":1027,"x_min":85,"x_max":938,"o":"m 903 945 q 912 724 905 834 q 926 503 920 613 q 935 282 932 393 q 932 61 938 172 q 917 16 930 34 q 884 -11 903 -2 q 843 -20 865 -20 q 803 -11 821 -20 q 773 16 785 -2 q 764 61 762 34 q 767 237 768 150 q 762 412 766 324 q 642 405 702 405 q 523 407 583 404 q 404 412 463 410 q 284 414 344 415 q 288 251 288 332 q 284 86 289 169 q 269 41 283 59 q 236 14 256 23 q 195 5 217 5 q 155 14 173 5 q 125 41 137 22 q 115 86 114 59 q 119 307 121 197 q 109 528 116 418 q 95 749 102 638 q 86 970 88 859 q 98 1015 85 997 q 129 1042 110 1033 q 169 1051 147 1051 q 210 1042 191 1051 q 241 1015 229 1033 q 255 970 254 997 q 263 776 257 872 q 275 583 269 680 q 394 582 334 585 q 513 576 454 578 q 633 574 573 574 q 752 581 692 574 q 741 762 747 671 q 734 945 736 852 q 745 990 733 972 q 776 1017 758 1008 q 817 1026 795 1026 q 858 1017 839 1026 q 889 990 876 1008 q 903 945 902 972 z "},"О":{"ha":1060,"x_min":43,"x_max":1018,"o":"m 909 848 q 972 744 948 804 q 1007 618 997 685 q 1014 480 1018 551 q 993 343 1010 409 q 945 220 976 277 q 872 123 915 163 q 760 50 822 77 q 631 14 698 23 q 494 14 564 5 q 359 45 425 22 q 236 105 294 68 q 133 191 178 142 q 67 302 88 241 q 45 431 46 364 q 59 567 43 498 q 103 700 75 636 q 171 818 132 763 q 256 911 210 872 q 357 975 300 949 q 476 1012 414 1000 q 601 1020 538 1023 q 722 998 665 1017 q 828 941 780 978 q 909 848 877 904 m 781 280 q 810 347 797 309 q 833 426 824 385 q 845 510 842 467 q 843 593 848 553 q 824 670 838 634 q 785 734 810 706 q 770 751 777 742 q 768 754 769 753 q 767 756 768 755 q 712 818 746 795 q 638 849 678 840 q 553 854 597 859 q 468 837 509 850 q 392 800 427 823 q 332 747 356 777 q 290 684 311 721 q 250 606 268 648 q 222 520 233 565 q 211 434 211 476 q 226 354 212 391 q 273 288 240 316 q 345 239 302 262 q 436 200 388 216 q 536 178 485 184 q 633 179 587 172 q 719 211 680 187 q 781 280 757 235 z "},"П":{"ha":1055,"x_min":94,"x_max":964,"o":"m 964 928 q 959 715 958 821 q 961 502 960 608 q 962 289 962 395 q 953 76 961 182 q 937 32 951 50 q 904 4 923 14 q 862 -5 884 -5 q 822 4 840 -5 q 793 31 804 13 q 784 76 782 49 q 793 269 791 172 q 793 462 794 366 q 791 655 792 559 q 792 848 789 752 q 660 858 727 853 q 526 864 593 863 q 392 862 458 865 q 263 847 326 859 l 263 110 l 263 71 q 251 25 263 43 q 219 -2 238 7 q 179 -12 201 -12 q 138 -2 157 -12 q 107 25 119 7 q 94 71 94 43 l 94 110 l 94 915 q 111 966 94 945 q 129 984 118 976 q 156 996 140 991 q 332 1026 241 1019 q 516 1031 423 1034 q 700 1023 608 1029 q 880 1012 792 1016 q 911 1005 896 1011 q 939 987 927 998 q 958 961 951 976 q 964 928 964 945 z "},"Р":{"ha":798,"x_min":96,"x_max":770,"o":"m 768 698 q 742 593 766 644 q 680 496 718 542 q 591 411 642 450 q 486 341 541 372 q 374 292 431 311 q 267 267 318 273 q 266 179 267 222 q 265 90 266 135 q 252 45 264 63 q 220 17 239 26 q 180 8 201 8 q 139 17 158 8 q 108 45 121 26 q 96 90 96 63 q 100 509 98 300 q 104 928 102 717 q 117 972 105 954 q 146 999 129 989 q 167 1009 155 1005 q 282 1029 217 1027 q 414 1019 347 1031 q 547 979 482 1006 q 661 911 611 952 q 741 817 711 871 q 768 698 770 764 m 593 682 q 592 739 603 713 q 556 785 581 765 q 496 819 531 804 q 422 842 460 833 q 344 854 383 850 q 273 856 305 857 q 271 647 271 751 q 269 437 270 543 q 333 455 299 443 q 400 486 367 468 q 465 526 433 504 q 522 574 496 549 q 566 627 547 600 q 593 682 585 654 z "},"С":{"ha":1049,"x_min":41,"x_max":1025,"o":"m 897 328 q 943 338 921 340 q 983 325 966 336 q 1011 294 1000 313 q 1024 254 1023 275 q 1016 214 1025 234 q 983 182 1006 195 q 877 124 933 155 q 761 68 821 94 q 640 24 701 42 q 516 2 578 5 q 396 15 455 -1 q 283 72 337 30 q 208 139 244 102 q 141 221 172 177 q 88 313 111 264 q 53 412 65 361 q 41 514 41 463 q 58 617 42 566 q 135 771 85 701 q 250 896 184 842 q 394 986 315 949 q 557 1038 472 1022 q 694 1043 627 1050 q 814 1009 761 1037 q 903 930 867 981 q 945 803 938 879 q 937 758 948 776 q 908 731 926 740 q 868 722 890 722 q 827 731 846 722 q 793 758 808 740 q 777 803 779 776 q 748 859 773 841 q 687 880 724 876 q 608 875 650 883 q 525 854 565 867 q 453 827 485 842 q 406 802 420 812 q 325 735 364 773 q 257 653 285 698 q 218 557 229 608 q 222 450 207 506 q 244 385 230 418 q 277 319 258 351 q 320 259 296 287 q 374 211 345 231 q 437 180 403 191 q 510 173 471 170 q 613 192 564 177 q 711 229 663 208 q 805 277 759 251 q 897 328 851 302 z "},"Т":{"ha":1027,"x_min":9,"x_max":1010,"o":"m 928 1017 q 974 1001 956 1015 q 1001 968 991 987 q 1010 926 1010 948 q 1001 886 1010 904 q 974 857 991 868 q 928 848 956 846 q 768 863 850 855 q 602 876 686 870 q 583 680 585 779 q 583 482 581 581 q 588 284 586 383 q 583 87 590 185 q 567 42 581 60 q 533 15 553 24 q 492 5 514 5 q 452 15 470 5 q 423 42 434 24 q 414 87 412 60 q 420 287 422 186 q 417 486 419 387 q 417 685 415 586 q 433 884 419 785 q 272 882 351 886 q 117 865 193 878 q 70 869 91 860 q 35 895 48 878 q 15 932 21 911 q 13 973 9 954 q 31 1008 17 993 q 73 1027 45 1023 q 283 1049 175 1045 q 499 1048 391 1053 q 716 1035 608 1044 q 928 1017 825 1026 z "},"У":{"ha":930,"x_min":12,"x_max":909,"o":"m 749 993 q 783 1025 763 1016 q 824 1033 804 1035 q 864 1021 845 1031 q 895 992 883 1010 q 907 953 906 975 q 895 907 909 931 q 746 660 821 783 q 604 408 671 537 q 556 311 579 361 q 507 209 532 260 q 453 112 482 159 q 387 26 424 65 q 347 2 368 7 q 306 5 326 -2 q 271 27 287 12 q 249 62 256 43 q 245 104 241 82 q 268 146 249 126 q 327 222 300 180 q 378 312 354 265 q 424 408 402 359 q 467 504 446 457 q 331 572 395 529 q 210 671 266 616 q 106 789 153 726 q 24 916 60 852 q 13 962 12 940 q 27 1002 15 985 q 58 1030 39 1019 q 97 1043 77 1042 q 137 1035 117 1045 q 170 1002 157 1025 q 239 893 200 947 q 327 792 279 839 q 429 710 374 746 q 547 656 484 674 q 647 825 596 741 q 749 993 699 908 z "},"Ф":{"ha":945,"x_min":38,"x_max":909,"o":"m 842 882 q 893 774 878 831 q 907 659 909 717 q 886 545 905 601 q 833 443 867 490 q 753 360 800 395 q 646 306 705 324 q 599 293 623 298 q 550 282 575 288 q 546 182 548 231 q 541 81 544 132 q 525 36 538 54 q 492 9 511 18 q 451 0 473 0 q 411 9 429 0 q 381 36 393 18 q 372 81 370 54 q 377 176 375 129 q 380 270 379 223 q 294 283 336 273 q 215 313 252 293 q 145 362 177 332 q 90 434 113 392 q 52 529 65 479 q 39 630 39 579 q 50 730 38 681 q 85 824 61 780 q 145 903 109 867 q 231 963 181 939 q 384 1017 302 998 q 545 1031 465 1036 q 699 996 625 1027 q 829 899 772 964 q 836 890 833 894 q 839 886 837 888 q 842 882 841 884 m 236 519 q 302 460 264 481 q 385 432 340 439 q 387 638 387 536 q 387 846 387 741 q 365 839 376 842 q 344 830 354 835 q 266 778 300 812 q 215 700 232 743 q 201 610 198 657 q 236 519 205 562 m 554 450 q 650 503 606 469 q 717 582 693 537 q 740 678 741 626 q 703 787 739 730 q 635 837 672 820 q 556 861 597 854 q 556 655 556 758 q 554 450 555 553 z "},"Х":{"ha":1036,"x_min":31,"x_max":1014,"o":"m 989 153 q 1011 111 1008 133 q 1007 68 1014 88 q 984 33 1000 48 q 949 11 968 17 q 909 9 930 4 q 870 34 888 14 q 693 234 781 134 q 513 433 605 334 q 353 232 435 330 q 194 33 271 134 q 156 4 178 12 q 112 -2 134 -4 q 71 12 90 1 q 42 40 52 23 q 31 77 31 56 q 48 119 31 97 q 133 226 90 172 q 222 333 177 279 q 311 442 267 387 q 398 553 355 496 q 311 638 355 596 q 227 725 268 681 q 149 818 186 770 q 83 921 112 866 q 72 967 70 945 q 86 1007 75 989 q 117 1035 98 1024 q 156 1047 136 1046 q 196 1039 177 1049 q 229 1006 216 1029 q 284 918 254 960 q 350 838 315 877 q 421 763 385 800 q 496 689 458 726 q 588 845 547 766 q 660 1010 630 924 q 687 1049 669 1036 q 726 1067 705 1063 q 768 1065 747 1071 q 804 1046 789 1059 q 825 1012 819 1032 q 823 966 831 991 q 731 760 785 858 q 613 568 677 662 q 802 361 707 463 q 989 153 896 258 z "},"Ц":{"ha":1027,"x_min":100,"x_max":1001,"o":"m 952 160 q 990 117 980 144 q 1001 61 1000 91 q 997 -1 1001 31 q 991 -57 992 -32 q 976 -102 989 -84 q 943 -129 962 -120 q 902 -138 924 -138 q 862 -129 880 -138 q 832 -102 844 -120 q 822 -57 821 -84 q 825 -25 823 -41 q 829 8 827 -8 q 822 9 825 9 q 814 10 819 9 q 692 7 753 8 q 569 9 631 7 q 430 15 499 12 q 291 16 361 17 q 260 15 277 16 q 227 14 243 14 q 194 18 210 15 q 165 30 178 22 q 129 68 142 46 q 109 117 115 91 q 101 172 102 143 q 102 230 100 201 q 105 287 103 259 q 108 338 108 314 q 106 635 107 488 q 105 932 104 783 q 118 978 105 960 q 149 1005 130 996 q 190 1014 168 1014 q 231 1005 212 1014 q 262 978 250 996 q 274 932 274 960 q 275 635 273 783 q 277 338 276 488 q 276 263 277 300 q 276 186 275 225 q 283 185 279 186 q 291 184 287 185 q 569 178 429 184 q 613 178 590 177 q 663 181 637 180 q 662 373 660 277 q 667 566 664 469 q 674 758 671 662 q 678 949 677 854 q 691 995 678 977 q 723 1022 704 1013 q 763 1031 741 1031 q 804 1022 785 1031 q 835 995 823 1013 q 847 949 847 977 q 843 760 846 854 q 836 569 840 665 q 831 379 833 474 q 831 189 829 283 q 896 181 865 188 q 952 160 927 175 z "},"Ч":{"ha":913,"x_min":17,"x_max":827,"o":"m 823 945 q 815 910 819 928 q 807 875 812 892 q 782 673 787 776 q 778 468 777 571 q 784 261 779 364 q 789 59 788 159 q 776 14 789 32 q 745 -13 764 -4 q 705 -22 726 -22 q 664 -13 683 -22 q 632 14 645 -4 q 620 59 620 32 q 614 288 619 173 q 610 521 610 404 q 548 473 581 494 q 479 439 515 452 q 402 423 442 427 q 319 428 362 420 q 194 469 246 441 q 107 535 142 496 q 53 623 73 574 q 25 727 34 672 q 18 843 17 783 q 26 967 19 904 q 43 1011 28 994 q 77 1039 57 1029 q 118 1048 96 1048 q 158 1039 140 1048 q 186 1012 176 1030 q 195 967 197 994 q 187 897 191 935 q 181 821 182 859 q 185 746 180 783 q 205 679 190 709 q 248 628 220 649 q 321 598 275 606 q 443 611 390 586 q 535 684 496 636 q 601 792 574 731 q 643 913 627 853 q 650 951 646 932 q 660 989 654 970 q 683 1030 667 1016 q 719 1049 699 1045 q 759 1047 738 1053 q 795 1027 779 1041 q 819 992 810 1013 q 823 945 827 971 z "},"Ш":{"ha":1412,"x_min":84,"x_max":1323,"o":"m 1289 958 q 1308 737 1299 850 q 1320 510 1316 624 q 1319 283 1323 396 q 1298 62 1314 170 q 1288 37 1296 48 q 1268 18 1280 26 q 1243 5 1257 10 q 1217 0 1230 1 q 1089 -5 1153 -5 q 962 -5 1026 -6 q 835 -1 899 -3 q 707 3 771 1 q 584 3 646 4 q 461 2 523 3 q 338 3 399 2 q 215 8 277 4 q 156 33 178 11 q 131 92 134 56 q 118 304 121 198 q 113 516 115 410 q 106 728 111 622 q 87 939 101 833 q 94 984 84 966 q 122 1011 104 1002 q 162 1020 140 1020 q 203 1010 184 1019 q 238 984 223 1002 q 256 939 253 966 q 273 748 269 844 q 280 556 278 652 q 285 365 283 460 q 293 173 287 269 q 456 172 375 170 q 620 174 538 174 q 613 353 612 263 q 618 534 615 444 q 621 714 621 624 q 611 895 621 804 q 618 939 608 922 q 646 966 629 957 q 686 975 664 975 q 727 966 707 975 q 762 939 747 957 q 779 895 776 921 q 789 713 790 804 q 784 531 787 623 q 779 349 780 440 q 788 168 777 258 q 965 163 877 165 q 1142 165 1053 161 q 1154 361 1153 261 q 1150 563 1155 462 q 1137 764 1145 664 q 1120 958 1128 863 q 1128 1003 1117 985 q 1157 1030 1139 1021 q 1197 1039 1175 1039 q 1238 1030 1219 1039 q 1272 1003 1258 1021 q 1289 958 1286 985 z "},"Щ":{"ha":1454,"x_min":84,"x_max":1437,"o":"m 1432 86 q 1435 31 1437 58 q 1428 -23 1433 4 q 1418 -78 1423 -50 q 1412 -132 1413 -105 q 1398 -177 1411 -159 q 1365 -204 1385 -195 q 1324 -214 1346 -214 q 1284 -205 1303 -214 q 1254 -178 1265 -196 q 1243 -132 1242 -159 q 1250 -72 1244 -102 q 1260 -12 1255 -43 q 1261 -6 1261 -9 q 1261 -1 1261 -4 l 1217 -5 q 1089 -10 1153 -9 q 962 -9 1026 -11 q 835 -6 899 -8 q 707 -2 771 -3 q 584 -1 646 -1 q 461 -2 523 -2 q 338 -2 399 -3 q 215 3 277 -1 q 156 28 178 6 q 131 87 134 51 q 118 299 121 193 q 113 511 115 406 q 106 723 111 617 q 87 934 101 829 q 94 979 84 961 q 122 1006 104 997 q 162 1015 140 1015 q 203 1005 184 1015 q 238 978 223 996 q 256 934 253 960 q 273 743 269 838 q 280 551 278 647 q 285 360 283 456 q 293 168 287 264 q 456 167 375 165 q 620 168 538 169 q 613 349 612 258 q 618 529 615 439 q 621 709 621 619 q 611 890 621 800 q 618 935 608 917 q 646 961 629 952 q 686 970 664 970 q 727 961 707 970 q 762 934 747 952 q 779 890 776 916 q 789 708 790 799 q 784 526 787 617 q 779 345 780 435 q 788 163 777 254 q 965 158 877 160 q 1142 160 1053 157 q 1154 357 1153 256 q 1150 558 1155 457 q 1137 759 1145 659 q 1120 954 1128 859 q 1128 999 1117 981 q 1157 1025 1139 1017 q 1197 1034 1175 1034 q 1238 1025 1219 1034 q 1272 998 1258 1016 q 1289 954 1286 980 q 1305 760 1297 859 q 1317 562 1313 662 q 1321 363 1322 463 q 1312 167 1320 264 q 1352 161 1332 165 q 1388 148 1371 157 q 1416 123 1404 138 q 1432 86 1428 109 z "},"Ъ":{"ha":917,"x_min":9,"x_max":892,"o":"m 393 647 q 508 655 448 656 q 625 640 568 654 q 732 601 682 627 q 819 535 783 574 q 874 441 855 495 q 886 318 892 387 q 851 192 879 248 q 781 95 824 136 q 684 28 739 54 q 569 -9 629 2 q 444 -16 508 -20 q 317 8 379 -12 q 316 8 317 8 q 315 9 316 9 q 280 27 296 14 q 258 67 264 41 q 227 268 234 167 q 220 471 219 370 q 227 675 221 573 q 233 879 232 777 q 162 875 197 877 q 91 871 127 873 q 46 882 64 870 q 19 911 28 893 q 9 951 9 929 q 19 992 9 973 q 46 1025 28 1012 q 91 1040 64 1039 q 204 1046 148 1043 q 317 1053 260 1049 q 350 1046 335 1053 q 377 1027 366 1040 q 395 1000 388 1015 q 402 968 401 984 q 400 808 404 888 q 393 647 397 728 m 411 159 q 481 154 444 154 q 552 160 517 153 q 618 180 587 166 q 672 216 649 194 q 707 269 694 238 q 718 342 720 300 q 700 407 715 380 q 659 451 684 433 q 603 478 634 469 q 537 489 571 487 q 470 488 503 492 q 407 478 436 485 q 397 476 401 477 q 387 475 392 476 q 391 316 386 395 q 411 159 395 237 z "},"Ы":{"ha":1194,"x_min":92,"x_max":1101,"o":"m 562 644 q 652 602 610 631 q 723 532 693 572 q 767 443 752 492 q 779 342 783 394 q 743 217 773 271 q 664 124 712 163 q 555 60 616 85 q 428 23 494 35 q 297 9 363 10 q 172 18 231 9 q 125 43 140 22 q 111 88 111 63 q 111 93 111 91 q 111 99 111 96 q 108 528 109 313 q 94 956 107 742 q 103 1001 92 983 q 133 1028 115 1019 q 173 1037 151 1037 q 214 1028 195 1037 q 247 1001 233 1019 q 262 956 260 983 q 271 791 268 873 q 275 625 274 709 q 347 642 311 635 q 419 653 383 650 q 491 655 456 657 q 562 644 527 654 m 279 176 q 351 180 312 176 q 428 193 390 184 q 501 216 466 201 q 562 251 536 230 q 601 299 587 271 q 609 363 614 327 q 586 431 604 405 q 542 469 568 456 q 484 485 516 482 q 416 483 451 487 q 346 470 381 479 q 278 452 310 461 q 278 314 278 382 q 279 176 279 245 m 1097 115 q 1092 67 1101 88 q 1065 32 1082 45 q 1027 12 1048 18 q 987 10 1006 6 q 953 28 968 14 q 935 69 939 42 q 916 291 919 180 q 915 512 913 401 q 919 733 917 623 q 912 956 920 844 q 921 1001 910 983 q 951 1028 932 1019 q 991 1037 969 1037 q 1033 1028 1013 1037 q 1065 1001 1052 1019 q 1081 956 1079 983 q 1086 745 1088 850 q 1081 535 1084 640 q 1081 325 1079 430 q 1097 115 1082 220 z "},"Ь":{"ha":787,"x_min":83,"x_max":756,"o":"m 257 647 q 372 655 312 656 q 489 640 432 654 q 596 601 546 627 q 683 535 647 574 q 738 441 719 495 q 749 318 756 387 q 715 192 743 248 q 645 95 688 136 q 548 28 602 54 q 432 -9 493 2 q 307 -16 372 -20 q 181 8 243 -12 q 180 8 180 8 q 179 9 180 9 q 144 27 159 14 q 123 67 129 41 q 96 216 104 141 q 85 365 87 290 q 85 515 83 440 q 91 666 87 591 q 97 817 94 742 q 97 968 99 892 q 109 1013 96 995 q 139 1040 121 1031 q 179 1049 157 1049 q 220 1040 201 1049 q 252 1013 239 1031 q 266 968 265 995 q 264 808 268 888 q 257 647 261 728 m 275 159 q 345 154 308 154 q 416 160 381 153 q 482 180 451 166 q 536 216 513 194 q 571 269 559 238 q 581 342 583 300 q 564 407 579 380 q 523 451 548 433 q 466 478 498 469 q 401 489 435 487 q 334 488 368 492 q 271 478 300 485 q 261 476 266 477 q 251 475 256 476 q 254 316 250 395 q 275 159 259 237 z "},"Э":{"ha":773,"x_min":12,"x_max":727,"o":"m 576 945 q 666 836 633 896 q 713 710 699 777 q 726 573 727 644 q 714 433 724 503 q 696 342 707 389 q 668 251 685 296 q 628 166 651 207 q 573 91 604 125 q 502 34 542 58 q 413 -2 463 9 q 299 -16 356 -15 q 192 0 243 -16 q 97 49 140 16 q 25 138 54 83 q 15 184 12 161 q 29 223 17 206 q 59 252 41 241 q 99 264 78 263 q 139 256 119 266 q 171 222 158 246 q 204 183 183 199 q 249 159 224 168 q 301 149 274 151 q 355 154 328 148 q 405 173 381 160 q 446 205 429 185 q 509 303 487 250 q 543 415 532 357 q 474 417 508 416 q 406 418 441 418 q 353 419 380 419 q 300 417 327 419 q 282 414 290 416 q 270 412 274 412 q 269 413 267 411 q 281 425 271 416 q 238 403 260 406 q 196 407 216 400 q 160 430 176 414 q 138 465 144 446 q 136 505 132 484 q 161 544 141 526 q 207 571 182 562 q 260 584 233 581 q 315 588 288 588 q 369 588 343 588 q 464 586 416 587 q 559 583 511 585 q 554 672 561 628 q 523 753 547 717 q 456 820 497 793 q 369 859 416 848 q 275 861 323 869 q 189 821 228 853 q 145 802 168 804 q 102 807 122 800 q 66 830 81 814 q 44 864 50 845 q 43 903 37 883 q 69 941 48 924 q 188 1007 122 984 q 321 1032 253 1030 q 456 1012 390 1034 q 576 945 522 991 z "},"Ю":{"ha":1448,"x_min":83,"x_max":1411,"o":"m 918 1023 q 1067 1016 998 1032 q 1193 965 1136 1000 q 1293 878 1249 930 q 1363 762 1336 825 q 1401 627 1390 699 q 1403 481 1411 555 q 1390 358 1403 418 q 1351 245 1377 298 q 1288 148 1325 192 q 1202 71 1251 103 q 1096 20 1154 39 q 970 0 1038 1 q 855 9 912 -1 q 745 42 798 20 q 646 97 692 64 q 563 172 600 130 q 501 265 526 214 q 465 377 475 317 q 464 386 464 382 q 463 396 463 391 q 421 402 442 399 q 379 407 400 406 q 339 406 359 408 q 302 396 319 404 q 300 240 301 318 q 298 83 299 162 q 286 38 298 56 q 255 11 273 20 q 214 2 236 2 q 173 11 192 2 q 142 38 155 20 q 130 83 130 56 q 133 294 130 189 q 133 506 135 400 q 121 716 131 611 q 89 924 112 821 q 91 972 83 951 q 115 1007 99 993 q 153 1026 132 1021 q 194 1028 174 1032 q 230 1010 214 1025 q 252 969 246 996 q 285 768 275 869 q 299 566 296 668 q 382 569 341 572 q 468 562 423 566 q 524 725 484 646 q 623 867 564 804 q 757 972 682 930 q 918 1023 832 1013 m 970 169 q 1086 199 1036 174 q 1168 267 1135 225 q 1218 363 1202 309 q 1234 481 1234 418 q 1234 579 1240 529 q 1213 676 1229 629 q 1171 761 1197 722 q 1107 826 1144 800 q 1021 859 1069 851 q 915 852 973 867 q 826 814 869 840 q 747 750 783 787 q 684 668 711 713 q 641 574 656 623 q 624 475 625 526 q 637 377 622 425 q 687 284 653 325 q 767 217 722 244 q 864 177 812 190 q 970 169 917 165 z "},"а":{"ha":909,"x_min":27,"x_max":883,"o":"m 873 107 q 877 61 883 81 q 857 27 871 41 q 820 8 842 14 q 778 6 799 3 q 739 23 757 9 q 711 62 720 37 q 659 201 685 132 q 608 341 633 271 q 448 328 527 338 q 290 304 370 318 l 288 304 q 244 185 266 245 q 200 65 222 125 q 172 26 191 40 q 133 9 154 13 q 90 11 111 5 q 54 31 68 17 q 33 64 39 44 q 37 111 27 85 q 120 336 79 223 q 207 561 161 450 q 306 781 253 673 q 421 993 358 889 q 458 1026 435 1016 q 505 1033 481 1036 q 549 1014 529 1029 q 576 972 568 999 q 643 754 607 863 q 716 537 678 645 q 794 322 754 429 q 873 107 834 214 m 359 486 q 453 499 406 494 q 548 508 500 505 q 471 734 508 620 q 413 611 441 673 q 359 486 385 549 z "},"б":{"ha":926,"x_min":82,"x_max":904,"o":"m 681 547 q 773 497 730 528 q 848 424 817 465 q 891 332 878 382 q 890 224 904 281 q 829 106 873 155 q 724 27 785 57 q 590 -15 663 -3 q 442 -26 517 -28 q 297 -12 368 -25 q 170 26 227 2 q 131 40 149 28 q 104 74 113 52 q 98 94 99 83 q 98 115 96 104 q 97 329 98 222 q 101 542 96 435 q 107 629 103 583 q 114 722 112 675 q 111 814 115 769 q 91 899 106 860 q 85 940 82 922 q 100 971 89 958 q 120 991 108 983 q 150 1004 132 1000 q 458 1037 300 1033 q 767 1023 616 1042 q 811 1005 793 1020 q 839 970 829 990 q 848 929 848 951 q 839 889 848 907 q 812 861 830 871 q 767 854 794 850 q 523 869 648 869 q 276 854 398 870 q 281 784 280 820 q 280 714 281 749 q 276 644 278 679 q 272 578 273 610 l 270 535 q 373 556 319 546 q 480 570 427 566 q 586 569 534 574 q 681 547 637 564 m 267 172 q 327 159 292 165 q 399 150 361 153 q 477 147 437 147 q 555 151 517 146 q 625 164 592 155 q 682 190 658 174 q 717 228 705 205 q 726 281 729 250 q 693 352 720 327 q 625 389 666 378 q 536 400 585 401 q 437 394 487 400 q 343 378 388 388 q 267 361 298 368 q 266 266 266 313 q 267 172 267 219 z "},"в":{"ha":852,"x_min":106,"x_max":800,"o":"m 618 557 q 700 509 663 537 q 760 445 736 481 q 792 366 784 410 q 786 273 800 323 q 732 165 769 212 q 646 86 696 119 q 537 34 596 54 q 415 6 477 14 q 291 1 353 -2 q 176 18 230 4 q 142 35 155 23 q 122 62 129 47 l 120 68 q 119 73 119 71 q 115 99 115 85 q 110 527 114 314 q 106 954 106 739 q 119 1001 106 982 q 152 1028 132 1019 q 194 1036 172 1037 q 235 1025 216 1035 q 331 1024 282 1025 q 426 1017 379 1023 q 515 998 472 1011 q 594 960 558 985 q 656 899 629 936 q 696 807 682 861 q 705 731 707 766 q 693 664 704 695 q 663 606 682 633 q 618 557 644 580 m 510 817 q 459 844 488 835 q 401 857 431 853 q 338 860 370 861 q 275 859 307 860 q 277 724 276 791 q 278 589 277 656 q 345 603 308 599 q 384 614 365 608 q 420 627 402 619 q 453 644 434 633 q 489 670 471 655 q 520 703 507 686 q 540 740 534 721 q 539 779 545 760 q 510 817 533 798 m 610 280 q 620 337 625 313 q 594 380 614 362 q 543 410 574 399 q 478 428 512 422 q 410 435 444 434 q 350 431 376 435 q 335 428 342 430 q 319 425 327 426 q 281 424 299 420 q 282 297 281 360 q 283 171 283 235 q 375 170 326 167 q 471 185 425 173 q 555 221 517 198 q 610 280 592 244 z "},"г":{"ha":703,"x_min":92,"x_max":696,"o":"m 614 1034 q 659 1021 641 1034 q 687 989 677 1008 q 696 948 696 970 q 687 908 696 926 q 659 877 677 889 q 614 865 641 865 q 439 870 526 865 q 264 873 352 874 q 274 676 267 774 q 287 479 281 578 q 294 282 293 381 q 288 85 296 184 q 273 41 286 59 q 240 13 259 22 q 200 4 222 4 q 161 13 179 4 q 131 40 143 22 q 119 85 119 58 l 119 121 q 122 144 119 135 q 123 347 127 245 q 113 549 120 448 q 100 751 106 650 q 92 954 94 852 q 109 1005 92 986 q 150 1031 126 1025 q 177 1038 162 1037 q 286 1042 231 1042 q 395 1041 340 1042 q 504 1037 450 1039 q 614 1034 559 1034 z "},"д":{"ha":1046,"x_min":9,"x_max":1038,"o":"m 956 143 q 1001 131 983 143 q 1028 99 1019 118 q 1038 58 1038 80 q 1028 17 1038 36 q 1001 -14 1019 -1 q 956 -26 983 -26 q 739 -21 847 -25 q 522 -16 630 -18 q 306 -18 414 -14 q 90 -35 197 -21 q 44 -28 62 -39 q 18 -1 26 -18 q 9 39 9 17 q 18 81 9 61 q 45 115 27 100 q 90 134 62 130 q 115 137 102 136 q 141 139 127 138 q 202 350 170 245 q 269 558 235 454 q 336 767 303 663 q 397 978 369 872 q 424 1019 404 1003 q 468 1038 444 1034 q 516 1032 492 1042 q 551 998 539 1023 q 645 785 602 893 q 729 568 687 676 q 818 353 772 460 q 924 146 865 247 q 926 144 926 144 q 941 143 933 144 q 956 143 948 143 m 320 152 q 525 153 423 155 q 731 148 627 151 q 665 285 696 216 q 606 426 635 355 q 550 567 578 496 q 494 709 523 638 q 405 431 451 568 q 320 152 359 293 z "},"е":{"ha":896,"x_min":87,"x_max":840,"o":"m 758 177 q 803 166 785 178 q 830 136 821 154 q 840 95 840 117 q 830 54 840 73 q 803 22 821 35 q 758 8 785 9 q 645 4 701 6 q 533 -1 589 2 q 423 -10 478 -5 q 311 -24 368 -16 q 199 -17 248 -33 q 113 50 151 -1 q 93 102 98 71 q 87 169 87 133 q 93 244 88 205 q 103 319 98 283 q 114 388 109 356 q 121 444 119 420 q 133 692 126 568 q 141 940 139 815 q 138 966 138 953 q 142 992 138 980 q 154 1016 146 1005 q 174 1034 162 1027 q 213 1050 191 1047 q 254 1047 234 1053 q 476 1044 366 1046 q 699 1041 587 1042 q 744 1028 726 1041 q 771 997 762 1016 q 781 956 781 978 q 771 915 781 934 q 744 884 762 897 q 699 872 726 872 q 504 874 601 872 q 310 878 408 876 q 308 731 309 804 q 303 584 307 658 q 381 586 342 583 q 456 591 421 589 q 566 597 511 594 q 676 612 622 601 q 724 609 703 617 q 759 584 745 600 q 779 546 773 567 q 781 505 785 525 q 763 470 777 486 q 722 449 748 454 q 589 431 656 436 q 456 422 522 425 q 376 417 417 420 q 294 416 335 414 q 286 316 290 365 q 274 217 281 267 q 277 174 271 189 q 296 154 283 159 q 327 149 309 148 q 365 155 345 151 q 403 164 384 159 q 437 172 422 170 q 516 178 476 177 q 597 178 557 179 q 678 177 637 178 q 758 177 718 176 z "},"ж":{"ha":1181,"x_min":7,"x_max":1179,"o":"m 1136 200 q 1170 168 1160 187 q 1178 127 1179 148 q 1165 87 1176 106 q 1137 57 1154 68 q 1097 43 1119 45 q 1050 54 1074 41 q 829 199 934 118 q 625 366 725 279 q 620 282 622 325 q 620 198 618 240 q 630 117 622 157 q 655 39 637 77 q 663 -8 667 15 q 648 -48 660 -31 q 616 -78 635 -66 q 577 -90 597 -89 q 539 -81 557 -91 q 509 -46 520 -71 q 477 40 489 -3 q 460 127 466 83 q 454 216 454 171 q 455 306 453 260 q 318 177 385 241 q 184 45 250 113 q 144 22 165 26 q 103 24 123 18 q 68 46 83 31 q 45 82 52 62 q 42 123 39 102 q 65 165 46 145 q 252 348 157 260 q 445 526 348 437 q 253 686 351 609 q 50 827 156 764 q 17 861 26 840 q 9 902 7 881 q 22 941 11 922 q 50 972 33 960 q 89 985 67 983 q 135 972 111 986 q 297 865 220 923 q 449 743 374 806 q 443 853 446 798 q 443 965 441 909 q 457 1010 444 992 q 489 1037 470 1028 q 530 1046 509 1046 q 571 1038 552 1046 q 601 1010 589 1029 q 612 965 612 992 q 614 831 610 897 q 624 698 618 765 q 762 841 695 768 q 892 993 829 913 q 928 1020 908 1015 q 967 1019 948 1025 q 1001 997 986 1013 q 1024 961 1017 981 q 1030 918 1032 941 q 1011 873 1027 895 q 857 695 937 780 q 692 528 777 610 q 798 438 745 482 q 905 352 850 393 q 1018 272 960 310 q 1136 200 1075 233 z "},"з":{"ha":685,"x_min":6,"x_max":656,"o":"m 385 592 q 493 537 441 568 q 583 466 545 507 q 638 369 620 424 q 646 239 656 313 q 606 130 638 174 q 525 59 573 86 q 419 18 477 31 q 299 2 360 5 q 178 4 237 -1 q 70 18 119 9 q 29 38 43 22 q 10 73 14 53 q 12 114 6 92 q 32 151 18 135 q 67 176 46 168 q 115 180 88 185 q 244 168 177 169 q 372 182 311 166 q 411 198 391 188 q 446 221 430 208 q 473 251 462 235 q 487 286 484 267 q 482 323 490 304 q 454 362 475 342 q 397 405 428 387 q 333 435 366 422 q 266 460 300 449 q 199 485 232 472 q 162 509 177 493 q 140 546 146 526 q 139 587 134 566 q 161 626 143 608 q 210 669 184 649 q 262 708 236 688 q 313 748 288 728 q 359 793 338 769 q 375 830 379 816 q 351 851 370 844 q 303 860 332 858 q 244 860 274 861 q 189 856 214 859 q 151 850 163 853 q 104 853 125 845 q 68 878 83 861 q 48 915 54 894 q 47 956 43 936 q 65 992 51 976 q 106 1013 79 1008 q 184 1026 141 1021 q 273 1031 227 1031 q 363 1024 318 1031 q 446 999 408 1017 q 512 952 484 982 q 552 879 540 923 q 554 792 565 832 q 518 717 543 752 q 457 651 492 682 q 385 592 421 621 z "},"и":{"ha":981,"x_min":92,"x_max":892,"o":"m 856 946 q 870 730 866 839 q 876 513 874 622 q 881 296 878 404 q 890 79 883 187 q 880 34 892 52 q 850 7 869 16 q 810 -2 832 -2 q 769 7 789 -2 q 736 34 750 16 q 721 79 722 52 q 720 85 720 81 l 720 85 q 710 367 711 227 q 704 650 708 508 q 607 503 656 576 q 512 355 558 431 q 458 264 486 310 q 400 176 431 219 q 333 95 369 133 q 253 28 297 57 q 210 15 231 14 q 170 28 188 16 q 140 59 152 39 q 126 101 128 79 q 110 313 115 207 q 104 526 106 420 q 101 739 102 633 q 94 952 100 846 q 104 997 92 979 q 134 1024 115 1015 q 174 1034 152 1034 q 215 1024 195 1034 q 248 997 234 1015 q 262 952 261 979 q 269 787 267 869 q 272 622 271 704 q 275 456 273 539 q 281 292 277 374 q 320 355 302 322 q 357 421 339 388 q 394 486 376 454 q 431 546 412 517 q 505 653 469 600 q 575 761 541 707 q 641 872 610 816 q 699 989 672 928 q 738 1028 713 1021 q 789 1027 764 1036 q 834 996 814 1018 q 856 946 853 974 z "},"й":{"ha":981,"x_min":92,"x_max":892,"o":"m 492 1141 q 446 1154 465 1141 q 419 1185 428 1166 q 410 1226 410 1204 q 419 1266 410 1248 q 446 1298 428 1285 q 492 1310 465 1310 q 537 1298 519 1310 q 565 1266 555 1285 q 574 1226 574 1248 q 565 1185 574 1204 q 537 1154 555 1166 q 492 1141 519 1141 m 856 946 q 870 730 866 839 q 876 513 874 622 q 881 296 878 404 q 890 79 883 187 q 880 34 892 52 q 850 7 869 16 q 810 -2 832 -2 q 769 7 789 -2 q 736 34 750 16 q 721 79 722 52 q 720 85 720 81 l 720 85 q 710 367 711 227 q 704 650 708 508 q 607 503 656 576 q 512 355 558 431 q 458 264 486 310 q 400 176 431 219 q 333 95 369 133 q 253 28 297 57 q 210 15 231 14 q 170 28 188 16 q 140 59 152 39 q 126 101 128 79 q 110 313 115 207 q 104 526 106 420 q 101 739 102 633 q 94 952 100 846 q 104 997 92 979 q 134 1024 115 1015 q 174 1034 152 1034 q 215 1024 195 1034 q 248 997 234 1015 q 262 952 261 979 q 269 787 267 869 q 272 622 271 704 q 275 456 273 539 q 281 292 277 374 q 320 355 302 322 q 357 421 339 388 q 394 486 376 454 q 431 546 412 517 q 505 653 469 600 q 575 761 541 707 q 641 872 610 816 q 699 989 672 928 q 738 1028 713 1021 q 789 1027 764 1036 q 834 996 814 1018 q 856 946 853 974 z "},"к":{"ha":912,"x_min":109,"x_max":907,"o":"m 876 137 q 902 100 897 120 q 901 60 907 79 q 879 26 895 41 q 843 3 863 10 q 800 -2 823 -5 q 756 17 777 0 q 637 107 698 64 q 515 193 576 150 q 395 280 454 235 q 281 375 336 324 q 277 77 278 225 q 265 32 277 50 q 234 4 252 14 q 193 -5 215 -5 q 152 4 171 -5 q 121 32 134 14 q 109 77 109 50 q 115 515 109 297 q 121 952 121 732 q 134 997 121 979 q 165 1024 146 1015 q 207 1034 184 1034 q 247 1024 229 1034 q 278 997 266 1015 q 290 952 290 979 q 289 800 290 876 q 287 648 288 724 q 338 714 313 680 q 391 782 364 748 q 446 847 418 815 q 504 904 473 878 q 567 950 534 930 q 637 978 600 969 q 685 976 664 984 q 720 952 706 968 q 740 916 734 937 q 742 874 745 895 q 723 838 738 854 q 682 815 709 821 q 628 785 655 808 q 576 733 602 762 q 530 674 551 704 q 491 624 508 644 q 441 564 466 593 q 389 505 416 534 q 505 406 444 452 q 628 316 566 360 q 753 229 690 273 q 876 137 817 185 z "},"л":{"ha":996,"x_min":14,"x_max":979,"o":"m 965 122 q 977 76 979 98 q 963 37 975 54 q 932 8 951 20 q 893 -4 913 -3 q 852 4 872 -5 q 819 37 832 13 q 725 214 768 123 q 642 397 682 304 q 562 581 602 489 q 477 763 522 673 q 429 614 454 688 q 369 469 404 541 q 319 368 345 418 q 269 267 294 317 q 223 163 245 216 q 184 57 201 111 q 159 17 176 31 q 121 -1 142 3 q 79 1 100 -5 q 43 21 58 7 q 20 55 27 35 q 22 102 14 75 q 60 208 39 155 q 104 311 81 260 q 153 412 128 361 q 203 513 178 462 q 254 633 231 572 q 297 755 277 694 q 335 879 317 817 q 374 1004 354 941 q 402 1045 382 1029 q 446 1064 422 1061 q 492 1058 469 1067 q 529 1024 515 1048 q 645 803 593 917 q 748 574 698 689 q 850 345 798 459 q 965 122 902 231 z "},"м":{"ha":1101,"x_min":73,"x_max":1004,"o":"m 989 954 q 1000 521 999 738 q 1004 87 1002 304 q 991 42 1004 60 q 961 15 979 24 q 920 6 942 6 q 879 15 898 6 q 847 42 860 24 q 835 87 835 60 q 832 386 833 237 q 828 685 831 535 q 770 590 799 637 q 708 497 741 543 q 671 448 690 471 q 629 407 652 425 q 579 378 606 389 q 518 369 552 368 q 455 382 483 370 q 404 415 427 395 q 363 462 381 435 q 331 520 346 489 q 304 585 317 551 q 279 652 292 618 q 269 355 276 503 q 240 58 261 206 q 221 17 236 31 q 188 -2 207 2 q 147 0 168 -5 q 109 20 125 6 q 82 55 92 34 q 77 103 73 77 q 98 311 92 207 q 108 519 105 414 q 113 727 111 623 q 118 936 114 831 q 131 978 119 958 q 162 1009 143 998 q 202 1022 180 1021 q 245 1008 224 1023 q 305 953 280 984 q 350 887 330 922 q 386 815 370 852 q 417 740 401 778 q 450 665 433 702 q 491 595 468 629 q 522 557 511 568 q 542 552 533 547 q 559 573 550 556 q 583 615 568 589 q 608 659 595 637 q 633 702 620 680 q 730 851 682 777 q 831 996 777 925 q 876 1030 850 1021 q 927 1034 903 1039 q 969 1008 951 1028 q 989 954 987 987 z "},"н":{"ha":939,"x_min":95,"x_max":854,"o":"m 850 106 q 845 59 854 80 q 820 23 836 37 q 782 4 803 9 q 741 2 761 -2 q 706 20 722 6 q 687 62 691 35 q 666 242 672 153 q 657 422 659 331 q 561 401 610 409 q 462 388 511 393 q 362 381 412 383 q 264 378 313 378 l 264 84 q 251 39 264 57 q 220 12 239 21 q 179 3 201 3 q 139 12 157 3 q 107 39 120 21 q 95 84 95 57 l 95 938 q 107 983 95 965 q 139 1011 120 1002 q 179 1020 157 1020 q 220 1011 201 1020 q 251 983 239 1002 q 264 938 264 965 l 264 547 q 463 558 363 549 q 657 598 562 568 q 661 774 659 687 q 665 950 663 861 q 677 996 665 977 q 709 1023 690 1014 q 750 1032 728 1032 q 790 1023 772 1032 q 821 996 809 1014 q 833 950 833 977 q 829 739 833 845 q 824 528 825 633 q 827 316 823 422 q 850 106 832 211 z "},"о":{"ha":1025,"x_min":39,"x_max":983,"o":"m 975 548 q 966 378 983 460 q 908 228 949 296 q 802 107 867 159 q 648 28 736 55 q 547 8 600 14 q 442 6 495 3 q 338 24 389 10 q 242 63 288 38 q 160 123 197 87 q 98 208 123 159 q 52 348 64 274 q 47 495 39 421 q 79 642 54 570 q 143 778 104 714 q 236 895 183 842 q 353 983 289 947 q 457 1019 399 1008 q 574 1026 515 1029 q 690 1005 633 1023 q 789 955 746 987 q 872 873 839 918 q 927 777 906 828 q 959 670 948 726 q 975 554 969 614 q 975 551 975 552 q 975 548 975 549 m 294 233 q 412 174 349 188 q 534 170 474 159 q 649 213 595 180 q 742 294 703 245 q 800 403 781 342 q 809 531 819 464 q 808 539 808 534 q 807 546 808 543 q 806 554 806 550 q 794 640 802 595 q 769 723 787 684 q 723 792 752 762 q 648 836 694 823 q 548 852 597 851 q 454 839 498 853 q 371 794 410 825 q 304 716 333 764 q 265 643 283 683 q 233 558 246 602 q 214 470 220 515 q 214 381 208 425 q 239 300 220 338 q 294 233 258 262 z "},"п":{"ha":945,"x_min":94,"x_max":848,"o":"m 823 890 q 844 687 840 790 q 846 481 848 585 q 841 275 844 378 q 842 70 838 172 q 832 24 844 43 q 802 -3 820 6 q 761 -12 783 -12 q 720 -3 739 -12 q 688 24 701 6 q 673 70 675 43 q 671 237 670 153 q 673 404 672 321 q 675 571 675 488 q 670 739 675 655 q 667 804 668 770 q 654 869 665 838 q 642 874 652 873 q 615 876 631 876 q 581 874 600 876 q 546 871 562 873 q 516 868 529 869 q 500 866 504 867 q 382 857 440 859 q 265 857 325 856 q 263 661 262 760 q 264 464 263 562 q 267 266 265 365 q 268 70 268 168 q 255 24 268 43 q 224 -3 243 6 q 183 -12 205 -12 q 143 -3 161 -12 q 112 24 124 6 q 99 70 99 43 q 97 288 99 178 q 95 506 96 397 q 94 725 94 616 q 99 943 94 834 q 103 965 100 955 q 111 983 106 975 q 138 1015 121 1002 q 184 1027 156 1027 q 300 1032 239 1027 q 422 1041 361 1037 q 544 1046 484 1046 q 659 1037 604 1046 q 719 1021 692 1031 q 767 992 747 1010 q 802 949 788 975 q 823 890 817 924 z "},"р":{"ha":783,"x_min":85,"x_max":764,"o":"m 652 947 q 712 888 687 923 q 750 813 737 853 q 763 730 764 773 q 747 647 763 688 q 702 571 731 605 q 637 509 673 536 q 560 461 601 482 q 480 425 519 441 q 437 407 462 417 q 384 387 412 397 q 325 369 355 377 q 267 357 295 361 q 258 218 261 288 q 254 77 255 148 q 240 32 253 50 q 209 5 228 14 q 169 -4 191 -4 q 129 5 147 -4 q 97 32 110 14 q 85 77 85 50 l 85 115 q 85 121 85 118 q 86 128 85 125 q 96 330 89 229 q 110 532 102 431 q 124 734 118 633 q 132 937 130 835 q 150 988 132 969 q 191 1014 167 1007 q 203 1018 197 1017 q 216 1021 209 1020 q 328 1028 271 1027 q 442 1023 386 1030 q 552 998 498 1016 q 652 947 606 981 m 585 696 q 598 757 603 731 q 573 801 594 783 q 520 830 553 819 q 449 847 487 841 q 372 854 412 852 q 298 856 332 857 q 291 697 296 776 q 279 538 286 618 q 294 541 287 539 q 309 545 301 543 q 362 560 335 552 q 414 578 389 568 q 460 598 435 587 q 509 624 486 610 q 553 656 533 638 q 585 696 573 674 z "},"с":{"ha":865,"x_min":36,"x_max":848,"o":"m 701 244 q 742 268 720 264 q 784 264 764 271 q 819 242 804 258 q 842 208 835 227 q 844 166 848 188 q 821 125 840 144 q 757 75 794 98 q 678 36 720 53 q 589 9 635 20 q 497 -5 543 -1 q 408 -5 452 -9 q 328 9 365 -2 q 215 68 263 29 q 134 159 168 108 q 80 271 100 211 q 48 395 59 332 q 45 538 36 466 q 82 678 55 611 q 152 805 109 745 q 251 911 195 865 q 379 999 317 966 q 504 1041 441 1033 q 633 1031 567 1049 q 772 964 699 1013 q 804 929 795 949 q 811 887 812 908 q 798 846 809 865 q 770 816 787 827 q 731 804 753 805 q 687 819 710 804 q 622 856 653 841 q 558 876 590 871 q 494 870 527 880 q 425 834 461 861 q 361 784 392 810 q 306 726 331 758 q 254 644 275 686 q 221 555 232 601 q 211 462 210 510 q 227 366 212 414 q 257 285 239 322 q 300 221 275 248 q 362 180 326 195 q 448 169 398 166 q 514 173 479 170 q 583 184 549 176 q 647 206 616 192 q 701 244 677 220 z "},"т":{"ha":895,"x_min":14,"x_max":882,"o":"m 822 987 q 861 961 848 979 q 879 922 875 943 q 877 880 882 901 q 857 843 871 859 q 823 822 844 828 q 777 825 802 816 q 669 852 724 842 q 557 867 614 863 q 555 669 562 767 q 538 472 549 570 q 518 276 528 374 q 509 78 509 178 q 497 33 509 51 q 466 6 484 15 q 425 -3 447 -3 q 384 6 403 -3 q 353 33 366 15 q 340 78 340 51 q 350 276 340 178 q 369 472 359 374 q 387 668 380 570 q 388 867 393 766 q 252 851 319 861 q 121 825 185 840 q 74 826 95 818 q 39 849 53 833 q 20 887 26 865 q 18 928 14 908 q 36 964 22 948 q 77 987 50 981 q 260 1023 165 1009 q 450 1039 355 1037 q 640 1029 546 1041 q 822 987 734 1017 z "},"у":{"ha":852,"x_min":32,"x_max":840,"o":"m 696 1001 q 735 1026 714 1021 q 775 1024 755 1031 q 810 1002 794 1018 q 832 967 825 987 q 837 924 840 947 q 815 882 833 902 q 761 805 783 846 q 720 720 738 764 q 684 632 701 676 q 647 545 667 587 q 591 428 618 486 q 538 310 563 370 q 493 189 513 250 q 460 63 473 127 q 438 22 454 37 q 402 4 422 7 q 361 6 382 0 q 323 25 340 12 q 299 61 307 39 q 296 109 291 82 q 350 288 316 202 q 422 459 383 374 q 327 567 375 513 q 232 673 279 620 q 138 782 184 727 q 48 893 92 836 q 32 936 32 915 q 43 973 32 956 q 73 1000 54 989 q 113 1014 92 1011 q 157 1008 135 1016 q 195 979 178 1000 q 343 800 264 886 q 499 627 422 714 q 500 631 500 629 q 543 728 523 679 q 584 824 562 777 q 633 916 606 871 q 696 1001 660 961 z "},"ф":{"ha":944,"x_min":37,"x_max":916,"o":"m 907 732 q 907 624 916 677 q 875 525 898 572 q 817 441 852 479 q 738 375 782 403 q 642 333 694 348 q 535 319 591 318 q 529 188 534 253 q 509 58 524 123 q 486 18 503 32 q 449 -1 469 3 q 408 1 429 -5 q 371 21 387 7 q 347 56 355 35 q 346 103 339 77 q 362 208 359 155 q 366 313 365 260 q 215 368 281 332 q 107 458 149 404 q 52 586 66 513 q 56 752 37 659 q 113 890 73 836 q 209 974 153 943 q 335 1014 265 1004 q 484 1023 406 1025 q 630 1008 559 1022 q 759 961 701 994 q 856 872 816 928 q 907 732 895 817 m 214 649 q 228 579 216 608 q 262 533 241 551 q 311 504 283 515 q 372 484 339 492 q 383 668 380 577 q 387 852 386 759 q 312 834 345 847 q 257 798 279 822 q 224 738 235 774 q 214 649 213 701 m 539 488 q 608 502 574 489 q 669 537 642 515 q 718 589 697 559 q 746 650 738 618 q 747 718 753 683 q 715 786 740 753 q 684 816 701 804 q 645 836 666 828 q 602 848 625 844 q 555 854 578 852 q 548 671 553 762 q 539 488 543 580 z "},"х":{"ha":898,"x_min":28,"x_max":881,"o":"m 869 129 q 879 82 881 104 q 864 42 876 60 q 833 13 852 24 q 793 1 814 2 q 754 9 773 -1 q 722 43 734 19 q 603 252 667 151 q 465 450 538 353 q 351 246 406 348 q 235 43 296 144 q 200 11 220 20 q 159 4 180 2 q 119 16 138 5 q 89 44 100 27 q 76 83 77 62 q 89 129 75 105 q 221 359 158 243 q 352 589 284 475 q 209 746 282 670 q 58 891 136 821 q 33 930 38 909 q 35 971 28 951 q 57 1006 41 990 q 93 1028 73 1021 q 135 1033 113 1036 q 178 1011 157 1029 q 315 879 248 947 q 446 739 382 811 q 551 880 496 812 q 671 1011 606 948 q 712 1034 690 1030 q 753 1030 734 1038 q 789 1008 773 1023 q 811 972 804 992 q 814 931 818 953 q 790 891 810 910 q 666 753 722 825 q 559 604 610 682 q 726 373 648 492 q 869 129 804 254 z "},"ц":{"ha":972,"x_min":108,"x_max":941,"o":"m 880 153 q 910 139 897 150 q 930 114 922 129 q 939 82 937 99 q 939 49 941 64 q 928 -39 929 5 q 929 -127 928 -83 q 918 -173 930 -155 q 887 -200 905 -191 q 847 -209 869 -209 q 806 -200 825 -209 q 773 -173 787 -191 q 760 -127 760 -155 q 760 -63 759 -95 q 763 1 760 -31 q 731 7 747 5 q 699 14 715 10 q 447 1 572 7 q 195 3 321 -5 q 135 27 159 5 q 111 87 111 50 q 111 306 108 197 q 120 525 115 415 q 131 743 125 634 q 137 962 136 852 q 150 1008 137 989 q 182 1035 163 1026 q 222 1044 201 1044 q 263 1035 244 1044 q 294 1008 281 1026 q 306 962 306 989 q 301 764 305 863 q 291 565 296 665 q 282 367 286 466 q 279 168 279 268 q 470 171 375 167 q 662 180 565 175 q 659 274 662 227 q 652 367 656 320 q 647 460 649 414 q 646 553 644 507 q 654 765 648 660 q 664 977 661 870 q 679 1022 665 1004 q 711 1049 692 1040 q 752 1058 730 1058 q 792 1049 774 1058 q 823 1022 811 1040 q 833 977 834 1004 q 828 871 831 924 q 821 765 824 818 q 815 659 817 712 q 814 553 813 606 q 819 455 816 504 q 825 357 822 406 q 830 259 828 308 q 831 161 832 210 q 856 157 844 159 q 880 153 867 155 z "},"ч":{"ha":833,"x_min":25,"x_max":749,"o":"m 735 949 q 748 729 749 839 q 740 508 747 618 q 725 288 733 398 q 715 67 716 177 q 702 22 714 40 q 670 -5 689 4 q 630 -14 652 -14 q 590 -5 608 -14 q 558 22 571 4 q 546 67 546 40 l 546 146 q 547 158 546 153 q 549 169 547 163 q 556 289 552 229 q 564 408 559 349 q 462 386 514 397 q 358 371 410 375 q 256 374 306 368 q 159 404 205 380 q 76 469 105 431 q 36 553 47 508 q 28 649 25 599 q 39 751 31 700 q 59 853 48 803 q 75 949 70 903 q 93 993 79 975 q 127 1020 108 1011 q 169 1029 147 1029 q 209 1021 191 1029 q 237 994 227 1012 q 244 949 248 976 q 236 904 242 930 q 221 846 229 878 q 206 781 214 815 q 194 714 199 747 q 191 651 190 681 q 201 597 192 621 q 228 560 210 574 q 279 543 247 545 q 354 544 317 541 q 428 553 391 547 q 502 568 465 559 q 575 583 538 576 q 579 766 580 675 q 566 949 578 857 q 573 994 563 976 q 602 1021 584 1012 q 641 1029 619 1029 q 683 1020 663 1029 q 717 993 703 1011 q 735 949 732 975 z "},"ш":{"ha":1371,"x_min":96,"x_max":1280,"o":"m 1246 943 q 1271 680 1263 813 q 1266 416 1280 547 q 1261 337 1262 380 q 1256 251 1260 294 q 1243 167 1253 208 q 1211 94 1233 126 q 1136 28 1181 50 q 1037 -2 1090 5 q 924 -8 983 -10 q 806 1 865 -5 q 694 13 748 7 q 597 17 640 18 q 537 12 571 16 q 465 3 503 7 q 388 -5 427 -2 q 311 -8 348 -9 q 241 0 273 -7 q 185 23 208 7 q 146 62 161 39 q 124 112 132 85 q 113 167 116 138 q 108 223 110 195 q 110 606 96 412 q 160 987 123 800 q 181 1028 165 1013 q 217 1046 197 1042 q 258 1044 237 1050 q 295 1025 279 1038 q 320 990 311 1011 q 323 942 329 968 q 282 633 293 790 q 273 321 271 476 q 275 258 274 290 q 279 195 276 227 q 281 170 281 177 q 294 173 286 173 q 435 178 366 174 q 576 185 505 182 q 586 372 587 279 q 584 558 585 465 q 586 745 583 652 q 608 931 589 838 q 630 972 614 958 q 666 991 646 987 q 707 989 686 995 q 744 969 728 983 q 768 934 760 956 q 771 886 777 913 q 751 712 753 800 q 751 536 749 624 q 754 359 753 448 q 745 184 755 271 q 861 177 803 181 q 977 170 918 172 q 1026 171 1007 169 q 1057 181 1046 172 q 1075 208 1069 190 q 1084 258 1080 226 q 1100 601 1101 431 q 1077 943 1099 770 q 1084 987 1074 970 q 1111 1014 1094 1005 q 1151 1023 1128 1023 q 1193 1014 1173 1023 q 1227 987 1213 1004 q 1246 943 1242 969 z "},"щ":{"ha":1379,"x_min":96,"x_max":1357,"o":"m 1331 -108 q 1353 -153 1348 -127 q 1341 -204 1357 -178 q 1320 -228 1333 -218 q 1290 -243 1306 -238 q 1257 -247 1274 -248 q 1226 -234 1240 -245 q 1184 -190 1198 -213 q 1166 -140 1171 -166 q 1166 -85 1162 -113 q 1177 -25 1169 -56 q 1179 -13 1177 -20 q 1183 2 1181 -5 q 1184 16 1184 9 q 1181 23 1184 22 q 1169 25 1178 25 q 1148 23 1160 24 q 1124 21 1136 22 q 1104 18 1112 19 q 1101 19 1103 18 q 1098 19 1099 19 q 1018 2 1061 7 q 931 -1 976 -2 q 841 4 886 -1 q 753 13 796 8 q 670 21 709 18 q 597 23 630 24 q 537 18 571 22 q 465 9 503 14 q 388 1 427 4 q 311 -2 348 -3 q 241 6 273 -1 q 185 29 208 13 q 146 69 161 46 q 124 119 132 92 q 113 173 116 145 q 108 229 110 201 q 110 613 96 419 q 160 993 123 806 q 181 1034 165 1020 q 217 1053 197 1048 q 258 1050 237 1057 q 295 1031 279 1044 q 320 996 311 1017 q 323 948 329 975 q 282 639 293 796 q 273 328 271 482 q 275 264 274 296 q 279 201 276 233 q 281 176 281 183 q 294 180 286 180 q 435 185 366 180 q 576 191 505 189 q 586 378 587 285 q 584 565 585 471 q 586 752 583 659 q 608 938 589 845 q 630 979 614 964 q 666 997 646 994 q 707 995 686 1001 q 744 976 728 989 q 768 940 760 962 q 771 892 777 919 q 754 777 759 835 q 749 660 750 718 q 750 542 749 601 q 753 425 752 484 q 753 308 754 366 q 745 191 751 249 q 861 183 803 187 q 977 177 918 179 q 1026 177 1007 176 q 1057 188 1046 179 q 1075 214 1069 196 q 1084 264 1080 232 q 1100 607 1101 437 q 1077 949 1099 777 q 1084 994 1074 976 q 1111 1020 1094 1011 q 1151 1029 1128 1029 q 1193 1020 1173 1029 q 1227 993 1213 1011 q 1246 949 1242 975 q 1271 686 1263 819 q 1266 423 1280 553 q 1262 365 1263 396 q 1260 302 1261 334 q 1254 238 1258 271 q 1243 176 1251 206 q 1293 147 1270 166 q 1334 96 1316 128 q 1352 26 1352 64 q 1345 -47 1352 -12 q 1338 -76 1341 -61 q 1331 -105 1335 -90 l 1331 -108 l 1331 -108 z "},"ъ":{"ha":951,"x_min":1,"x_max":911,"o":"m 690 647 q 781 604 739 633 q 851 535 822 575 q 896 446 881 494 q 908 345 911 397 q 872 219 903 274 q 793 126 841 165 q 684 62 745 87 q 557 25 623 37 q 425 12 491 12 q 300 20 359 11 q 253 45 268 25 q 240 91 239 66 q 239 101 239 98 q 237 487 237 295 q 227 871 237 678 q 197 869 211 870 q 166 867 181 868 q 136 865 151 866 q 126 864 131 865 q 117 863 121 864 q 109 862 111 862 q 75 861 92 859 q 45 871 59 863 q 20 891 31 878 q 5 921 9 903 q 3 954 1 937 q 13 985 5 970 q 34 1010 21 1000 q 64 1025 47 1021 q 185 1040 123 1036 q 307 1044 246 1043 q 354 1030 336 1044 q 381 995 373 1016 q 382 994 382 994 q 382 993 382 994 q 383 991 382 991 q 383 989 383 991 q 391 959 389 976 q 399 794 397 876 q 404 629 402 711 q 476 645 439 637 q 548 656 512 653 q 620 658 585 660 q 690 647 656 656 m 408 179 q 479 183 441 179 q 556 195 518 186 q 630 218 595 204 q 690 253 665 233 q 729 302 716 274 q 738 366 743 330 q 714 434 732 408 q 671 473 696 460 q 612 488 645 486 q 545 486 580 490 q 474 473 510 481 q 406 454 439 464 q 407 317 407 385 q 408 179 407 248 z "},"ы":{"ha":1194,"x_min":91,"x_max":1110,"o":"m 265 650 q 381 659 321 660 q 498 644 441 657 q 605 604 555 630 q 692 537 656 577 q 747 444 728 498 q 759 321 766 390 q 725 195 752 251 q 654 98 697 139 q 557 30 612 56 q 441 -7 503 4 q 316 -14 380 -18 q 190 10 252 -10 q 187 11 189 11 q 152 30 168 16 q 131 69 137 43 q 97 293 103 180 q 94 519 91 406 q 102 745 96 632 q 105 971 108 859 q 117 1017 104 998 q 147 1044 129 1035 q 188 1053 165 1053 q 229 1044 210 1053 q 260 1017 248 1035 q 274 971 273 998 q 273 811 276 891 q 265 650 269 731 m 283 161 q 353 155 317 155 q 425 162 390 155 q 491 182 460 168 q 545 218 522 196 q 580 272 568 241 q 590 345 592 303 q 572 410 588 382 q 532 454 557 437 q 475 480 507 471 q 410 492 444 490 q 342 491 376 494 q 279 481 309 488 q 259 479 269 479 q 263 319 258 398 q 283 161 268 240 m 1087 996 q 1107 846 1105 921 q 1105 695 1110 771 q 1090 544 1099 620 q 1075 393 1081 469 q 1068 242 1068 317 q 1083 92 1069 167 q 1079 44 1088 66 q 1055 9 1071 23 q 1017 -11 1038 -5 q 976 -13 996 -16 q 941 6 956 -9 q 920 47 925 20 q 905 197 905 121 q 911 349 905 273 q 927 500 918 425 q 942 652 937 576 q 944 802 947 728 q 924 950 942 877 q 925 998 918 977 q 949 1033 933 1019 q 986 1052 965 1046 q 1028 1054 1008 1058 q 1064 1036 1048 1050 q 1087 996 1080 1022 z "},"ь":{"ha":824,"x_min":94,"x_max":785,"o":"m 564 647 q 654 604 613 633 q 725 535 696 575 q 770 446 755 494 q 781 345 785 397 q 746 219 777 274 q 667 126 715 165 q 557 62 618 87 q 431 25 496 37 q 299 12 365 12 q 174 20 233 11 q 127 45 142 25 q 113 91 113 66 q 113 96 113 94 q 113 101 113 98 q 110 530 111 315 q 96 959 109 745 q 105 1004 94 986 q 135 1031 117 1023 q 175 1040 153 1040 q 216 1031 197 1040 q 249 1004 235 1022 q 264 959 262 986 q 273 794 270 876 q 277 629 276 711 q 349 645 313 637 q 422 656 386 653 q 494 658 458 660 q 564 647 530 656 m 281 179 q 353 183 314 179 q 430 195 392 186 q 504 218 469 204 q 564 253 538 233 q 603 302 590 274 q 612 366 616 330 q 588 434 606 408 q 544 473 570 460 q 486 488 518 486 q 418 486 453 490 q 348 473 383 481 q 280 454 312 464 q 281 317 281 385 q 281 179 281 248 z "},"э":{"ha":796,"x_min":7,"x_max":752,"o":"m 621 931 q 705 834 677 890 q 743 713 733 777 q 749 582 752 649 q 739 454 745 515 q 727 368 734 412 q 709 281 720 324 q 681 198 698 238 q 639 123 664 158 q 581 62 614 89 q 502 20 547 35 q 378 -6 443 -1 q 250 -1 313 -12 q 130 39 186 10 q 31 118 73 68 q 10 161 13 138 q 14 204 7 184 q 37 239 22 224 q 72 261 52 255 q 112 263 91 268 q 150 237 132 258 q 215 188 175 208 q 299 160 255 168 q 388 159 344 153 q 467 189 432 165 q 512 235 494 207 q 541 295 530 262 q 558 363 552 328 q 568 432 564 398 q 409 420 488 429 q 252 393 330 411 q 204 395 225 387 q 170 419 183 404 q 150 456 156 435 q 148 497 144 477 q 166 534 152 517 q 207 556 180 550 q 393 588 300 578 q 581 602 486 598 q 581 663 583 632 q 571 721 579 694 q 547 771 563 749 q 504 808 531 794 q 428 840 469 827 q 343 857 387 852 q 258 856 300 861 q 179 832 216 850 q 132 823 155 820 q 92 838 110 825 q 64 869 75 850 q 52 908 53 888 q 60 947 50 928 q 94 978 70 966 q 224 1020 155 1008 q 363 1024 294 1031 q 499 994 433 1018 q 621 931 566 970 z "},"ю":{"ha":1453,"x_min":84,"x_max":1419,"o":"m 1366 726 q 1409 546 1400 638 q 1399 369 1419 454 q 1326 211 1379 284 q 1184 87 1274 138 q 1032 27 1114 47 q 868 10 950 6 q 711 45 787 14 q 578 140 636 76 q 508 259 530 195 q 484 395 486 324 q 369 400 426 400 q 254 407 312 400 q 253 242 252 324 q 258 76 254 159 q 247 31 258 49 q 217 3 235 12 q 176 -6 198 -6 q 135 3 155 -6 q 103 31 116 12 q 89 76 90 49 q 84 299 84 188 q 91 522 84 411 q 111 743 97 633 q 148 964 125 853 q 169 1005 153 990 q 205 1023 185 1019 q 246 1021 225 1027 q 283 1001 267 1015 q 308 966 300 987 q 311 919 316 945 q 281 747 293 832 q 263 575 270 662 q 323 567 293 570 q 383 564 353 565 q 443 562 413 563 q 504 559 473 562 q 542 668 518 615 q 595 770 565 722 q 659 859 625 818 q 732 932 694 901 q 857 1009 793 984 q 984 1036 922 1034 q 1105 1016 1046 1037 q 1213 956 1163 996 q 1302 859 1263 916 q 1365 730 1341 802 q 1366 726 1365 728 m 1116 244 q 1201 330 1171 281 q 1242 434 1232 379 q 1244 549 1253 490 q 1211 666 1235 608 q 1210 667 1210 667 q 1209 669 1210 668 q 1205 677 1207 673 q 1202 686 1203 681 q 1148 788 1181 749 q 1074 846 1114 827 q 988 862 1033 864 q 899 840 943 860 q 815 783 855 820 q 745 694 775 746 q 708 623 726 664 q 676 536 690 582 q 657 443 663 490 q 658 353 651 396 q 686 274 665 310 q 750 214 708 238 q 840 182 792 191 q 937 178 888 174 q 1031 200 985 183 q 1116 244 1078 217 z "},"я":{"ha":907,"x_min":16,"x_max":835,"o":"m 827 92 q 828 45 835 66 q 806 11 821 24 q 769 -9 790 -3 q 727 -11 748 -15 q 689 7 706 -7 q 663 47 671 21 q 641 143 649 94 q 630 240 633 191 q 628 339 627 290 q 629 439 628 389 q 507 332 566 388 q 389 220 448 276 q 269 111 330 165 q 141 12 208 58 q 97 -3 119 -4 q 59 8 76 -3 q 31 39 42 20 q 18 79 20 58 q 25 121 16 100 q 56 157 33 142 q 150 228 104 191 q 238 306 195 266 q 324 386 281 345 q 410 467 367 427 q 302 482 355 471 q 205 516 250 494 q 126 572 160 538 q 74 653 92 606 q 66 708 64 680 q 80 763 69 736 q 109 816 91 790 q 149 864 127 842 q 192 905 170 886 q 235 935 214 923 q 452 1027 339 1000 q 686 1034 564 1054 q 731 1011 717 1029 q 747 970 746 993 q 784 828 774 900 q 795 682 794 755 q 794 533 797 608 q 791 384 791 458 q 798 236 791 309 q 827 92 805 163 m 320 789 q 273 749 292 768 q 250 713 254 730 q 261 682 246 696 q 315 659 275 668 q 473 636 391 640 q 631 648 554 632 q 623 764 630 707 q 601 876 616 821 q 527 872 564 877 q 452 856 489 867 q 382 828 416 844 q 320 789 349 811 z "},"Я":{"ha":892,"x_min":26,"x_max":847,"o":"m 836 121 q 844 74 847 97 q 829 34 842 52 q 799 5 817 16 q 760 -7 780 -5 q 721 2 739 -8 q 690 36 702 12 q 649 135 666 85 q 622 238 633 186 q 606 343 611 290 q 598 450 600 396 q 473 371 534 417 q 357 269 412 324 q 258 155 303 214 q 184 36 214 95 q 153 2 172 12 q 113 -6 134 -7 q 74 6 93 -5 q 43 35 55 17 q 28 75 31 52 q 38 121 26 97 q 149 291 82 208 q 298 446 216 374 q 193 476 242 455 q 108 532 143 497 q 55 616 73 566 q 45 732 37 665 q 89 876 54 818 q 177 968 124 933 q 297 1020 230 1004 q 435 1039 363 1036 q 580 1034 507 1042 q 719 1015 653 1027 q 762 992 748 1010 q 779 954 777 975 l 779 951 q 780 950 779 951 q 780 948 780 949 q 781 941 781 945 q 781 934 781 937 q 774 800 779 869 q 766 662 770 732 q 761 521 762 591 q 767 382 760 450 q 790 248 774 313 q 836 121 806 182 m 216 751 q 222 677 208 707 q 264 630 236 648 q 331 605 292 612 q 413 599 370 598 q 497 606 455 600 q 572 623 538 613 q 586 629 579 627 q 599 635 592 631 q 604 749 601 692 q 610 863 607 806 q 534 873 575 869 q 452 879 494 878 q 372 873 411 879 q 300 854 332 868 q 245 815 268 840 q 216 751 223 790 z "},"№":{"ha":1463,"x_min":94,"x_max":1401,"o":"m 1316 494 q 1362 484 1343 495 q 1389 454 1380 472 q 1398 413 1398 435 q 1389 372 1398 391 q 1361 340 1379 353 q 1316 326 1343 327 q 1185 325 1251 322 q 1053 330 1119 327 q 1007 345 1025 332 q 980 378 989 359 q 971 419 971 397 q 980 459 971 441 q 1007 489 989 477 q 1053 498 1025 500 q 1185 493 1119 495 q 1316 494 1251 490 m 1204 576 q 1117 587 1161 573 q 1039 630 1074 602 q 985 697 1005 658 q 968 785 964 736 q 989 872 972 829 q 1037 950 1007 916 q 1106 1005 1066 984 q 1194 1027 1146 1027 q 1269 1015 1234 1028 q 1329 979 1303 1002 q 1373 924 1356 956 q 1398 852 1391 891 l 1398 851 q 1400 841 1399 846 q 1400 829 1400 836 q 1390 740 1401 783 q 1354 661 1378 696 q 1292 603 1329 626 q 1204 576 1255 581 m 1137 789 q 1140 767 1135 777 q 1154 751 1145 758 q 1175 743 1163 745 q 1197 745 1186 741 q 1217 756 1210 748 q 1228 776 1224 765 q 1232 800 1232 787 q 1232 824 1232 812 q 1227 843 1230 833 q 1219 854 1225 852 q 1213 858 1215 857 q 1210 860 1211 859 q 1207 860 1208 860 q 1202 859 1206 859 q 1180 853 1190 859 q 1161 837 1169 847 q 1146 815 1152 827 q 1137 789 1140 802 m 721 949 q 736 995 722 977 q 769 1022 749 1013 q 810 1031 788 1031 q 850 1022 831 1031 q 879 995 868 1013 q 889 949 890 977 q 882 738 883 844 q 879 526 880 631 q 873 314 877 420 q 857 102 869 208 q 843 60 854 80 q 813 29 831 41 q 774 16 795 18 q 730 29 752 15 q 643 104 682 62 q 571 195 604 147 q 509 294 538 243 q 450 393 479 345 q 366 522 409 459 q 281 650 323 585 q 276 368 277 509 q 265 87 274 228 l 265 86 q 264 81 265 82 q 249 36 262 54 q 216 8 235 18 q 175 -1 197 -1 q 135 8 153 -1 q 106 36 117 18 q 96 81 94 54 q 105 296 103 188 q 110 513 108 404 q 116 729 112 621 q 130 944 120 837 q 152 993 133 971 q 197 1024 172 1015 q 247 1026 222 1034 q 287 986 273 1018 q 350 862 315 922 q 422 745 385 802 q 498 630 460 687 q 573 513 536 573 q 604 460 589 488 q 635 404 619 433 q 668 347 651 376 q 703 292 685 319 q 709 456 707 374 q 712 621 711 538 q 714 785 713 703 q 721 949 716 867 z "},"ё":{"ha":896,"x_min":87,"x_max":840,"o":"m 758 177 q 803 166 785 178 q 830 136 821 154 q 840 95 840 117 q 830 54 840 73 q 803 22 821 35 q 758 8 785 9 q 645 4 701 6 q 533 -1 589 2 q 423 -10 478 -5 q 311 -24 368 -16 q 199 -17 248 -33 q 113 50 151 -1 q 93 102 98 71 q 87 169 87 133 q 93 244 88 205 q 103 319 98 283 q 114 388 109 356 q 121 444 119 420 q 133 692 126 568 q 141 940 139 815 q 138 966 138 953 q 142 992 138 980 q 154 1016 146 1005 q 174 1034 162 1027 q 213 1050 191 1047 q 254 1047 234 1053 q 476 1044 366 1046 q 699 1041 587 1042 q 744 1028 726 1041 q 771 997 762 1016 q 781 956 781 978 q 771 915 781 934 q 744 884 762 897 q 699 872 726 872 q 504 874 601 872 q 310 878 408 876 q 308 731 309 804 q 303 584 307 658 q 381 586 342 583 q 456 591 421 589 q 566 597 511 594 q 676 612 622 601 q 724 609 703 617 q 759 584 745 600 q 779 546 773 567 q 781 505 785 525 q 763 470 777 486 q 722 449 748 454 q 589 431 656 436 q 456 422 522 425 q 376 417 417 420 q 294 416 335 414 q 286 316 290 365 q 274 217 281 267 q 277 174 271 189 q 296 154 283 159 q 327 149 309 148 q 365 155 345 151 q 403 164 384 159 q 437 172 422 170 q 516 178 476 177 q 597 178 557 179 q 678 177 637 178 q 758 177 718 176 m 313 1146 q 267 1159 286 1146 q 240 1190 249 1171 q 231 1231 231 1208 q 240 1271 231 1253 q 267 1302 249 1290 q 313 1315 286 1315 q 358 1302 340 1315 q 385 1271 376 1290 q 394 1231 394 1253 q 385 1190 394 1208 q 358 1159 376 1171 q 313 1146 340 1146 m 606 1146 q 561 1159 579 1146 q 533 1190 543 1171 q 524 1231 524 1208 q 533 1271 524 1253 q 561 1302 543 1290 q 606 1315 579 1315 q 651 1302 633 1315 q 679 1271 669 1290 q 688 1231 688 1253 q 679 1190 688 1208 q 651 1159 669 1171 q 606 1146 633 1146 z "}," ":{"ha":644,"x_min":0,"x_max":0,"o":""},"!":{"ha":393,"x_min":104,"x_max":294,"o":"m 185 160 q 230 148 212 160 q 257 116 248 135 q 267 76 267 98 q 257 35 267 54 q 230 4 248 16 q 185 -9 212 -9 q 140 4 158 -9 q 113 35 122 16 q 104 76 104 54 q 113 116 104 98 q 140 148 122 135 q 185 160 158 160 m 126 957 q 139 1002 126 984 q 171 1029 152 1020 q 211 1038 189 1038 q 252 1029 233 1038 q 282 1002 270 1021 q 294 957 294 984 q 291 808 294 882 q 283 660 288 734 q 276 511 279 585 q 272 363 273 437 q 259 318 272 336 q 228 291 247 300 q 187 281 209 281 q 147 291 165 281 q 116 318 128 300 q 104 363 104 336 q 108 511 104 437 q 115 660 111 585 q 122 808 119 734 q 126 957 125 882 z "},"Ё":{"ha":876,"x_min":73,"x_max":832,"o":"m 313 1146 q 267 1159 286 1146 q 240 1190 249 1171 q 231 1231 231 1208 q 240 1271 231 1253 q 267 1302 249 1290 q 313 1315 286 1315 q 358 1302 340 1315 q 385 1271 376 1290 q 394 1231 394 1253 q 385 1190 394 1208 q 358 1159 376 1171 q 313 1146 340 1146 m 606 1146 q 561 1159 579 1146 q 533 1190 543 1171 q 524 1231 524 1208 q 533 1271 524 1253 q 561 1302 543 1290 q 606 1315 579 1315 q 651 1302 633 1315 q 679 1271 669 1290 q 688 1231 688 1253 q 679 1190 688 1208 q 651 1159 669 1171 q 606 1146 633 1146 m 751 167 q 796 153 778 166 q 823 121 814 140 q 832 80 832 102 q 823 39 832 58 q 796 9 814 21 q 751 -2 778 -3 q 585 2 668 0 q 418 -1 502 5 q 346 -5 383 -4 q 273 1 309 -5 q 206 23 237 7 q 151 72 174 40 q 99 173 116 119 q 78 286 83 227 q 79 407 73 345 q 94 532 84 469 q 98 553 94 542 q 116 650 106 602 q 134 745 125 699 q 148 836 142 791 q 155 920 154 880 q 156 924 156 922 q 157 928 157 926 q 171 974 157 954 q 218 1001 185 995 q 483 1033 351 1025 q 751 1037 616 1040 q 796 1023 778 1036 q 823 991 814 1010 q 832 950 832 972 q 823 910 832 928 q 796 880 814 892 q 751 868 778 867 q 534 867 642 871 q 318 847 426 863 q 301 749 311 799 q 279 646 291 699 q 500 676 389 669 q 725 683 612 682 q 770 671 752 683 q 797 640 788 659 q 806 599 806 621 q 797 558 806 577 q 770 527 788 539 q 725 514 752 514 q 604 512 664 514 q 484 505 543 511 q 365 490 424 500 q 247 463 305 480 q 242 327 239 393 q 269 203 245 260 q 310 173 277 183 q 389 159 342 163 q 490 156 435 155 q 595 159 544 157 q 687 165 646 162 q 751 167 729 168 z "},"A":{"ha":1055,"x_min":16,"x_max":1036,"o":"m 1021 126 q 1036 82 1036 104 q 1024 44 1036 61 q 994 16 1013 27 q 954 3 975 5 q 911 10 932 1 q 874 41 890 18 q 821 126 845 82 q 775 217 797 170 q 530 219 652 222 q 283 214 408 216 q 235 124 260 168 q 178 38 209 81 q 141 7 163 16 q 98 1 120 -1 q 58 14 77 3 q 27 42 39 25 q 16 80 16 59 q 32 123 16 101 q 148 323 100 219 q 237 535 197 427 q 315 753 277 644 q 397 970 352 863 q 422 1007 406 991 q 458 1028 438 1022 q 498 1029 477 1034 q 538 1007 519 1025 q 649 878 602 947 q 733 734 696 809 q 803 581 771 659 q 866 425 834 503 q 936 271 899 347 q 1021 126 972 195 m 361 385 q 532 389 447 387 q 703 389 616 390 q 661 493 682 441 q 617 595 640 545 q 566 694 593 646 q 507 787 539 742 q 435 585 469 686 q 361 385 401 484 z "},"B":{"ha":845,"x_min":53,"x_max":823,"o":"m 534 559 q 650 526 595 547 q 745 469 705 505 q 803 380 784 433 q 814 254 823 328 q 774 129 806 177 q 694 53 742 81 q 587 15 646 26 q 463 2 527 4 q 336 3 399 0 q 216 6 272 6 q 180 14 195 7 q 154 34 164 22 q 134 68 141 47 q 110 173 119 121 q 95 279 100 226 q 88 386 90 332 q 85 492 86 439 q 85 528 81 510 q 79 718 83 624 q 56 906 75 812 q 55 929 54 920 q 56 956 53 943 q 66 980 58 969 q 85 999 73 991 q 116 1010 98 1007 q 198 1022 153 1017 q 292 1030 243 1028 q 390 1031 340 1033 q 487 1021 440 1029 q 576 996 534 1012 q 652 953 618 979 q 707 888 685 926 q 735 799 728 850 q 726 723 741 758 q 684 659 712 688 q 617 605 656 629 q 534 559 578 581 m 441 854 q 338 862 390 861 q 235 857 286 862 q 243 744 241 800 q 248 631 246 688 q 370 677 309 654 q 488 734 431 701 q 508 746 496 739 q 533 761 521 753 q 555 779 545 770 q 566 800 564 789 q 559 815 567 808 q 540 828 552 822 q 513 838 528 833 q 484 846 498 843 q 458 852 469 850 q 441 854 446 854 m 283 172 q 359 166 318 170 q 442 163 401 163 q 521 169 483 163 q 588 188 559 174 q 634 227 617 202 q 649 291 650 252 q 628 341 648 320 q 577 376 608 362 q 504 398 545 390 q 420 411 463 406 q 333 416 376 415 q 252 418 289 418 q 262 294 256 355 q 283 172 269 233 z "},"C":{"ha":1054,"x_min":41,"x_max":1031,"o":"m 902 313 q 948 323 926 326 q 988 310 970 321 q 1016 279 1005 298 q 1029 239 1027 260 q 1021 199 1031 218 q 987 166 1011 179 q 881 109 938 139 q 765 52 825 78 q 643 7 705 26 q 519 -15 581 -12 q 398 -2 458 -18 q 283 56 338 14 q 209 123 245 85 q 142 205 172 161 q 88 297 111 249 q 53 397 65 346 q 41 500 41 448 q 58 604 42 552 q 135 758 85 688 q 251 883 185 829 q 395 974 317 938 q 560 1026 474 1010 q 697 1032 631 1038 q 818 997 764 1025 q 907 918 872 969 q 950 790 943 867 q 942 745 953 763 q 913 718 931 726 q 872 709 895 709 q 831 718 850 709 q 797 745 811 727 q 781 790 783 763 q 763 836 778 819 q 724 861 747 853 q 672 869 701 869 q 611 863 642 869 q 548 848 579 858 q 489 829 516 839 q 440 808 462 819 q 408 790 419 798 q 326 723 366 761 q 258 640 286 685 q 219 543 230 594 q 222 436 208 492 q 245 370 231 404 q 278 304 259 336 q 321 244 297 272 q 375 195 346 216 q 438 164 404 175 q 512 157 473 154 q 616 176 566 161 q 714 214 667 192 q 809 261 762 235 q 902 313 855 287 z "},"D":{"ha":954,"x_min":73,"x_max":919,"o":"m 915 449 q 903 298 919 363 q 856 183 887 232 q 778 100 824 134 q 677 44 732 66 q 558 10 621 22 q 428 -6 495 -1 q 293 -8 361 -10 q 159 -3 224 -7 q 130 5 144 -2 q 90 31 106 12 q 74 82 73 50 q 82 512 77 298 q 89 942 87 726 q 95 975 89 960 q 111 999 101 989 q 113 1001 112 1000 q 115 1003 114 1002 l 115 1004 q 140 1020 125 1014 q 174 1027 155 1027 q 272 1026 220 1027 q 375 1022 323 1026 q 478 1010 427 1019 q 578 986 530 1002 q 669 944 626 970 q 747 880 712 918 q 818 786 788 836 q 869 680 848 735 q 900 567 889 625 q 915 449 911 509 m 572 174 q 671 225 633 192 q 727 301 709 258 q 747 398 745 345 q 738 507 748 450 q 719 592 730 548 q 689 675 707 635 q 642 748 670 715 q 572 801 613 781 q 496 829 534 819 q 418 846 457 840 q 338 854 378 852 q 258 857 298 857 q 253 509 256 682 q 245 161 249 336 q 328 155 286 157 q 411 154 370 153 q 494 159 453 154 q 572 174 534 163 z "},"E":{"ha":880,"x_min":73,"x_max":836,"o":"m 754 168 q 800 154 781 167 q 827 121 818 140 q 836 80 836 102 q 827 40 836 58 q 800 9 818 21 q 754 -3 781 -3 q 587 2 671 0 q 420 -1 504 4 q 347 -5 385 -4 q 274 0 309 -6 q 207 23 238 7 q 151 72 175 40 q 100 173 117 119 q 78 287 83 228 q 79 409 73 347 q 94 535 84 472 q 96 546 95 541 q 98 556 96 551 q 116 653 106 605 q 134 749 125 702 q 149 840 142 795 q 156 924 155 884 q 157 933 156 928 q 171 979 157 958 q 218 1006 186 1000 q 485 1038 352 1029 q 754 1042 618 1046 q 800 1028 781 1041 q 827 996 818 1015 q 836 955 836 977 q 827 915 836 933 q 800 884 818 896 q 754 872 781 871 q 536 871 645 876 q 319 851 428 867 q 302 752 313 803 q 281 648 292 701 q 503 679 391 673 q 728 686 614 686 q 774 674 755 686 q 801 643 792 661 q 810 602 810 624 q 801 561 810 580 q 774 529 792 542 q 728 517 755 517 q 606 515 667 517 q 485 507 545 513 q 366 492 425 502 q 248 465 307 482 q 242 328 239 394 q 270 203 245 262 q 296 179 276 189 q 347 164 317 170 q 414 158 377 159 q 491 156 452 156 q 571 159 531 157 q 646 163 611 161 q 710 166 682 165 q 754 168 738 168 z "},"F":{"ha":901,"x_min":85,"x_max":890,"o":"m 808 1027 q 854 1014 836 1027 q 881 983 872 1002 q 890 942 890 964 q 881 901 890 920 q 854 870 872 882 q 808 858 836 857 q 648 865 728 859 q 488 869 568 871 q 387 865 437 867 q 286 861 337 863 q 281 729 283 795 q 279 595 280 663 q 500 596 389 597 q 722 586 610 596 q 767 570 749 584 q 794 536 785 555 q 803 494 803 516 q 794 454 803 472 q 767 425 785 436 q 722 416 749 414 q 498 427 609 426 q 275 426 387 427 q 269 248 273 336 q 257 71 264 159 q 240 25 254 43 q 207 -2 227 7 q 165 -11 187 -11 q 125 -2 143 -11 q 96 25 106 7 q 87 71 85 43 q 101 289 97 180 q 107 508 105 399 q 112 728 109 618 q 121 947 115 838 q 127 975 122 962 q 153 1016 133 999 q 205 1031 172 1033 q 276 1031 241 1030 q 347 1033 311 1031 q 417 1037 382 1035 q 488 1038 452 1038 q 648 1034 568 1039 q 808 1027 728 1029 z "},"G":{"ha":1019,"x_min":41,"x_max":989,"o":"m 950 557 q 978 529 968 547 q 987 486 989 511 q 953 307 983 388 q 869 165 923 227 q 740 63 816 104 q 568 3 664 22 q 455 2 511 -7 q 349 37 400 12 q 252 99 298 62 q 170 182 207 137 q 106 278 134 228 q 66 380 79 329 q 42 547 43 463 q 65 708 41 631 q 139 851 89 785 q 267 964 189 917 q 368 1008 315 992 q 476 1029 421 1025 q 587 1025 532 1034 q 694 998 643 1017 q 791 946 745 978 q 873 871 837 915 q 892 828 890 850 q 888 785 895 805 q 865 749 880 764 q 830 727 850 733 q 791 725 811 720 q 753 751 770 730 q 666 825 713 799 q 568 858 618 850 q 468 856 518 865 q 374 822 418 846 q 294 761 330 798 q 235 679 258 725 q 207 578 213 633 q 218 465 201 524 q 245 390 228 429 q 288 313 263 350 q 343 244 312 276 q 411 193 374 213 q 490 168 448 173 q 579 178 532 162 q 730 263 674 208 q 806 405 786 319 q 751 409 779 407 q 696 412 724 411 q 598 415 646 414 q 500 422 550 416 q 459 441 473 426 q 440 475 444 456 q 443 515 437 494 q 463 553 448 536 q 498 580 477 570 q 546 586 519 589 q 631 582 589 581 q 716 581 673 584 q 809 574 763 578 q 903 570 856 570 q 929 567 917 570 q 950 557 941 563 z "},"H":{"ha":1031,"x_min":85,"x_max":943,"o":"m 907 964 q 916 742 909 852 q 930 520 924 631 q 940 298 937 409 q 937 76 943 187 q 922 31 935 49 q 889 3 908 12 q 847 -6 869 -6 q 807 3 825 -6 q 777 31 789 12 q 767 76 766 49 q 771 253 772 165 q 765 429 770 340 l 765 429 q 645 421 705 421 q 525 424 585 421 q 405 429 465 426 q 285 431 345 432 q 289 267 288 349 q 286 101 290 184 q 271 56 284 74 q 237 29 257 38 q 196 20 218 20 q 155 28 174 20 q 125 56 137 37 q 115 101 114 74 q 119 323 121 212 q 109 545 116 434 q 95 767 102 656 q 86 989 88 878 q 98 1035 85 1017 q 129 1062 110 1053 q 169 1071 147 1071 q 210 1062 191 1071 q 242 1034 229 1053 q 256 989 255 1016 q 263 794 258 891 q 275 601 269 698 q 395 599 335 602 q 515 594 455 596 q 635 591 575 591 q 755 597 695 591 q 745 781 750 690 q 737 964 739 871 q 749 1009 736 991 q 780 1037 761 1027 q 820 1046 798 1046 q 861 1037 842 1046 q 893 1009 880 1027 q 907 964 906 991 z "},"I":{"ha":778,"x_min":40,"x_max":736,"o":"m 654 167 q 699 155 681 168 q 727 124 718 143 q 736 84 736 106 q 727 43 736 62 q 700 11 718 24 q 654 -3 681 -2 q 521 -4 587 -4 q 388 -5 454 -5 q 254 -8 321 -6 q 121 -16 188 -10 q 76 -7 94 -18 q 49 22 58 3 q 40 62 40 40 q 49 104 40 84 q 76 137 58 123 q 121 154 94 151 q 211 159 166 157 q 301 163 256 161 q 302 513 306 337 q 298 863 299 688 q 232 858 265 861 q 167 850 199 855 q 119 855 140 846 q 83 882 98 865 q 63 920 69 899 q 61 960 58 941 q 80 994 65 979 q 121 1013 94 1009 q 387 1034 254 1033 q 654 1031 520 1035 q 700 1017 682 1030 q 727 985 718 1004 q 736 944 736 966 q 727 903 736 922 q 700 872 718 884 q 654 861 682 861 q 561 864 608 863 q 467 866 514 865 q 472 515 469 691 q 471 165 475 340 q 562 165 517 165 q 654 167 608 165 z "},"J":{"ha":868,"x_min":25,"x_max":794,"o":"m 786 953 q 789 840 787 901 q 793 713 792 779 q 792 581 794 648 q 781 447 790 513 q 755 320 772 382 q 707 206 737 259 q 634 111 677 153 q 529 41 590 68 q 404 14 468 14 q 279 34 339 13 q 169 94 220 54 q 84 185 118 133 q 38 301 50 238 q 42 433 25 365 q 65 474 49 460 q 102 492 81 488 q 144 490 123 496 q 181 470 165 484 q 204 435 197 456 q 205 388 212 414 q 204 341 200 366 q 221 292 209 317 q 250 246 233 268 q 289 208 268 224 q 334 182 311 191 q 382 174 358 172 q 459 198 424 176 q 523 255 495 221 q 569 328 550 288 q 597 405 588 368 q 620 541 614 473 q 625 678 625 609 q 621 815 624 747 q 616 953 617 884 q 628 998 616 980 q 660 1026 641 1017 q 700 1035 678 1035 q 741 1026 722 1035 q 773 998 760 1017 q 786 953 785 980 z "},"K":{"ha":836,"x_min":85,"x_max":817,"o":"m 790 137 q 813 95 809 117 q 809 53 817 73 q 787 18 802 33 q 752 -4 772 3 q 711 -7 732 -11 q 670 17 689 -3 q 580 99 627 60 q 484 174 533 138 q 383 245 434 210 q 283 317 332 280 q 270 180 277 248 q 252 46 262 113 q 233 4 248 19 q 199 -14 218 -10 q 158 -12 180 -18 q 120 8 137 -6 q 94 43 104 22 q 89 91 85 64 q 115 310 105 199 q 130 533 124 421 q 138 757 136 646 q 142 977 140 869 q 155 1023 142 1004 q 186 1050 168 1041 q 228 1059 205 1059 q 268 1050 250 1059 q 299 1023 287 1042 q 311 977 311 1004 q 309 818 310 898 q 304 657 307 739 q 402 732 352 696 q 498 809 452 769 q 583 893 545 848 q 647 994 622 939 q 676 1029 658 1019 q 714 1038 694 1039 q 753 1025 734 1036 q 785 997 772 1015 q 801 956 798 979 q 793 908 804 932 q 739 818 771 859 q 670 742 707 777 q 590 676 632 707 q 507 614 549 645 q 425 550 465 583 q 348 479 384 517 q 460 395 402 435 q 575 315 517 355 q 687 231 632 274 q 790 137 741 187 z "},"L":{"ha":899,"x_min":83,"x_max":889,"o":"m 807 178 q 852 166 834 178 q 880 135 871 153 q 889 94 889 116 q 880 53 889 72 q 852 21 871 34 q 807 7 834 8 q 646 0 726 6 q 486 -3 566 -5 q 345 3 415 -1 q 204 3 275 7 q 151 19 171 2 q 125 60 132 36 q 119 88 120 74 q 111 307 113 197 q 106 527 108 417 q 100 746 104 636 q 86 965 96 856 q 94 1010 83 992 q 123 1037 105 1028 q 164 1046 142 1046 q 205 1037 186 1046 q 239 1010 225 1028 q 256 965 253 992 q 269 767 264 866 q 275 570 273 669 q 279 372 277 471 q 285 174 281 273 q 386 169 336 172 q 486 166 435 166 q 647 171 567 166 q 807 178 726 176 z "},"M":{"ha":1204,"x_min":85,"x_max":1132,"o":"m 1126 100 q 1124 53 1132 74 q 1100 18 1116 32 q 1062 -2 1084 4 q 1021 -4 1041 -7 q 984 15 1000 0 q 962 56 968 29 q 931 226 942 140 q 916 400 920 313 q 912 574 911 487 q 915 748 912 662 q 916 771 916 760 q 916 793 916 782 q 902 771 908 783 q 888 749 895 760 q 844 664 863 707 q 801 578 824 621 q 767 525 786 551 q 725 476 748 498 q 675 436 702 453 q 620 413 648 420 q 559 411 591 406 q 496 438 528 416 q 425 501 454 465 q 372 577 395 537 q 329 658 349 616 q 288 740 309 700 q 272 577 279 659 q 260 414 264 496 q 257 251 256 333 q 266 87 258 170 q 258 42 269 60 q 229 16 247 24 q 189 7 211 7 q 147 16 167 7 q 113 43 127 25 q 96 87 99 60 q 87 303 85 195 q 97 518 89 410 q 117 732 106 625 q 137 947 129 840 q 151 988 138 968 q 181 1021 163 1008 q 221 1035 199 1034 q 264 1021 243 1036 q 320 971 295 997 q 366 918 345 946 q 404 857 387 889 q 438 790 422 825 q 463 739 448 768 q 494 683 477 710 q 531 633 511 655 q 571 604 551 611 q 613 610 592 597 q 654 663 634 623 q 698 758 675 707 q 749 856 721 808 q 813 943 777 904 q 897 1004 849 983 q 958 1019 930 1019 q 1006 1007 985 1019 q 1043 974 1027 995 q 1068 927 1058 953 q 1082 873 1078 901 q 1086 818 1086 844 q 1083 638 1085 728 q 1084 457 1082 548 q 1096 277 1086 367 q 1126 100 1105 188 z "},"N":{"ha":1076,"x_min":74,"x_max":982,"o":"m 978 944 q 979 732 978 838 q 981 519 981 626 q 980 307 982 413 q 972 95 978 201 q 951 44 970 65 q 907 15 932 22 q 856 15 882 7 q 814 52 830 23 q 698 242 760 150 q 565 422 635 335 q 418 590 495 509 q 260 747 342 671 q 279 412 271 579 q 288 77 287 245 q 275 31 288 50 q 243 4 262 13 q 203 -5 224 -5 q 162 4 181 -5 q 131 31 143 13 q 118 77 118 50 q 105 512 117 296 q 76 947 92 728 q 89 996 74 977 q 127 1023 104 1015 q 176 1026 150 1030 q 221 1006 201 1022 q 537 713 388 869 q 811 378 686 556 q 810 661 812 520 q 808 944 808 802 q 821 990 808 971 q 852 1017 833 1008 q 893 1026 871 1026 q 934 1018 915 1027 q 965 990 953 1008 q 978 944 978 971 z "},"O":{"ha":1065,"x_min":52,"x_max":1031,"o":"m 922 849 q 986 745 961 805 q 1021 617 1011 685 q 1028 479 1031 550 q 1007 341 1024 408 q 959 218 989 275 q 885 121 928 161 q 772 47 835 74 q 643 11 710 20 q 505 10 575 2 q 370 42 435 18 q 245 102 304 65 q 142 189 187 139 q 77 300 98 238 q 54 430 56 362 q 68 567 52 497 q 112 700 83 636 q 180 819 141 764 q 265 912 220 873 q 367 976 310 950 q 487 1014 425 1002 q 613 1022 549 1025 q 734 1000 676 1019 q 841 943 792 980 q 922 849 890 905 m 794 278 q 824 346 810 308 q 846 425 838 383 q 858 509 854 466 q 856 593 861 553 q 837 670 850 634 q 798 734 823 706 q 790 742 793 738 q 783 752 786 747 q 779 757 781 755 q 724 819 758 796 q 650 850 690 842 q 565 856 609 859 q 479 838 521 852 q 402 801 437 824 q 342 748 366 778 q 299 685 321 722 q 260 606 277 648 q 232 519 243 564 q 221 432 220 475 q 235 352 221 390 q 283 286 250 315 q 356 237 313 260 q 448 198 399 214 q 548 175 496 182 q 646 177 599 169 q 731 209 692 184 q 794 278 770 233 z "},"P":{"ha":801,"x_min":96,"x_max":774,"o":"m 771 695 q 745 590 769 641 q 683 492 722 538 q 594 406 644 446 q 488 337 543 367 q 376 287 433 307 q 268 262 319 267 q 267 173 267 217 q 266 83 267 128 q 253 38 266 56 q 221 11 240 20 q 180 1 202 1 q 139 11 158 1 q 108 38 121 20 q 96 83 96 56 l 104 926 q 117 970 105 952 q 147 998 129 988 q 167 1008 157 1004 q 282 1028 217 1026 q 416 1018 348 1031 q 549 978 484 1005 q 664 909 614 950 q 744 815 715 869 q 771 695 774 761 m 595 679 q 594 736 605 711 q 558 782 583 762 q 498 817 533 802 q 424 840 463 831 q 346 852 385 848 q 274 854 307 855 q 272 643 273 748 q 269 433 271 538 q 334 451 300 439 q 401 482 368 464 q 466 523 435 500 q 524 571 498 545 q 569 624 550 596 q 595 679 587 651 z "},"Q":{"ha":1065,"x_min":29,"x_max":1010,"o":"m 996 125 q 1009 79 1010 101 q 996 40 1007 57 q 965 12 984 22 q 925 -1 946 1 q 884 6 904 -3 q 850 39 864 16 q 830 71 840 55 q 808 101 819 86 q 692 35 755 59 q 563 4 630 10 q 425 11 495 -2 q 283 56 354 23 q 137 160 193 97 q 55 299 81 222 q 30 462 29 375 q 54 639 31 549 q 64 663 57 652 q 177 847 110 767 q 329 975 243 928 q 515 1030 414 1021 q 732 1002 616 1039 q 849 934 799 979 q 934 828 900 888 q 986 697 968 768 q 1007 555 1004 627 q 997 415 1010 484 q 957 290 984 346 q 941 258 949 273 q 923 229 932 243 q 961 178 943 204 q 996 125 979 153 m 323 223 q 422 188 371 201 q 523 174 473 175 q 620 185 573 172 q 707 228 667 198 q 646 301 676 264 q 591 378 616 338 q 577 423 576 401 q 589 462 578 445 q 620 490 601 479 q 660 503 639 501 q 702 496 681 505 q 737 464 722 487 q 770 417 753 440 q 806 371 788 393 q 829 473 823 418 q 832 583 836 528 q 810 688 827 637 q 763 777 793 738 q 686 839 732 816 q 577 862 640 862 q 449 843 505 862 q 352 788 394 823 q 277 703 309 753 q 217 591 244 652 q 203 524 209 559 q 197 453 197 488 q 202 384 197 418 q 223 320 208 350 q 262 265 237 290 q 323 223 287 240 z "},"R":{"ha":917,"x_min":64,"x_max":890,"o":"m 878 117 q 887 70 890 92 q 873 30 885 47 q 842 1 861 12 q 802 -12 823 -10 q 763 -3 782 -13 q 731 31 743 7 q 656 151 701 90 q 556 266 611 211 q 440 368 502 321 q 315 447 378 414 q 291 234 311 339 q 222 31 271 130 q 192 -3 210 7 q 153 -12 173 -13 q 113 1 132 -10 q 82 29 94 12 q 67 70 70 47 q 76 117 64 92 q 122 244 106 178 q 144 379 138 310 q 151 518 151 448 q 146 660 150 589 q 137 799 142 730 q 131 933 132 868 q 131 941 131 937 q 132 948 132 945 l 132 952 l 132 954 q 149 992 135 975 q 193 1015 163 1010 q 292 1030 239 1023 q 400 1038 345 1036 q 511 1036 455 1040 q 618 1020 567 1032 q 715 985 670 1008 q 794 928 760 963 q 848 845 828 894 q 871 730 869 796 q 854 616 873 665 q 800 531 835 566 q 718 474 766 496 q 617 441 671 452 q 766 287 699 370 q 878 117 833 203 m 699 750 q 664 813 688 789 q 609 853 641 838 q 538 873 576 867 q 459 878 500 878 q 379 873 419 878 q 303 863 338 868 q 308 748 305 806 q 313 633 311 691 q 334 624 326 628 q 411 607 368 614 q 499 599 454 600 q 585 605 544 598 q 656 628 627 611 q 698 675 685 646 q 699 750 711 705 z "},"S":{"ha":826,"x_min":41,"x_max":795,"o":"m 470 591 q 538 566 502 581 q 611 531 574 551 q 680 487 647 511 q 739 432 713 462 q 780 368 764 402 q 795 293 795 333 q 768 170 795 223 q 697 80 742 117 q 595 21 653 43 q 474 -5 537 0 q 347 -1 411 -11 q 226 34 283 9 q 123 100 169 60 q 53 196 78 140 q 45 243 41 220 q 61 284 49 267 q 93 313 74 302 q 132 326 112 324 q 170 317 152 327 q 200 282 189 307 q 242 222 216 247 q 301 182 269 197 q 371 162 334 167 q 446 161 408 157 q 509 176 478 165 q 562 204 539 187 q 599 242 585 221 q 612 285 612 262 q 594 332 611 308 q 538 377 576 355 q 464 408 506 395 q 377 432 422 420 q 286 456 332 444 q 200 487 241 469 q 128 532 160 505 q 79 597 96 558 q 53 721 50 661 q 81 833 56 781 q 150 927 106 885 q 248 996 194 968 q 361 1034 302 1023 q 477 1034 420 1044 q 583 991 534 1024 q 666 899 632 958 q 678 852 680 875 q 664 813 676 830 q 633 784 652 795 q 593 771 614 773 q 553 779 572 770 q 519 812 533 789 q 483 850 506 837 q 432 867 460 863 q 375 865 405 870 q 319 848 346 860 q 271 817 292 836 q 238 776 249 798 q 223 712 220 739 q 244 668 227 686 q 291 638 262 650 q 351 618 319 627 q 415 604 383 610 q 470 591 446 598 z "},"T":{"ha":1032,"x_min":8,"x_max":1014,"o":"m 932 1014 q 978 998 960 1012 q 1005 964 996 983 q 1014 923 1014 945 q 1005 882 1014 901 q 978 853 996 864 q 932 844 960 842 q 771 859 853 851 q 604 872 689 867 q 585 675 587 774 q 586 476 583 576 q 590 277 588 377 q 585 79 593 178 q 569 34 583 52 q 535 6 555 16 q 494 -3 516 -3 q 454 6 472 -3 q 425 33 435 15 q 416 79 414 52 q 422 279 423 179 q 418 480 420 380 q 418 681 416 581 q 435 880 420 781 q 273 878 353 882 q 117 861 193 874 q 70 865 91 856 q 34 891 48 874 q 14 928 20 907 q 12 969 8 949 q 31 1004 16 989 q 73 1024 45 1019 q 284 1045 176 1042 q 502 1045 393 1049 q 720 1032 611 1041 q 932 1014 829 1023 z "},"U":{"ha":1009,"x_min":63,"x_max":913,"o":"m 892 762 q 894 652 891 707 q 897 542 897 597 q 900 309 898 425 q 903 77 902 194 q 890 32 903 50 q 859 4 878 13 q 818 -5 840 -5 q 777 4 796 -5 q 746 32 758 14 q 733 77 733 50 q 731 155 732 116 q 728 235 730 195 q 676 142 705 187 q 610 63 647 98 q 526 9 572 29 q 423 -8 480 -10 q 295 28 351 -5 q 199 116 239 61 q 131 244 158 172 q 89 396 104 316 q 68 560 73 476 q 66 721 63 644 q 80 866 70 799 q 106 981 90 933 q 132 1021 114 1007 q 170 1039 149 1035 q 212 1037 191 1042 q 249 1017 233 1031 q 271 983 264 1004 q 269 936 277 962 q 254 861 261 909 q 243 751 247 812 q 241 622 240 690 q 249 485 242 553 q 271 357 256 418 q 310 250 286 296 q 368 180 334 205 q 449 161 402 155 q 509 190 481 164 q 558 253 536 215 q 600 338 581 292 q 632 429 618 384 q 655 513 646 474 q 672 576 665 552 q 694 661 684 618 q 714 746 705 703 q 725 866 718 807 q 747 981 732 924 q 767 1018 752 1004 q 801 1038 782 1032 q 840 1040 820 1043 q 877 1027 860 1038 q 903 1000 893 1017 q 913 959 913 983 q 905 861 911 910 q 892 762 900 812 z "},"V":{"ha":1007,"x_min":18,"x_max":991,"o":"m 980 912 q 877 699 928 806 q 775 485 826 592 q 672 271 724 378 q 566 60 621 165 q 562 50 565 54 q 556 40 559 45 q 556 39 556 39 q 555 39 555 39 q 536 13 547 22 q 511 -1 524 3 q 484 -4 498 -5 q 457 3 470 -3 q 431 15 444 6 q 409 39 418 23 q 354 136 378 86 q 308 237 329 186 q 267 341 286 289 q 227 446 247 393 q 125 688 178 568 q 27 932 73 809 q 24 979 18 958 q 45 1013 30 999 q 81 1032 60 1026 q 123 1034 102 1038 q 163 1017 144 1030 q 191 977 181 1003 q 279 758 232 865 q 371 538 327 650 q 424 401 399 469 q 480 264 450 332 q 657 631 572 448 q 833 998 743 814 q 864 1032 846 1022 q 903 1041 883 1042 q 943 1028 924 1040 q 974 1000 962 1017 q 989 959 986 982 q 980 912 991 937 z "},"W":{"ha":1180,"x_min":102,"x_max":1076,"o":"m 1074 954 q 1074 628 1076 790 q 1067 303 1072 467 q 1066 249 1066 279 q 1064 186 1066 218 q 1056 123 1062 155 q 1037 67 1050 92 q 1003 24 1024 41 q 948 3 981 7 q 871 18 907 -1 q 804 73 836 37 q 746 156 773 109 q 694 256 719 204 q 646 360 669 308 q 602 456 623 412 q 450 222 532 335 q 269 13 368 110 q 223 -11 248 -7 q 177 -4 199 -14 q 141 26 156 5 q 123 73 125 46 q 117 217 117 145 q 120 360 117 288 q 125 504 122 432 q 128 648 128 576 q 124 791 128 720 q 106 934 119 863 q 111 982 102 960 q 136 1017 119 1003 q 174 1037 153 1031 q 215 1039 195 1043 q 250 1021 235 1036 q 271 979 266 1006 q 290 807 286 893 q 294 634 295 720 q 290 461 294 547 q 286 288 287 374 q 413 471 355 376 q 522 665 471 566 q 548 694 531 684 q 584 706 564 704 q 622 702 603 708 q 655 682 641 696 q 706 620 684 653 q 748 549 728 586 q 784 473 767 512 q 818 396 800 435 q 853 321 835 358 q 895 250 872 284 q 896 277 895 264 q 897 303 897 290 q 899 399 899 352 q 901 496 899 447 q 904 724 903 611 q 905 954 906 838 q 917 999 904 981 q 948 1026 929 1017 q 988 1036 966 1036 q 1029 1026 1010 1036 q 1061 999 1048 1017 q 1074 954 1074 981 z "},"X":{"ha":1040,"x_min":31,"x_max":1019,"o":"m 994 146 q 1016 103 1013 125 q 1011 60 1019 81 q 989 24 1004 40 q 954 2 973 9 q 914 1 935 -4 q 875 26 893 5 q 696 227 785 126 q 516 427 608 328 q 354 225 437 323 q 195 25 272 126 q 156 -4 178 4 q 113 -10 134 -12 q 72 3 91 -7 q 42 31 53 14 q 31 68 31 47 q 48 111 31 89 q 134 219 90 165 q 223 327 178 273 q 313 436 268 381 q 400 547 357 491 q 313 633 357 591 q 228 721 269 676 q 150 814 186 766 q 83 917 113 862 q 73 963 71 941 q 86 1003 75 985 q 117 1032 98 1021 q 157 1044 136 1043 q 197 1036 178 1046 q 230 1002 217 1026 q 286 915 254 956 q 351 834 317 873 q 423 758 386 795 q 498 684 460 721 q 591 841 549 761 q 663 1007 633 921 q 690 1047 671 1033 q 729 1064 708 1061 q 771 1062 750 1067 q 808 1042 793 1056 q 829 1008 823 1029 q 827 962 836 987 q 735 755 789 854 q 616 563 681 657 q 805 354 711 458 q 994 146 900 251 z "},"Y":{"ha":935,"x_min":12,"x_max":913,"o":"m 753 999 q 787 1031 767 1022 q 828 1039 808 1041 q 868 1027 849 1038 q 899 999 888 1016 q 912 959 911 981 q 900 913 913 937 q 750 664 825 788 q 606 411 674 540 q 558 313 582 364 q 510 211 535 262 q 455 114 485 161 q 389 28 426 66 q 349 4 370 8 q 308 6 328 -1 q 273 28 288 13 q 250 64 257 44 q 247 105 243 83 q 269 147 250 127 q 329 224 302 181 q 380 314 356 267 q 426 411 404 361 q 469 507 448 460 q 332 577 397 533 q 211 675 267 621 q 107 794 154 730 q 24 922 60 857 q 13 968 12 946 q 27 1008 15 991 q 58 1037 39 1025 q 98 1049 77 1048 q 138 1041 119 1051 q 171 1008 157 1031 q 241 899 201 953 q 329 798 281 844 q 432 715 376 751 q 549 660 487 679 q 651 830 599 746 q 753 999 703 913 z "},"Z":{"ha":991,"x_min":12,"x_max":966,"o":"m 884 186 q 930 178 911 189 q 957 149 948 167 q 966 109 966 131 q 957 67 966 87 q 929 33 947 47 q 884 17 911 19 q 502 3 695 1 q 121 18 309 4 q 80 31 100 19 q 47 62 60 43 q 33 102 35 80 q 47 145 32 124 q 322 503 184 326 q 601 858 460 680 q 473 855 537 858 q 346 850 410 852 q 218 849 281 848 q 92 858 155 850 q 48 876 66 861 q 21 911 30 891 q 12 953 12 931 q 20 993 12 975 q 47 1021 29 1010 q 92 1027 65 1031 q 260 1018 176 1017 q 430 1022 345 1019 q 600 1027 515 1026 q 768 1019 684 1029 q 816 1001 796 1015 q 844 966 836 986 q 849 921 853 945 q 827 874 846 897 q 555 527 690 701 q 285 178 419 354 q 586 173 435 172 q 884 186 736 174 z "},"a":{"ha":915,"x_min":27,"x_max":888,"o":"m 879 105 q 883 59 888 79 q 862 25 877 39 q 825 6 846 12 q 783 3 804 0 q 743 20 762 7 q 715 60 724 34 q 663 200 689 130 q 612 340 637 270 q 451 328 530 338 q 291 304 372 317 l 290 304 q 245 183 267 243 q 201 63 223 123 q 173 24 191 38 q 133 7 155 10 q 91 9 112 3 q 54 28 69 15 q 33 62 39 42 q 37 109 27 83 q 121 336 79 222 q 209 562 163 450 q 308 783 255 674 q 424 996 360 892 q 461 1030 438 1020 q 508 1037 484 1040 q 552 1018 532 1034 q 579 977 572 1003 q 646 756 610 865 q 721 538 682 646 q 799 321 759 429 q 879 105 839 213 m 361 486 q 456 499 409 494 q 551 509 503 505 q 512 622 531 566 q 475 736 493 678 q 415 612 444 674 q 361 486 387 550 z "},"b":{"ha":857,"x_min":106,"x_max":804,"o":"m 622 559 q 704 510 667 538 q 764 446 741 481 q 796 366 788 410 q 790 271 804 322 q 736 163 773 210 q 649 84 699 117 q 539 31 600 51 q 417 3 479 11 q 293 -2 355 -5 q 177 15 231 1 q 142 33 155 20 q 123 60 129 45 q 120 66 121 62 q 119 71 120 67 q 116 83 117 77 q 115 97 115 90 q 110 527 114 313 q 106 958 106 741 q 119 1004 106 986 q 152 1031 132 1023 q 194 1040 172 1040 q 236 1028 217 1039 q 332 1028 283 1029 q 428 1021 381 1027 q 518 1002 475 1015 q 597 964 561 989 q 660 902 633 939 q 701 810 686 864 q 709 732 711 768 q 697 665 708 696 q 667 608 686 634 q 622 559 647 581 m 513 819 q 462 847 490 838 q 403 860 434 856 q 340 863 372 863 q 277 861 308 863 q 278 725 277 793 q 279 589 278 658 q 312 598 295 595 q 347 604 329 602 q 385 615 366 610 q 422 628 404 621 q 455 645 436 634 q 492 672 474 656 q 524 705 509 687 q 543 742 538 723 q 542 781 548 762 q 513 819 536 801 m 613 279 q 623 337 629 312 q 597 380 617 362 q 546 410 577 398 q 480 428 515 422 q 412 435 446 434 q 352 432 378 435 q 336 428 344 430 q 321 425 328 426 q 281 424 300 420 q 283 297 283 360 q 284 170 283 233 q 377 169 328 165 q 474 184 427 172 q 557 220 520 197 q 613 279 595 243 z "},"c":{"ha":871,"x_min":37,"x_max":854,"o":"m 707 236 q 748 259 726 255 q 789 256 770 263 q 825 234 809 250 q 847 198 840 218 q 850 157 854 178 q 827 115 846 135 q 762 65 800 88 q 682 26 725 43 q 593 -1 640 9 q 501 -15 547 -12 q 411 -16 455 -19 q 330 -1 368 -12 q 217 59 265 20 q 135 150 169 98 q 81 263 102 202 q 49 387 60 324 q 46 532 37 459 q 82 673 55 605 q 153 801 110 741 q 252 907 197 861 q 382 996 319 962 q 508 1038 444 1029 q 637 1028 571 1046 q 778 960 703 1009 q 809 925 800 945 q 817 883 819 904 q 803 842 814 861 q 775 812 792 823 q 736 800 758 800 q 692 814 715 799 q 626 851 658 836 q 563 871 595 867 q 498 866 531 875 q 428 829 465 857 q 365 779 395 806 q 309 721 334 753 q 255 638 277 681 q 222 549 233 595 q 212 455 212 503 q 228 358 213 407 q 259 277 241 315 q 303 213 277 239 q 365 172 329 186 q 452 160 401 157 q 518 164 483 161 q 587 176 553 168 q 652 198 621 184 q 707 236 683 212 z "},"d":{"ha":903,"x_min":85,"x_max":878,"o":"m 170 1022 q 356 1011 264 1021 q 528 976 447 1001 q 675 910 608 951 q 789 807 743 869 q 857 659 835 745 q 869 461 878 574 q 858 374 865 420 q 837 283 850 329 q 804 196 824 238 q 757 118 785 153 q 692 58 729 83 q 607 22 654 33 q 497 2 556 11 q 378 -8 438 -6 q 259 -4 317 -10 q 151 22 201 3 q 105 60 118 34 q 94 113 92 85 q 98 314 93 213 q 107 515 104 414 q 107 715 110 615 q 88 914 104 815 q 89 947 85 930 q 96 975 90 962 q 112 999 102 989 q 137 1016 122 1010 q 170 1022 151 1022 m 484 173 q 591 211 549 180 q 657 288 633 242 q 691 391 682 334 q 700 506 701 448 q 683 630 699 577 q 637 720 666 682 q 568 782 608 758 q 479 820 528 806 q 377 841 431 835 q 267 850 323 848 q 276 680 275 765 q 274 510 277 595 q 268 339 272 425 q 264 169 264 254 q 377 164 319 161 q 484 173 435 168 z "},"e":{"ha":901,"x_min":87,"x_max":844,"o":"m 762 176 q 807 164 789 176 q 834 134 825 153 q 844 93 844 115 q 834 52 844 71 q 807 19 825 33 q 762 5 789 6 q 647 1 703 3 q 536 -4 591 -1 q 424 -13 480 -7 q 311 -26 368 -18 q 199 -20 248 -36 q 113 47 151 -4 q 92 100 98 68 q 87 167 87 131 q 92 243 87 203 q 103 319 97 282 q 114 388 109 356 q 120 444 119 420 q 132 693 125 570 q 140 943 139 817 q 138 970 137 956 q 142 996 138 983 q 154 1020 146 1009 q 174 1038 162 1031 q 213 1054 191 1051 q 255 1051 235 1057 q 478 1047 368 1050 q 702 1045 589 1045 q 747 1032 729 1045 q 775 1000 766 1019 q 784 959 784 981 q 775 919 784 937 q 748 887 766 900 q 702 875 729 875 q 506 877 604 875 q 311 880 409 879 q 308 733 309 806 q 304 585 307 659 q 382 587 342 583 q 457 592 422 590 q 569 599 513 595 q 680 613 625 602 q 727 610 706 618 q 763 585 749 601 q 782 547 777 568 q 784 506 788 526 q 766 470 781 486 q 724 449 751 454 q 591 431 659 436 q 457 422 524 425 q 377 417 418 420 q 294 416 336 414 q 286 315 291 365 q 275 216 281 265 q 277 173 271 188 q 297 152 284 158 q 328 148 310 146 q 366 153 347 149 q 404 162 385 157 q 439 170 423 168 q 518 176 478 175 q 600 177 559 178 q 681 175 640 176 q 762 176 722 174 z "},"f":{"ha":815,"x_min":88,"x_max":802,"o":"m 720 1036 q 766 1023 747 1036 q 793 991 784 1010 q 802 950 802 972 q 793 909 802 928 q 766 878 785 890 q 720 866 747 865 q 504 872 611 867 q 288 878 397 876 q 285 740 287 808 q 279 603 283 672 q 366 601 323 602 q 453 600 410 601 q 539 597 496 599 q 625 589 582 595 q 669 571 651 586 q 696 536 687 556 q 705 493 705 515 q 696 454 705 471 q 670 426 688 436 q 625 419 652 416 q 449 430 538 430 q 272 433 360 430 q 264 251 267 341 q 259 68 260 160 q 245 22 258 41 q 214 -6 233 3 q 173 -15 195 -15 q 132 -5 151 -14 q 101 22 113 3 q 89 68 88 40 q 95 293 90 180 q 105 517 100 405 q 115 742 111 630 q 119 968 119 854 q 127 1006 119 990 q 149 1032 136 1022 q 180 1047 163 1042 q 214 1049 197 1051 q 467 1043 341 1048 q 720 1036 593 1038 z "},"g":{"ha":982,"x_min":25,"x_max":956,"o":"m 943 479 q 935 304 956 382 q 869 167 914 225 q 758 72 823 109 q 619 20 693 35 q 467 13 545 5 q 318 55 389 22 q 186 145 246 87 q 88 288 126 203 q 37 464 49 375 q 43 636 25 553 q 112 793 62 719 q 245 924 161 867 q 402 1001 323 977 q 558 1020 481 1025 q 709 979 635 1015 q 848 876 782 943 q 872 834 868 856 q 869 792 876 812 q 846 757 862 772 q 811 734 831 741 q 769 732 791 728 q 728 755 747 736 q 630 826 683 801 q 521 852 576 850 q 412 830 466 853 q 310 758 357 808 q 201 554 217 662 q 258 330 185 447 q 320 259 284 290 q 399 211 357 229 q 487 184 441 192 q 575 181 532 177 q 656 201 618 185 q 723 246 694 218 q 767 315 751 275 q 781 409 783 355 l 777 409 q 677 411 727 411 q 586 410 631 411 q 495 410 541 410 q 450 422 468 410 q 422 454 431 435 q 413 496 413 473 q 422 537 413 518 q 449 568 431 555 q 495 580 467 580 q 604 581 550 579 q 712 581 658 582 q 792 579 751 580 q 871 567 832 578 q 901 559 886 566 q 925 538 916 552 q 941 510 937 526 q 943 479 945 495 z "},"h":{"ha":944,"x_min":95,"x_max":859,"o":"m 854 124 q 850 76 859 98 q 824 41 841 55 q 786 21 808 26 q 745 19 765 15 q 710 37 726 22 q 691 79 695 52 q 669 260 675 170 q 661 441 663 350 q 465 407 565 416 q 265 397 364 399 l 265 102 q 253 56 265 75 q 221 28 240 37 q 180 19 202 19 q 139 28 158 19 q 107 56 120 38 q 95 102 95 74 l 95 960 q 107 1006 95 987 q 139 1033 120 1024 q 180 1042 158 1042 q 221 1034 202 1042 q 253 1006 240 1025 q 265 960 265 987 l 265 567 q 365 570 315 568 q 466 578 416 572 q 565 593 515 584 q 661 618 614 603 q 665 795 663 707 q 668 973 667 884 q 681 1019 668 1000 q 713 1046 694 1037 q 754 1055 732 1055 q 794 1046 776 1055 q 826 1019 813 1037 q 838 973 838 1000 q 833 760 838 867 q 828 548 829 654 q 832 335 827 441 q 854 124 837 229 z "},"i":{"ha":639,"x_min":39,"x_max":617,"o":"m 536 172 q 581 155 563 169 q 608 121 599 140 q 617 79 617 101 q 608 39 617 57 q 581 9 600 20 q 536 1 563 -1 q 432 7 484 6 q 328 5 380 7 q 225 -1 277 3 q 121 -8 173 -5 q 76 2 94 -9 q 48 31 58 13 q 39 72 39 50 q 48 114 39 94 q 76 146 58 133 q 121 162 94 160 q 174 165 147 163 q 227 170 200 168 q 214 515 217 343 q 227 859 212 686 q 174 860 200 859 q 121 863 147 861 q 76 880 94 866 q 49 914 58 895 q 40 956 40 934 q 49 996 40 978 q 76 1025 58 1015 q 121 1034 94 1036 q 214 1029 168 1029 q 307 1030 260 1029 q 400 1031 354 1031 q 493 1027 447 1031 q 538 1010 520 1025 q 565 977 556 996 q 574 935 574 957 q 566 895 574 913 q 538 865 557 876 q 493 857 520 854 q 397 861 445 861 q 384 519 382 690 q 396 177 387 348 q 466 176 431 177 q 536 172 500 175 z "},"k":{"ha":917,"x_min":109,"x_max":912,"o":"m 880 134 q 907 96 901 117 q 906 56 912 75 q 884 22 899 37 q 848 -1 868 6 q 804 -6 827 -9 q 760 14 781 -3 q 641 104 702 61 q 518 190 579 146 q 397 277 456 233 q 282 374 337 322 q 280 223 281 298 q 279 74 279 149 q 266 28 279 47 q 234 1 253 9 q 194 -8 216 -8 q 153 1 172 -9 q 121 28 134 10 q 109 74 109 46 q 115 514 109 294 q 121 954 121 734 q 134 1000 121 981 q 166 1027 147 1019 q 207 1037 185 1036 q 248 1028 229 1037 q 279 1000 267 1019 q 292 954 292 981 q 290 801 292 877 q 288 648 289 725 q 366 748 327 696 q 447 848 405 801 q 537 931 490 895 q 641 980 585 966 q 689 978 667 986 q 724 955 710 970 q 744 917 738 939 q 746 876 749 896 q 727 839 742 855 q 686 817 713 823 q 631 787 659 810 q 579 734 604 764 q 533 674 555 705 q 494 624 511 644 q 443 564 468 593 q 391 505 418 534 q 507 405 446 452 q 631 315 568 359 q 758 227 694 271 q 880 134 821 182 z "},"j":{"ha":833,"x_min":21,"x_max":753,"o":"m 751 954 q 751 701 749 827 q 747 448 753 574 q 744 347 745 401 q 734 239 743 293 q 705 137 725 185 q 646 57 685 90 q 559 10 608 25 q 459 -5 511 -5 q 352 7 406 -5 q 249 44 298 20 q 156 102 199 68 q 82 177 113 136 q 36 265 52 218 q 26 363 21 312 q 44 409 29 391 q 78 436 58 427 q 120 445 98 445 q 160 436 142 445 q 189 409 178 427 q 197 363 199 391 q 203 308 193 334 q 230 262 212 283 q 272 225 248 241 q 325 198 297 210 q 381 181 353 187 q 435 174 410 175 q 508 182 482 172 q 547 214 534 193 q 564 268 559 236 q 571 342 568 300 q 579 495 577 418 q 581 648 581 572 q 580 801 581 724 q 581 954 580 878 q 595 1000 582 981 q 627 1027 608 1018 q 668 1036 646 1036 q 709 1027 690 1036 q 740 1000 728 1018 q 751 954 752 981 z "},"l":{"ha":764,"x_min":107,"x_max":749,"o":"m 667 174 q 713 162 694 174 q 740 131 731 150 q 749 91 749 113 q 740 50 749 68 q 713 17 731 31 q 667 3 694 4 q 544 -1 606 2 q 421 -4 483 -3 q 299 0 360 -4 q 177 17 238 5 q 152 28 163 20 q 132 47 140 36 q 120 72 124 58 q 115 98 115 85 q 109 523 107 311 q 109 949 110 736 q 122 995 109 976 q 153 1022 134 1013 q 194 1031 172 1031 q 235 1022 216 1031 q 267 995 254 1013 q 279 949 279 976 q 279 560 280 753 q 283 172 278 367 q 379 165 331 166 q 475 166 427 164 q 572 170 524 168 q 667 174 620 172 z "},"m":{"ha":1107,"x_min":73,"x_max":1009,"o":"m 995 956 q 1006 520 1004 739 q 1009 85 1007 302 q 997 39 1009 58 q 966 11 985 20 q 925 2 947 2 q 884 12 903 2 q 852 39 865 21 q 840 85 840 57 q 837 385 838 235 q 833 686 836 534 q 774 590 804 637 q 712 496 745 543 q 674 447 694 471 q 632 405 655 423 q 582 377 610 387 q 521 368 555 366 q 430 395 467 370 q 366 461 393 421 q 319 551 338 501 q 281 652 299 602 q 270 353 277 501 q 241 54 262 205 q 222 13 237 27 q 188 -6 208 -2 q 148 -4 169 -9 q 109 16 126 2 q 82 52 92 31 q 77 100 73 73 q 98 308 92 203 q 108 518 105 413 q 113 728 111 623 q 118 938 114 833 q 131 980 119 960 q 162 1011 144 1000 q 203 1025 181 1023 q 246 1011 225 1026 q 306 956 281 987 q 351 889 332 924 q 387 817 371 854 q 419 741 404 779 q 453 666 435 703 q 494 595 471 629 q 525 557 513 567 q 544 551 536 547 q 562 572 553 555 q 586 615 570 589 q 611 659 599 637 q 637 702 623 681 q 733 852 686 778 q 836 999 781 927 q 882 1033 855 1023 q 933 1036 908 1042 q 976 1010 958 1030 q 995 956 994 990 z "},"n":{"ha":996,"x_min":94,"x_max":899,"o":"m 728 954 q 743 1000 729 981 q 775 1027 756 1018 q 817 1036 795 1036 q 857 1027 839 1036 q 887 1000 876 1018 q 897 954 899 981 q 890 740 891 847 q 887 526 888 633 q 881 311 885 418 q 865 98 877 204 q 851 56 863 75 q 821 24 839 36 q 781 11 803 12 q 737 24 760 9 q 649 100 688 56 q 576 192 610 143 q 513 291 543 240 q 454 391 484 342 q 369 522 412 458 q 283 652 326 586 q 277 367 279 509 q 267 82 275 224 q 267 81 267 82 q 267 76 267 79 q 251 31 264 49 q 218 3 237 12 q 176 -6 199 -6 q 136 3 154 -6 q 106 30 117 12 q 96 76 94 48 q 105 294 103 184 q 110 512 108 403 q 116 731 113 622 q 130 948 120 840 q 141 983 132 966 q 166 1011 151 1000 q 198 1030 180 1023 q 232 1035 215 1036 q 264 1023 250 1034 q 289 991 279 1013 q 353 866 318 926 q 426 747 388 806 q 502 631 463 689 q 578 513 541 573 q 641 403 610 462 q 709 290 672 345 q 715 455 713 372 q 718 622 717 538 q 721 788 720 705 q 728 954 723 871 z "},"o":{"ha":1031,"x_min":39,"x_max":988,"o":"m 980 547 q 971 377 988 460 q 913 225 955 294 q 806 103 871 155 q 650 24 740 51 q 550 4 602 10 q 444 2 497 -1 q 339 20 391 6 q 243 59 288 34 q 160 120 198 83 q 98 205 123 157 q 51 346 63 272 q 46 495 39 420 q 79 642 54 570 q 144 779 104 715 q 237 897 184 844 q 354 985 290 949 q 459 1021 401 1010 q 577 1028 517 1032 q 693 1007 637 1025 q 793 957 749 989 q 877 875 844 920 q 932 779 911 830 q 964 671 953 728 q 980 553 975 614 l 980 547 m 296 230 q 414 171 351 184 q 537 168 477 157 q 652 211 598 178 q 746 292 707 243 q 804 402 785 340 q 813 531 823 463 q 813 535 812 533 q 812 539 813 537 q 811 546 812 543 q 810 553 810 549 q 799 639 806 595 q 773 723 791 684 q 727 793 756 763 q 651 838 698 824 q 551 853 600 852 q 456 840 501 854 q 373 795 412 825 q 305 717 334 764 q 266 643 285 684 q 234 558 247 602 q 215 469 220 514 q 215 380 209 423 q 240 298 220 337 q 296 230 259 260 z "},"p":{"ha":787,"x_min":85,"x_max":768,"o":"m 656 951 q 716 891 691 926 q 755 816 742 857 q 767 732 768 776 q 751 648 767 689 q 706 572 735 606 q 641 510 677 538 q 564 462 604 483 q 483 425 523 441 q 439 407 464 417 q 385 387 414 397 q 327 369 357 377 q 268 357 296 361 q 259 217 262 287 q 255 76 256 147 q 242 30 254 49 q 210 2 229 12 q 169 -6 191 -7 q 129 3 147 -6 q 97 30 110 12 q 85 76 85 48 l 85 113 q 85 120 85 117 q 86 127 85 123 q 96 330 89 229 q 111 533 103 431 q 124 736 118 635 q 132 940 131 838 q 150 992 132 972 q 191 1019 168 1011 q 203 1022 197 1021 q 217 1025 210 1024 q 330 1033 272 1031 q 444 1027 387 1034 q 555 1002 501 1020 q 656 951 609 985 m 588 699 q 602 760 606 734 q 576 804 597 786 q 523 833 555 822 q 451 850 490 844 q 373 858 413 856 q 300 859 334 860 q 292 699 297 779 q 281 539 287 619 q 295 542 288 541 q 310 546 302 544 q 364 562 337 553 q 416 580 391 570 q 463 600 438 589 q 512 626 488 612 q 556 658 536 640 q 588 699 576 676 z "},"q":{"ha":1019,"x_min":31,"x_max":980,"o":"m 953 148 q 976 106 972 128 q 973 65 980 85 q 950 29 966 45 q 915 7 935 14 q 873 4 895 0 q 832 28 851 8 q 800 62 816 45 q 768 97 784 79 q 624 23 703 48 q 454 3 545 -3 q 271 47 349 9 q 140 149 193 85 q 61 298 88 212 q 31 485 34 384 q 47 615 33 551 q 85 737 60 679 q 148 845 111 795 q 233 932 184 895 q 343 994 282 970 q 477 1023 404 1017 q 622 1012 553 1029 q 746 959 690 995 q 848 872 803 924 q 922 759 892 821 q 965 628 951 697 q 975 486 979 558 q 947 345 970 412 q 885 221 924 279 q 918 184 901 202 q 953 148 935 165 m 498 174 q 586 193 545 179 q 661 230 627 208 q 570 362 612 295 q 556 407 555 385 q 568 447 557 429 q 599 475 580 464 q 639 488 618 486 q 681 480 661 490 q 716 448 701 471 q 744 406 730 427 q 773 364 758 385 q 791 412 783 387 q 802 465 798 437 q 799 577 809 520 q 764 685 789 634 q 702 778 740 736 q 617 840 665 819 q 514 861 570 862 q 397 827 458 860 q 306 763 342 797 q 246 688 269 729 q 214 597 224 647 q 201 485 203 547 q 221 356 203 416 q 275 252 239 296 q 366 188 311 209 q 498 174 421 166 z "},"r":{"ha":939,"x_min":67,"x_max":890,"o":"m 851 154 q 882 117 873 138 q 889 75 890 96 q 876 34 887 53 q 848 4 865 15 q 809 -8 831 -7 q 766 7 788 -9 q 636 107 698 54 q 516 218 575 161 q 397 330 456 274 q 274 437 338 386 q 276 337 275 387 q 273 237 276 287 q 262 139 270 188 q 239 43 254 90 q 214 2 231 16 q 175 -16 196 -12 q 133 -14 154 -20 q 96 6 112 -8 q 74 40 81 20 q 75 87 67 61 q 104 233 97 159 q 111 382 111 307 q 108 532 111 456 q 106 681 105 607 q 118 828 108 755 q 155 971 128 901 q 171 1013 157 995 q 216 1036 186 1031 q 304 1040 254 1042 q 410 1028 354 1038 q 525 1001 467 1019 q 637 958 584 983 q 734 900 690 933 q 805 827 778 867 q 840 738 833 786 q 825 633 846 689 q 775 559 809 589 q 697 509 742 528 q 601 478 653 489 q 495 465 549 468 q 581 384 538 425 q 668 303 624 342 q 757 225 711 263 q 851 154 802 188 m 547 814 q 428 861 489 843 q 302 876 367 879 q 280 764 287 821 q 271 648 273 707 q 357 636 312 640 q 447 634 401 632 q 537 644 493 636 q 620 667 581 652 q 653 690 645 677 q 657 716 661 703 q 641 745 654 730 q 612 772 629 759 q 578 796 595 785 q 547 814 560 807 z "},"s":{"ha":750,"x_min":54,"x_max":710,"o":"m 585 510 q 649 450 620 484 q 693 375 677 415 q 710 293 709 336 q 688 207 710 250 q 622 123 665 163 q 523 53 578 83 q 406 3 468 22 q 282 -18 343 -16 q 168 -1 222 -20 q 77 61 115 17 q 57 105 60 82 q 61 148 54 127 q 84 184 68 168 q 119 206 100 199 q 159 208 138 212 q 197 182 180 203 q 242 156 214 162 q 304 154 271 150 q 375 170 338 158 q 443 199 411 182 q 498 235 474 216 q 532 274 522 255 q 530 329 546 302 q 479 381 513 356 q 399 430 445 407 q 310 473 354 453 q 228 508 265 492 q 175 536 191 524 q 94 623 118 574 q 71 722 69 671 q 96 823 73 773 q 159 914 120 873 q 249 985 198 956 q 354 1024 299 1014 q 466 1021 410 1034 q 572 966 522 1008 q 597 927 593 947 q 596 887 602 906 q 574 852 589 867 q 538 829 558 836 q 494 824 517 821 q 451 845 471 827 q 412 863 433 861 q 368 859 390 865 q 324 839 345 852 q 285 807 302 825 q 256 770 268 789 q 242 733 245 751 q 250 697 239 713 q 276 670 260 682 q 310 650 292 659 q 342 635 329 642 q 405 608 374 621 q 467 579 436 594 q 527 548 497 564 q 585 510 556 531 z "},"t":{"ha":900,"x_min":14,"x_max":887,"o":"m 826 980 q 866 953 852 971 q 883 914 880 935 q 881 871 887 892 q 862 835 876 850 q 828 813 848 820 q 781 816 807 807 q 673 844 728 834 q 559 859 617 854 q 558 659 565 758 q 541 461 551 560 q 521 264 530 363 q 512 65 512 165 q 499 19 512 38 q 468 -8 487 1 q 427 -17 449 -17 q 386 -8 405 -18 q 354 19 367 1 q 342 65 342 37 q 351 264 342 165 q 371 461 361 363 q 388 659 381 560 q 389 859 395 758 q 253 842 320 853 q 121 816 185 831 q 74 817 95 809 q 39 841 53 825 q 19 879 25 857 q 17 920 14 900 q 36 957 21 941 q 77 980 50 973 q 261 1016 165 1002 q 453 1031 356 1029 q 644 1022 549 1034 q 826 980 739 1010 z "},"u":{"ha":961,"x_min":85,"x_max":857,"o":"m 856 956 q 856 508 857 730 q 855 59 854 285 q 843 13 855 32 q 811 -14 830 -5 q 770 -23 792 -23 q 729 -14 748 -24 q 697 13 710 -5 q 685 59 685 31 l 685 85 q 591 28 642 51 q 486 -3 541 5 q 376 -2 432 -11 q 264 35 319 7 q 183 104 216 60 q 131 204 151 148 q 101 327 111 260 q 88 463 91 393 q 88 604 85 533 q 94 739 90 674 q 102 859 98 803 q 106 956 106 915 q 119 1002 106 983 q 151 1029 132 1021 q 192 1039 170 1038 q 233 1030 214 1039 q 264 1002 252 1021 q 277 956 277 983 q 272 801 277 881 q 264 641 267 721 q 265 481 262 560 q 285 327 269 401 q 333 218 300 255 q 406 170 365 180 q 490 174 446 160 q 574 220 534 189 q 643 298 613 252 q 685 398 673 344 q 686 677 686 539 q 686 956 687 816 q 699 1002 686 983 q 730 1029 711 1021 q 771 1039 749 1038 q 811 1030 793 1039 q 843 1002 830 1021 q 856 956 856 983 z "},"v":{"ha":838,"x_min":17,"x_max":830,"o":"m 670 984 q 703 1017 684 1008 q 744 1025 723 1027 q 784 1013 765 1024 q 815 984 803 1002 q 828 944 827 966 q 817 898 830 922 q 756 777 783 839 q 705 650 729 714 q 657 522 681 587 q 608 395 634 458 q 574 304 589 351 q 543 211 559 258 q 509 119 528 165 q 466 33 490 74 q 439 7 456 18 q 402 -7 422 -4 q 364 -5 383 -11 q 332 16 345 0 q 280 105 301 56 q 243 207 259 154 q 215 312 228 259 q 186 412 202 365 q 148 538 166 475 q 111 664 130 601 q 72 790 92 727 q 27 913 52 852 q 23 959 17 939 q 43 993 28 979 q 80 1012 58 1006 q 122 1015 101 1018 q 162 998 144 1011 q 191 959 181 984 q 230 849 212 905 q 265 739 248 794 q 297 627 281 683 q 332 517 313 572 q 366 422 347 469 q 399 327 385 376 q 410 357 405 342 q 421 387 416 372 q 467 493 444 440 q 510 601 490 546 q 546 699 528 650 q 582 796 563 747 q 623 891 601 844 q 670 984 644 939 z "},"w":{"ha":1056,"x_min":96,"x_max":962,"o":"m 791 937 q 805 983 792 964 q 838 1010 819 1001 q 879 1019 857 1019 q 920 1010 901 1019 q 950 983 938 1001 q 960 937 962 964 q 951 685 955 810 q 943 433 948 559 q 942 336 941 385 q 940 236 942 286 q 934 137 939 186 q 918 42 929 88 q 896 3 913 18 q 858 -17 879 -12 q 814 -17 837 -22 q 776 5 792 -12 q 716 74 743 37 q 665 151 688 111 q 620 231 641 190 q 578 313 598 272 q 550 372 564 343 q 522 431 536 401 q 429 265 474 349 q 333 102 385 182 q 305 64 322 84 q 268 26 288 43 q 227 -3 248 9 q 185 -14 205 -14 q 146 1 164 -14 q 115 52 128 16 q 99 141 101 92 q 100 242 96 191 q 109 345 103 294 q 116 437 115 395 q 122 689 121 564 q 120 941 123 814 q 131 986 119 968 q 162 1014 143 1004 q 202 1023 180 1023 q 244 1014 224 1023 q 276 986 263 1004 q 290 941 290 968 q 293 689 294 814 q 286 437 292 564 q 284 392 285 414 q 283 346 284 369 q 325 426 304 387 q 367 504 345 465 q 387 541 375 518 q 414 587 399 563 q 447 633 429 611 q 486 669 465 655 q 529 685 507 683 q 575 669 551 686 q 618 624 600 652 q 652 565 637 596 q 679 501 667 533 q 704 443 691 469 q 738 372 721 408 q 774 300 755 336 q 774 388 774 345 q 774 472 773 431 q 782 704 779 589 q 791 937 785 820 z "},"x":{"ha":903,"x_min":28,"x_max":886,"o":"m 873 116 q 883 69 886 92 q 869 28 881 46 q 838 0 857 11 q 798 -13 819 -12 q 758 -4 777 -14 q 726 30 739 5 q 606 239 671 138 q 467 439 541 341 q 352 234 408 336 q 235 30 297 131 q 201 -3 221 7 q 159 -11 180 -12 q 119 2 138 -9 q 89 31 100 14 q 76 70 77 48 q 89 116 75 92 q 221 348 158 231 q 353 580 285 465 q 58 884 214 742 q 33 923 37 902 q 35 964 28 944 q 57 999 41 983 q 93 1021 73 1014 q 135 1025 113 1029 q 178 1004 157 1022 q 316 871 249 940 q 448 730 383 803 q 553 872 498 804 q 674 1004 608 940 q 716 1027 694 1023 q 758 1024 738 1031 q 793 1001 778 1017 q 815 966 808 985 q 818 924 822 946 q 794 884 814 903 q 669 745 726 818 q 562 595 612 673 q 730 361 652 481 q 873 116 808 242 z "},"y":{"ha":857,"x_min":31,"x_max":844,"o":"m 699 1003 q 739 1028 718 1023 q 779 1026 760 1033 q 814 1004 799 1020 q 837 968 829 989 q 841 926 844 948 q 819 883 838 903 q 765 806 787 847 q 723 720 742 764 q 687 631 705 676 q 650 545 670 587 q 593 427 621 486 q 541 308 566 368 q 496 186 516 248 q 462 60 475 124 q 440 19 456 33 q 404 0 424 4 q 362 2 384 -4 q 325 22 341 7 q 300 57 309 36 q 298 104 292 78 q 351 286 317 199 q 423 458 385 372 q 328 566 376 513 q 232 674 280 620 q 138 782 184 728 q 48 895 92 837 q 31 937 31 916 q 42 975 31 958 q 72 1003 53 991 q 113 1016 91 1014 q 157 1010 135 1018 q 195 980 178 1002 q 344 801 265 886 q 501 627 423 715 q 502 628 502 628 q 503 630 503 629 q 545 728 526 679 q 587 825 565 777 q 636 917 610 872 q 699 1003 663 962 z "},"z":{"ha":975,"x_min":35,"x_max":941,"o":"m 859 167 q 904 154 886 167 q 931 123 922 142 q 941 82 941 104 q 932 41 941 60 q 904 9 923 22 q 859 -3 886 -3 q 537 -2 697 -3 q 216 -2 378 -1 q 144 5 182 -3 q 79 31 106 12 q 43 79 52 49 q 57 155 35 109 q 113 248 81 203 q 181 335 145 292 q 253 419 216 378 q 323 501 290 460 q 472 681 398 591 q 619 862 546 770 q 372 861 494 861 q 124 861 249 860 q 79 874 97 861 q 51 906 60 887 q 42 947 42 925 q 51 988 42 969 q 79 1019 60 1006 q 124 1031 97 1031 q 457 1031 292 1030 q 791 1031 623 1033 q 832 1019 812 1031 q 865 987 852 1006 q 878 946 877 968 q 864 903 879 924 q 721 719 794 810 q 574 539 648 629 q 425 359 500 449 q 278 178 351 269 l 270 168 q 336 169 303 168 q 401 168 368 169 q 630 166 517 165 q 859 167 744 167 z "},"~":{"ha":806,"x_min":18,"x_max":787,"o":"m 646 538 q 683 565 663 559 q 722 564 703 570 q 757 542 741 557 q 780 506 772 526 q 785 463 787 486 q 765 419 782 440 q 701 355 734 382 q 629 310 667 327 q 549 287 591 292 q 458 289 506 281 q 402 312 428 294 q 354 352 377 330 q 309 393 331 374 q 264 420 288 413 q 216 417 241 427 q 159 369 190 407 q 121 343 142 348 q 82 344 101 338 q 48 366 64 350 q 25 401 33 381 q 20 444 18 422 q 40 488 23 467 q 171 582 96 556 q 332 581 246 607 q 372 564 354 574 q 406 539 390 553 q 437 510 422 526 q 468 479 452 494 q 518 454 493 455 q 565 464 543 452 q 609 497 588 476 q 646 538 629 518 z "},"¡":{"ha":389,"x_min":102,"x_max":292,"o":"m 211 871 q 166 884 184 871 q 139 915 148 897 q 130 956 130 934 q 139 996 130 977 q 166 1027 148 1015 q 211 1040 184 1040 q 256 1027 238 1040 q 283 996 274 1015 q 292 956 292 977 q 283 915 292 934 q 256 884 274 897 q 211 871 238 871 m 124 669 q 137 714 124 696 q 168 741 149 732 q 209 750 187 750 q 249 741 231 750 q 280 714 268 732 q 292 669 292 696 q 289 520 292 594 q 281 371 286 446 q 274 223 277 297 q 270 74 271 149 q 257 29 270 47 q 226 2 245 11 q 185 -7 207 -7 q 145 2 163 -7 q 114 29 126 11 q 102 74 102 47 q 106 223 102 149 q 113 371 109 297 q 120 520 117 446 q 124 669 123 594 z "},"∞":{"ha":1389,"x_min":43,"x_max":1345,"o":"m 1061 748 q 1134 742 1097 749 q 1203 719 1170 734 q 1263 681 1236 704 q 1310 628 1291 658 q 1337 562 1329 598 q 1340 485 1345 526 q 1310 395 1334 433 q 1250 331 1286 357 q 1167 292 1213 306 q 1070 276 1121 279 q 967 280 1020 273 q 865 302 914 287 q 771 340 815 317 q 694 393 728 363 q 615 338 660 360 q 523 302 571 316 q 425 283 474 289 q 330 280 375 278 q 265 288 300 281 q 198 305 231 294 q 136 334 165 317 q 85 376 106 351 q 54 431 64 400 q 48 503 43 463 q 96 642 59 590 q 185 719 132 694 q 304 744 239 744 q 438 727 370 744 q 572 681 506 711 q 694 615 638 651 q 779 666 734 642 q 870 707 823 690 q 965 736 917 725 q 1061 748 1013 747 m 216 503 q 235 466 216 479 q 285 447 254 452 q 354 445 315 442 q 431 455 393 447 q 504 474 469 463 q 561 498 538 485 q 492 532 530 515 q 417 562 455 549 q 343 581 379 574 q 279 582 307 587 q 234 558 252 576 q 216 503 217 539 m 825 500 q 886 473 849 485 q 965 454 924 461 q 1047 447 1006 448 q 1117 454 1087 446 q 1162 479 1147 462 q 1167 527 1177 497 q 1137 569 1158 555 q 1087 585 1116 583 q 1025 581 1059 587 q 956 561 991 574 q 888 532 922 549 q 825 500 854 516 z "},"@":{"ha":1268,"x_min":32,"x_max":1247,"o":"m 1078 170 q 1102 210 1085 196 q 1140 228 1119 224 q 1181 226 1160 232 q 1217 207 1202 220 q 1240 172 1233 193 q 1240 125 1247 151 q 1201 45 1227 82 q 1139 -22 1175 8 q 1060 -78 1103 -53 q 972 -122 1017 -103 q 882 -154 927 -141 q 796 -176 836 -168 q 633 -184 712 -192 q 480 -149 553 -177 q 343 -73 408 -121 q 224 37 278 -26 q 111 215 155 117 q 50 418 67 313 q 42 627 32 522 q 91 827 52 732 q 201 1001 131 922 q 375 1133 272 1080 q 532 1192 451 1171 q 694 1212 613 1213 q 854 1188 775 1212 q 1005 1115 932 1165 q 1110 1015 1064 1074 q 1185 889 1156 957 q 1225 748 1215 821 q 1225 603 1236 674 q 1204 517 1219 562 q 1166 432 1189 473 q 1113 353 1143 390 q 1045 288 1082 316 q 965 244 1008 260 q 873 229 922 229 q 770 256 809 230 q 711 326 731 283 q 665 286 690 304 q 614 254 641 268 q 520 229 568 228 q 432 252 473 231 q 358 310 391 273 q 311 393 326 347 q 294 499 293 445 q 312 602 294 553 q 363 692 329 651 q 447 758 397 732 q 527 779 489 779 q 600 762 566 778 q 664 719 634 746 q 721 659 694 691 l 723 665 q 749 704 731 690 q 787 722 766 718 q 828 720 807 726 q 864 701 849 714 q 886 667 880 688 q 885 620 892 646 q 875 585 882 609 q 863 532 868 560 q 855 475 857 503 q 859 428 853 446 q 881 406 865 410 q 928 421 897 401 q 968 450 949 435 q 1003 483 987 465 q 1029 522 1018 500 q 1047 568 1040 543 q 1060 664 1059 615 q 1051 761 1061 713 q 1019 851 1041 808 q 962 930 997 895 q 850 1007 911 980 q 724 1042 789 1035 q 593 1036 659 1048 q 468 992 527 1023 q 358 915 408 962 q 275 808 308 868 q 211 622 226 719 q 212 429 195 524 q 277 248 229 334 q 401 93 324 161 q 490 31 442 56 q 590 -8 538 5 q 695 -19 642 -20 q 804 -1 749 -18 q 850 14 823 5 q 904 34 876 22 q 961 59 932 45 q 1013 90 989 73 q 1054 126 1036 106 q 1078 170 1071 146 m 515 397 q 582 427 551 401 q 638 487 612 452 q 621 515 631 499 q 599 548 611 532 q 573 578 587 564 q 547 600 560 593 q 519 606 533 608 q 494 589 506 604 q 481 564 488 582 q 469 524 474 546 q 461 478 464 502 q 464 435 459 454 q 480 405 468 416 q 515 397 492 394 z "},"/":{"ha":722,"x_min":3,"x_max":721,"o":"m 578 1012 q 616 1037 595 1032 q 656 1036 637 1042 q 691 1014 675 1029 q 713 978 706 998 q 718 936 721 958 q 697 892 715 913 q 545 699 616 799 q 407 495 473 600 q 280 284 341 391 q 161 68 219 177 q 129 35 148 45 q 89 27 109 25 q 50 39 68 28 q 19 67 31 50 q 5 107 7 85 q 16 153 3 130 q 141 378 77 267 q 274 598 205 490 q 418 810 343 706 q 578 1012 494 914 z "},"#":{"ha":741,"x_min":46,"x_max":699,"o":"m 617 484 q 662 471 644 484 q 689 440 680 458 q 699 399 699 421 q 689 359 699 378 q 662 328 680 340 q 617 315 644 315 l 572 315 l 572 270 q 560 225 572 243 q 529 198 547 207 q 488 189 510 189 q 448 198 467 189 q 417 225 429 207 q 404 270 404 243 l 404 315 l 343 315 q 342 293 342 304 q 340 270 341 281 q 326 225 339 243 q 294 198 313 207 q 253 189 275 189 q 213 198 231 189 q 183 225 195 207 q 172 270 171 243 q 174 293 173 281 q 175 315 174 304 l 127 315 q 82 328 100 315 q 55 359 64 340 q 46 399 46 378 q 55 440 46 421 q 82 471 64 458 q 127 484 100 484 l 183 484 q 185 513 184 498 q 186 544 185 528 q 157 545 172 545 q 127 547 142 546 q 82 561 100 548 q 55 593 64 574 q 46 634 46 612 q 55 674 46 656 q 82 704 64 692 q 127 715 100 716 q 160 713 144 714 q 192 711 176 713 q 192 736 192 724 q 193 760 193 748 q 205 805 193 787 q 237 832 218 823 q 277 841 256 841 q 318 832 299 841 q 349 805 336 823 q 361 760 361 787 q 360 732 361 746 q 360 703 360 718 q 382 702 371 702 q 404 701 393 702 l 404 760 q 417 805 404 787 q 448 832 429 823 q 488 841 467 841 q 529 832 510 841 q 560 805 547 823 q 572 760 572 787 l 572 695 q 595 695 584 695 q 617 694 606 694 q 662 682 644 694 q 689 650 680 669 q 699 610 699 631 q 689 569 699 588 q 662 538 680 551 q 617 526 644 526 q 595 527 606 526 q 572 527 584 527 l 572 484 l 617 484 m 404 484 l 404 533 q 379 534 391 534 q 354 535 367 534 q 353 509 353 522 q 352 484 353 496 l 404 484 z "},"%":{"ha":1000,"x_min":34,"x_max":960,"o":"m 815 1004 q 854 1029 833 1024 q 894 1027 875 1034 q 928 1005 913 1021 q 951 969 944 989 q 955 927 958 949 q 935 884 952 905 q 747 669 840 777 q 562 452 654 560 q 374 237 469 344 q 182 25 279 130 q 142 1 163 5 q 101 3 121 -3 q 66 25 82 9 q 44 61 51 41 q 40 103 37 81 q 62 144 44 125 q 255 356 160 249 q 443 571 349 463 q 628 788 536 680 q 815 1004 721 897 m 274 578 q 187 589 231 574 q 109 631 143 603 q 54 698 75 659 q 38 786 34 738 q 59 874 41 831 q 106 951 77 917 q 176 1006 136 985 q 264 1028 216 1027 q 338 1016 304 1029 q 399 980 372 1003 q 443 924 425 957 q 467 852 460 892 l 467 852 q 470 830 470 842 q 459 740 471 784 q 423 662 448 696 q 362 604 399 627 q 274 578 325 581 m 207 790 q 210 768 205 778 q 223 753 214 759 q 244 744 233 747 q 267 745 256 742 q 287 758 279 749 q 297 777 294 766 q 301 801 300 788 q 302 825 302 813 q 297 844 300 835 q 289 856 294 852 q 282 860 284 859 q 279 861 280 861 q 277 860 278 861 q 271 860 275 860 q 249 854 260 860 q 230 838 239 848 q 215 816 221 829 q 207 790 209 803 m 956 294 q 958 283 958 289 q 959 273 959 278 q 948 182 960 227 q 912 103 937 138 q 851 46 888 68 q 763 20 814 24 q 676 31 720 16 q 598 73 632 45 q 543 140 564 101 q 527 228 523 180 q 548 316 530 273 q 595 393 566 359 q 665 448 625 427 q 753 470 705 469 q 827 458 793 471 q 888 422 861 446 q 932 367 914 399 q 956 295 949 334 l 956 294 m 755 188 q 775 200 768 191 q 786 219 783 208 q 790 242 789 230 q 791 267 791 255 q 786 286 789 277 q 778 298 783 295 q 771 301 773 300 q 768 302 770 302 q 766 302 767 302 q 760 302 764 302 q 738 296 749 302 q 719 280 728 290 q 704 258 710 271 q 696 233 698 245 q 699 211 694 220 q 712 195 703 201 q 733 186 722 189 q 755 188 745 184 z "},":":{"ha":213,"x_min":13,"x_max":201,"o":"m 94 171 q 139 158 121 171 q 166 127 157 146 q 176 87 176 109 q 166 46 176 65 q 139 15 157 28 q 94 3 121 3 q 49 15 67 3 q 22 46 31 28 q 13 87 13 65 q 22 127 13 109 q 49 158 31 146 q 94 171 67 171 m 119 833 q 164 820 146 833 q 192 789 182 808 q 201 749 201 770 q 192 708 201 727 q 164 677 182 690 q 119 665 146 665 q 74 677 92 665 q 47 708 56 690 q 38 749 38 727 q 47 789 38 770 q 74 820 56 808 q 119 833 92 833 z "},",":{"ha":287,"x_min":-3,"x_max":267,"o":"m 163 212 q 208 198 189 210 q 240 170 227 187 q 257 132 252 153 q 259 87 262 110 q 146 -184 267 -73 q 104 -205 126 -202 q 61 -202 81 -209 q 26 -179 41 -195 q 4 -145 11 -164 q 2 -104 -3 -125 q 26 -65 6 -83 q 53 -37 41 -52 q 75 -7 66 -23 q 50 14 61 2 q 32 41 39 26 q 23 73 24 56 q 25 108 21 90 q 44 149 31 130 q 76 183 58 169 q 117 206 95 198 q 163 212 140 214 z "},"&":{"ha":1000,"x_min":24,"x_max":1000,"o":"m 970 139 q 995 101 990 121 q 994 61 1000 80 q 972 26 987 41 q 936 3 956 11 q 894 -1 916 -4 q 851 20 871 2 q 785 78 818 49 q 719 136 752 106 q 617 70 669 100 q 510 19 566 39 q 393 -11 454 -2 q 263 -11 332 -19 q 157 20 203 -4 q 81 79 111 44 q 38 157 51 114 q 30 247 24 201 q 59 339 35 293 q 127 425 83 385 q 189 470 155 449 q 262 510 224 490 q 186 579 222 544 q 125 652 151 614 q 82 752 90 704 q 88 843 75 800 q 133 921 101 886 q 207 983 164 957 q 300 1025 250 1009 q 402 1044 351 1041 q 505 1036 454 1047 q 596 998 555 1025 q 666 937 637 972 q 710 860 694 901 q 726 772 725 819 q 714 679 728 726 q 692 628 707 652 q 656 580 677 603 q 612 536 636 557 q 561 496 587 515 q 644 425 603 460 q 727 352 686 389 q 781 395 754 374 q 834 437 807 416 q 876 453 856 453 q 913 443 897 454 q 941 413 930 432 q 954 372 952 394 q 948 329 956 351 q 919 291 940 307 q 886 266 903 279 q 854 240 870 253 q 912 189 883 214 q 970 139 941 164 m 353 673 q 394 638 374 656 q 435 604 414 621 q 500 655 471 627 q 547 717 529 682 q 560 771 562 747 q 545 815 559 796 q 509 847 532 834 q 460 867 487 861 q 407 874 434 874 q 355 868 379 875 q 278 829 298 851 q 263 781 258 806 q 294 728 269 755 q 353 673 319 700 m 507 193 q 550 220 529 206 q 591 248 571 233 q 555 280 573 264 q 519 312 537 296 q 465 356 493 334 q 406 401 436 378 q 394 394 400 397 q 382 388 388 391 q 356 372 374 383 q 318 347 339 361 q 274 315 296 333 q 233 280 252 298 q 202 244 214 262 q 190 210 190 226 q 203 182 189 195 q 251 162 218 170 q 315 153 281 155 q 382 154 349 151 q 448 167 416 157 q 507 193 479 176 z "},".":{"ha":203,"x_min":20,"x_max":183,"o":"m 102 171 q 147 158 129 171 q 174 127 165 146 q 183 87 183 109 q 174 46 183 65 q 147 15 165 28 q 102 3 129 3 q 57 15 75 3 q 30 46 39 28 q 20 87 20 65 q 30 127 20 109 q 57 158 39 146 q 102 171 75 171 z "},"·":{"ha":203,"x_min":20,"x_max":183,"o":"m 102 622 q 147 609 129 622 q 174 578 165 597 q 183 538 183 559 q 174 497 183 516 q 147 466 165 479 q 102 454 129 454 q 57 466 75 454 q 30 497 39 479 q 20 538 20 516 q 30 578 20 559 q 57 609 39 597 q 102 622 75 622 z "},"*":{"ha":703,"x_min":24,"x_max":677,"o":"m 596 430 q 561 431 578 431 q 526 430 543 431 q 557 397 541 413 q 590 365 573 380 q 614 325 610 347 q 612 284 618 304 q 590 250 606 265 q 554 228 574 235 q 512 224 534 220 q 471 246 490 228 q 412 306 440 275 q 356 368 383 336 q 315 309 334 339 q 278 248 295 279 q 246 214 265 224 q 206 206 227 204 q 167 218 186 208 q 136 247 148 229 q 122 286 124 264 q 132 332 119 309 q 195 431 161 385 q 174 427 184 430 q 155 420 164 425 q 107 413 130 410 q 67 429 85 416 q 38 460 50 441 q 26 498 27 479 q 35 536 24 518 q 70 566 45 555 q 124 585 98 578 q 178 593 151 591 q 150 628 163 610 q 121 662 136 645 q 100 705 103 682 q 104 748 97 728 q 126 783 111 768 q 161 805 142 799 q 201 807 180 812 q 239 781 222 802 q 297 712 269 747 q 353 641 325 677 q 397 709 376 675 q 436 781 418 743 q 466 816 448 806 q 504 825 484 826 q 543 812 524 823 q 574 783 562 801 q 589 743 586 766 q 581 696 592 720 q 556 646 570 670 q 527 599 542 623 q 562 600 545 600 q 596 598 578 600 q 641 584 623 597 q 668 551 659 570 q 677 510 677 532 q 668 470 677 488 q 641 440 659 452 q 596 430 623 429 z "},";":{"ha":277,"x_min":-3,"x_max":267,"o":"m 163 212 q 208 198 189 210 q 240 170 227 187 q 257 132 252 153 q 259 87 262 110 q 146 -184 267 -73 q 104 -205 126 -202 q 61 -202 81 -209 q 26 -179 41 -195 q 4 -145 11 -164 q 2 -104 -3 -125 q 26 -65 6 -83 q 53 -37 41 -52 q 75 -7 66 -23 q 50 14 61 2 q 32 41 39 26 q 23 73 24 56 q 25 108 21 90 q 44 149 31 130 q 76 183 58 169 q 117 206 95 198 q 163 212 140 214 m 149 665 q 104 677 122 665 q 77 708 86 690 q 68 749 68 727 q 77 789 68 770 q 104 820 86 808 q 149 833 122 833 q 194 820 176 833 q 221 789 212 808 q 231 749 231 770 q 221 708 231 727 q 194 677 212 690 q 149 665 176 665 z "},"(":{"ha":352,"x_min":56,"x_max":347,"o":"m 332 -39 q 347 -82 347 -61 q 335 -120 346 -103 q 304 -148 323 -137 q 264 -161 286 -159 q 222 -154 243 -163 q 186 -123 201 -146 q 119 12 145 -63 q 79 168 94 87 q 60 329 65 248 q 56 480 56 409 q 63 663 57 572 q 82 843 68 754 q 120 1020 96 932 q 181 1193 144 1107 q 210 1228 192 1217 q 248 1237 228 1238 q 286 1224 267 1236 q 317 1196 304 1213 q 333 1155 330 1178 q 326 1107 337 1132 q 274 957 294 1034 q 242 800 254 879 q 227 640 231 720 q 224 480 223 559 q 229 351 225 420 q 244 213 233 282 q 276 78 255 143 q 332 -39 296 13 z "},")":{"ha":352,"x_min":8,"x_max":300,"o":"m 174 1193 q 236 1021 211 1108 q 275 844 260 933 q 295 663 290 754 q 299 480 300 572 q 293 328 298 408 q 274 168 288 248 q 235 13 260 88 q 169 -123 210 -62 q 133 -154 154 -146 q 91 -161 112 -163 q 50 -148 69 -159 q 20 -120 31 -137 q 9 -82 9 -103 q 24 -39 8 -61 q 79 77 58 12 q 112 213 100 142 q 127 352 123 283 q 130 480 131 421 q 126 641 130 560 q 111 800 122 721 q 81 956 100 878 q 28 1107 61 1033 q 21 1155 18 1132 q 38 1196 25 1178 q 69 1224 50 1213 q 108 1237 88 1236 q 145 1228 127 1238 q 174 1193 163 1217 z "},"-":{"ha":425,"x_min":17,"x_max":408,"o":"m 327 583 q 372 573 354 585 q 399 543 390 562 q 408 503 408 525 q 399 462 408 481 q 372 430 390 443 q 327 415 354 416 q 213 415 269 412 q 98 422 156 418 q 53 437 71 423 q 26 470 35 450 q 17 511 17 489 q 26 551 17 532 q 53 580 35 569 q 98 590 71 591 q 213 584 156 587 q 327 583 269 581 z "},"_":{"ha":713,"x_min":3,"x_max":709,"o":"m 627 -18 q 672 -30 654 -18 q 700 -61 690 -43 q 709 -102 709 -80 q 700 -142 709 -123 q 672 -174 690 -161 q 627 -186 654 -186 q 356 -189 491 -188 q 85 -191 221 -190 q 40 -179 58 -192 q 13 -149 22 -167 q 3 -108 3 -130 q 13 -67 3 -86 q 40 -36 22 -49 q 85 -23 58 -24 q 356 -21 221 -22 q 627 -18 491 -20 z "},"^":{"ha":796,"x_min":5,"x_max":793,"o":"m 767 793 q 790 751 786 773 q 786 709 793 729 q 764 674 779 690 q 729 652 749 659 q 689 650 710 646 q 648 673 667 654 q 581 750 613 711 q 518 831 549 790 q 459 914 488 872 q 399 998 429 956 q 340 914 370 956 q 280 831 311 872 q 218 750 250 790 q 151 673 186 711 q 110 650 132 654 q 70 652 89 646 q 35 674 50 659 q 12 709 19 690 q 9 751 5 729 q 31 793 12 773 q 114 888 75 838 q 191 990 153 939 q 264 1095 228 1042 q 340 1197 301 1147 q 366 1216 349 1209 q 399 1222 382 1222 q 433 1216 417 1222 q 459 1197 450 1209 q 534 1095 498 1147 q 608 990 571 1042 q 684 888 646 939 q 767 793 723 838 z "},"–":{"ha":768,"x_min":37,"x_max":732,"o":"m 651 574 q 696 562 678 574 q 723 531 714 549 q 732 490 732 512 q 723 450 732 469 q 696 418 714 431 q 651 406 678 406 q 385 403 517 404 q 118 414 252 402 q 74 430 92 416 q 46 464 56 444 q 37 505 37 483 q 46 545 37 527 q 73 573 55 562 q 118 582 91 584 q 385 571 252 570 q 651 574 517 572 z "},"—":{"ha":1037,"x_min":37,"x_max":1002,"o":"m 920 582 q 965 571 947 583 q 992 541 983 559 q 1002 501 1002 523 q 992 460 1002 479 q 965 428 983 441 q 920 414 947 415 q 519 404 719 406 q 119 406 320 401 q 74 420 92 407 q 46 452 56 433 q 37 492 37 471 q 46 533 37 514 q 74 563 56 551 q 119 574 92 575 q 519 572 320 570 q 920 582 719 574 z "},"+":{"ha":729,"x_min":17,"x_max":712,"o":"m 631 574 q 676 562 658 574 q 703 531 694 549 q 712 490 712 512 q 703 450 712 469 q 676 418 694 431 q 631 406 658 406 q 537 405 584 405 q 444 404 491 404 q 437 319 441 361 q 431 235 434 278 q 415 190 429 208 q 382 163 401 172 q 341 154 363 154 q 301 163 319 154 q 272 190 283 172 q 262 235 260 208 q 269 320 266 278 q 276 404 273 361 q 187 408 231 406 q 98 414 142 410 q 53 430 71 416 q 26 464 35 444 q 17 505 17 483 q 26 545 17 527 q 53 573 35 562 q 98 582 71 584 q 193 576 146 578 q 290 572 241 574 q 294 652 292 612 q 296 732 296 691 q 309 777 296 759 q 340 804 321 795 q 381 813 359 813 q 421 804 403 813 q 452 777 440 795 q 465 732 465 759 q 462 652 464 691 q 458 572 460 612 l 631 574 l 631 574 z "},"=":{"ha":768,"x_min":35,"x_max":732,"o":"m 97 612 q 57 636 71 619 q 39 673 43 653 q 41 715 35 694 q 60 751 47 736 q 95 774 74 767 q 142 774 115 781 q 227 758 184 762 q 314 755 271 755 q 402 759 358 756 q 490 764 446 762 q 578 763 534 765 q 665 750 622 760 q 706 728 692 744 q 724 691 720 711 q 722 650 728 671 q 703 613 716 629 q 668 590 689 597 q 621 588 647 582 q 534 600 577 598 q 447 601 490 602 q 359 596 403 600 q 271 593 315 593 q 184 596 227 592 q 97 612 140 600 m 650 449 q 695 436 677 449 q 723 405 713 424 q 732 365 732 387 q 723 324 732 343 q 695 293 713 305 q 650 280 677 280 q 384 286 516 280 q 117 304 252 292 q 73 321 91 307 q 46 354 55 335 q 37 396 37 374 q 45 435 37 418 q 72 464 54 453 q 117 473 90 475 q 384 454 252 460 q 650 449 516 448 z "},"±":{"ha":611,"x_min":37,"x_max":574,"o":"m 117 546 q 73 562 91 548 q 46 596 55 576 q 37 637 37 615 q 45 676 37 659 q 72 705 54 694 q 117 713 90 715 q 229 707 173 709 q 231 751 231 729 q 233 795 232 773 q 245 840 233 822 q 276 867 258 858 q 317 876 295 876 q 357 867 338 876 q 388 840 376 858 q 400 795 400 822 q 399 751 399 773 q 397 707 398 728 q 445 707 420 707 q 493 708 469 707 q 538 696 520 708 q 565 665 556 684 q 574 625 574 646 q 565 584 574 603 q 538 553 556 566 q 493 541 520 541 q 438 540 465 540 q 384 539 411 540 q 380 492 382 515 q 376 445 378 469 q 361 400 374 418 q 328 373 347 382 q 287 364 309 364 q 247 373 265 364 q 218 400 229 382 q 209 445 207 418 q 212 493 210 469 q 216 541 214 517 q 166 543 191 542 q 117 546 142 544 m 493 323 q 538 311 520 323 q 565 280 556 299 q 574 240 574 262 q 565 200 574 218 q 538 169 556 181 q 493 156 520 156 q 305 154 398 155 q 117 161 212 153 q 73 178 91 163 q 46 211 55 192 q 37 252 37 231 q 45 292 37 274 q 72 320 54 310 q 117 329 90 331 q 305 321 212 321 q 493 323 398 322 z "},"≠":{"ha":824,"x_min":62,"x_max":761,"o":"m 680 432 q 725 419 707 432 q 752 388 743 407 q 761 348 761 370 q 752 308 761 326 q 725 276 743 289 q 680 264 707 264 q 399 270 539 264 q 381 215 390 242 q 363 161 372 189 q 338 121 355 135 q 300 103 321 107 q 258 105 279 100 q 222 125 237 111 q 200 159 206 138 q 201 205 193 180 q 213 243 208 224 q 226 281 219 262 q 186 284 206 283 q 146 288 166 286 q 102 304 120 290 q 75 338 84 318 q 66 379 66 357 q 75 419 66 401 q 101 448 83 437 q 146 456 119 458 q 214 450 180 452 q 281 445 247 448 q 304 509 292 477 q 329 574 316 541 q 228 582 278 577 q 126 595 177 587 q 85 614 100 599 q 66 648 71 629 q 68 688 62 667 q 88 726 74 709 q 123 752 102 743 q 171 758 144 762 q 284 744 228 748 q 399 738 341 739 q 434 811 416 774 q 471 884 452 847 q 504 917 484 907 q 543 925 523 926 q 583 912 564 924 q 613 884 602 901 q 627 844 625 867 q 616 798 629 822 q 600 767 608 783 q 584 736 592 751 q 628 736 606 736 q 672 736 650 736 q 717 724 699 736 q 744 693 735 711 q 753 652 753 674 q 744 612 753 631 q 717 581 735 593 q 672 568 699 568 q 590 568 631 568 q 507 568 549 568 q 481 503 494 536 q 456 436 469 470 q 680 432 567 432 z "},"[":{"ha":509,"x_min":102,"x_max":507,"o":"m 421 -21 q 466 -33 448 -20 q 493 -64 484 -45 q 503 -104 503 -83 q 493 -145 503 -126 q 466 -177 484 -164 q 421 -189 448 -189 q 307 -192 363 -191 q 194 -189 251 -193 q 134 -165 158 -188 q 109 -105 111 -142 q 107 42 106 -32 q 109 190 107 116 q 112 338 110 264 q 115 485 113 412 q 111 652 115 566 q 104 825 106 738 q 105 997 102 911 q 127 1160 109 1082 q 138 1184 130 1173 q 157 1204 146 1196 q 181 1217 168 1213 q 208 1221 195 1222 q 267 1220 237 1219 q 326 1220 296 1220 q 385 1218 355 1219 q 444 1211 414 1216 q 485 1191 470 1206 q 503 1156 499 1175 q 501 1115 507 1136 q 481 1078 495 1095 q 446 1053 467 1061 q 399 1048 425 1044 q 340 1054 370 1054 q 280 1053 311 1054 q 277 975 276 1015 q 279 897 277 936 q 284 818 281 857 q 286 740 286 779 q 284 594 285 667 q 282 448 283 522 q 278 212 281 330 q 277 -23 275 95 q 349 -22 313 -23 q 421 -21 385 -22 z "},"{":{"ha":481,"x_min":7,"x_max":498,"o":"m 418 -21 q 463 -37 445 -23 q 489 -70 480 -50 q 498 -111 498 -89 q 490 -151 498 -133 q 463 -180 481 -169 q 418 -189 445 -191 q 317 -175 365 -186 q 230 -142 269 -165 q 164 -83 191 -120 q 125 12 136 -45 q 124 42 124 20 q 125 94 124 64 q 126 159 125 124 q 127 230 127 195 q 125 298 127 266 q 119 356 123 331 q 108 396 115 382 q 90 410 101 411 q 48 418 66 408 q 21 444 31 428 q 9 480 12 460 q 13 519 7 500 q 33 553 19 538 q 68 575 46 568 q 112 617 99 585 q 127 693 125 649 q 124 789 130 737 q 114 890 119 841 q 106 980 109 939 q 111 1044 103 1021 q 156 1126 127 1094 q 220 1178 184 1159 q 301 1205 257 1198 q 395 1214 346 1213 q 440 1202 422 1214 q 467 1171 458 1190 q 475 1130 475 1152 q 467 1089 475 1108 q 440 1058 458 1071 q 395 1045 422 1045 q 315 1030 342 1044 q 278 991 288 1017 q 272 930 269 966 q 281 850 275 894 q 287 665 294 758 q 272 584 283 622 q 241 513 261 546 q 279 437 267 480 q 294 348 292 395 q 292 246 296 296 q 287 144 288 196 q 290 72 287 102 q 305 22 292 42 q 345 -7 318 3 q 418 -21 371 -18 z "},"]":{"ha":509,"x_min":0,"x_max":406,"o":"m 380 1160 q 402 997 398 1082 q 403 825 406 911 q 396 652 401 738 q 393 485 391 566 q 398 190 395 338 q 397 -105 402 42 q 373 -165 396 -142 q 313 -189 349 -188 q 200 -192 256 -193 q 86 -189 144 -191 q 41 -177 59 -189 q 14 -145 23 -164 q 5 -104 5 -126 q 14 -64 5 -83 q 41 -33 23 -45 q 86 -21 59 -21 q 158 -22 123 -22 q 231 -23 194 -23 q 229 212 232 95 q 225 448 227 330 q 221 764 222 606 q 223 835 221 799 q 227 908 225 871 q 230 981 229 945 q 227 1053 231 1017 q 167 1054 197 1054 q 109 1048 137 1054 q 61 1053 82 1044 q 26 1078 39 1061 q 6 1115 12 1095 q 4 1156 0 1136 q 22 1191 8 1175 q 64 1211 37 1206 q 122 1218 93 1216 q 181 1220 152 1219 q 240 1220 211 1220 q 299 1221 269 1219 q 326 1217 313 1222 q 350 1204 339 1213 q 369 1184 361 1196 q 380 1160 377 1173 z "},"}":{"ha":491,"x_min":-18,"x_max":473,"o":"m 412 575 q 448 553 434 568 q 467 519 461 538 q 471 480 473 500 q 459 444 469 460 q 432 418 449 428 q 390 410 414 408 q 372 395 379 411 q 361 352 365 379 q 356 290 357 326 q 354 217 354 255 q 354 141 353 179 q 354 72 354 104 q 353 16 354 39 q 349 -17 352 -7 q 302 -99 331 -67 q 237 -150 274 -131 q 156 -177 200 -169 q 62 -189 112 -186 q 17 -180 35 -191 q -9 -151 -1 -169 q -18 -111 -18 -133 q -9 -70 -18 -89 q 18 -37 0 -50 q 62 -21 35 -23 q 139 -5 111 -18 q 179 31 167 7 q 193 87 192 54 q 192 165 195 120 q 186 272 189 219 q 190 380 184 326 q 206 453 194 419 q 238 513 218 487 q 203 602 214 553 q 191 701 192 650 q 203 874 190 787 q 209 947 209 916 q 198 1001 210 979 q 160 1033 186 1022 q 85 1045 133 1044 q 40 1058 58 1046 q 13 1089 22 1071 q 4 1130 4 1108 q 13 1171 4 1152 q 40 1202 22 1190 q 85 1214 58 1214 q 186 1203 138 1213 q 272 1171 234 1194 q 337 1110 311 1147 q 374 1016 364 1072 q 373 956 377 994 q 364 871 370 917 q 355 777 359 825 q 354 687 351 728 q 370 614 357 645 q 412 575 383 584 z "},"|":{"ha":420,"x_min":119,"x_max":302,"o":"m 134 1134 q 147 1179 134 1161 q 178 1206 159 1197 q 219 1215 197 1215 q 259 1206 241 1215 q 290 1179 277 1197 q 301 1134 302 1161 q 297 825 298 979 q 295 515 296 670 q 292 205 294 360 q 287 -104 290 51 q 273 -149 286 -131 q 242 -176 260 -167 q 201 -184 223 -184 q 161 -176 179 -184 q 131 -149 142 -167 q 119 -104 119 -131 q 124 205 123 51 q 127 515 126 360 q 130 825 129 670 q 134 1134 131 979 z "},"\\":{"ha":750,"x_min":12,"x_max":739,"o":"m 723 137 q 738 94 739 115 q 727 56 738 73 q 697 28 716 39 q 657 16 678 18 q 614 22 635 14 q 578 52 593 31 q 438 261 505 155 q 306 474 372 368 q 172 687 239 581 q 28 894 104 793 q 12 936 12 916 q 23 974 12 957 q 53 1001 34 990 q 93 1015 72 1013 q 136 1008 115 1017 q 174 979 157 1000 q 317 772 249 878 q 451 559 385 666 q 584 346 517 452 q 723 137 650 239 z "},"\"":{"ha":480,"x_min":34,"x_max":446,"o":"m 278 1140 q 291 1185 278 1167 q 322 1212 303 1203 q 362 1221 340 1221 q 402 1212 384 1221 q 434 1185 421 1203 q 446 1140 446 1167 l 446 863 q 434 818 446 836 q 402 790 421 800 q 362 781 384 781 q 322 790 340 781 q 291 818 303 800 q 278 863 278 836 l 278 1140 m 34 1140 q 46 1185 34 1167 q 78 1212 59 1203 q 118 1221 96 1221 q 158 1212 140 1221 q 190 1185 177 1203 q 202 1140 202 1167 l 202 863 q 190 818 202 836 q 158 790 177 800 q 118 781 140 781 q 78 790 96 781 q 46 818 59 800 q 34 863 34 836 l 34 1140 z "},"“":{"ha":480,"x_min":34,"x_max":446,"o":"m 278 1140 q 291 1185 278 1167 q 322 1212 303 1203 q 362 1221 340 1221 q 402 1212 384 1221 q 434 1185 421 1203 q 446 1140 446 1167 l 446 863 q 434 818 446 836 q 402 790 421 800 q 362 781 384 781 q 322 790 340 781 q 291 818 303 800 q 278 863 278 836 l 278 1140 m 34 1140 q 46 1185 34 1167 q 78 1212 59 1203 q 118 1221 96 1221 q 158 1212 140 1221 q 190 1185 177 1203 q 202 1140 202 1167 l 202 863 q 190 818 202 836 q 158 790 177 800 q 118 781 140 781 q 78 790 96 781 q 46 818 59 800 q 34 863 34 836 l 34 1140 z "},"”":{"ha":480,"x_min":34,"x_max":446,"o":"m 278 1140 q 291 1185 278 1167 q 322 1212 303 1203 q 362 1221 340 1221 q 402 1212 384 1221 q 434 1185 421 1203 q 446 1140 446 1167 l 446 863 q 434 818 446 836 q 402 790 421 800 q 362 781 384 781 q 322 790 340 781 q 291 818 303 800 q 278 863 278 836 l 278 1140 m 34 1140 q 46 1185 34 1167 q 78 1212 59 1203 q 118 1221 96 1221 q 158 1212 140 1221 q 190 1185 177 1203 q 202 1140 202 1167 l 202 863 q 190 818 202 836 q 158 790 177 800 q 118 781 140 781 q 78 790 96 781 q 46 818 59 800 q 34 863 34 836 l 34 1140 z "},"„":{"ha":480,"x_min":34,"x_max":446,"o":"m 278 168 q 291 213 278 195 q 322 240 303 231 q 362 249 340 249 q 402 240 384 249 q 434 213 421 231 q 446 168 446 195 l 446 -110 q 434 -155 446 -137 q 402 -182 421 -173 q 362 -191 384 -191 q 322 -182 340 -191 q 291 -155 303 -173 q 278 -110 278 -137 l 278 168 m 34 168 q 46 213 34 195 q 78 240 59 231 q 118 249 96 249 q 158 240 140 249 q 190 213 177 231 q 202 168 202 195 l 202 -110 q 190 -155 202 -137 q 158 -182 177 -173 q 118 -191 140 -191 q 78 -182 96 -191 q 46 -155 59 -173 q 34 -110 34 -137 l 34 168 z "},"'":{"ha":236,"x_min":34,"x_max":202,"o":"m 34 1140 q 46 1185 34 1167 q 78 1212 59 1203 q 118 1221 96 1221 q 158 1212 140 1221 q 190 1185 177 1203 q 202 1140 202 1167 l 202 863 q 190 818 202 836 q 158 790 177 800 q 118 781 140 781 q 78 790 96 781 q 46 818 59 800 q 34 863 34 836 l 34 1140 l 34 1140 z "},"‘":{"ha":236,"x_min":34,"x_max":202,"o":"m 34 1140 q 46 1185 34 1167 q 78 1212 59 1203 q 118 1221 96 1221 q 158 1212 140 1221 q 190 1185 177 1203 q 202 1140 202 1167 l 202 863 q 190 818 202 836 q 158 790 177 800 q 118 781 140 781 q 78 790 96 781 q 46 818 59 800 q 34 863 34 836 l 34 1140 l 34 1140 z "},"’":{"ha":236,"x_min":34,"x_max":202,"o":"m 34 1140 q 46 1185 34 1167 q 78 1212 59 1203 q 118 1221 96 1221 q 158 1212 140 1221 q 190 1185 177 1203 q 202 1140 202 1167 l 202 863 q 190 818 202 836 q 158 790 177 800 q 118 781 140 781 q 78 790 96 781 q 46 818 59 800 q 34 863 34 836 l 34 1140 l 34 1140 z "},"‚":{"ha":236,"x_min":34,"x_max":202,"o":"m 34 168 q 46 213 34 195 q 78 240 59 231 q 118 249 96 249 q 158 240 140 249 q 190 213 177 231 q 202 168 202 195 l 202 -110 q 190 -155 202 -137 q 158 -182 177 -173 q 118 -191 140 -191 q 78 -182 96 -191 q 46 -155 59 -173 q 34 -110 34 -137 l 34 168 l 34 168 z "},"<":{"ha":509,"x_min":33,"x_max":474,"o":"m 442 301 q 469 264 463 284 q 468 225 474 244 q 446 191 461 206 q 410 168 431 176 q 367 163 390 161 q 323 182 345 165 q 218 266 271 224 q 114 351 165 307 q 82 379 98 365 q 56 409 67 393 q 38 443 44 425 q 35 486 33 462 q 55 555 38 522 q 98 618 73 588 q 156 677 124 649 q 219 732 187 705 q 280 785 251 760 q 332 836 310 810 q 370 861 349 856 q 410 860 391 866 q 444 838 429 853 q 467 802 460 822 q 471 760 474 782 q 451 717 469 737 q 383 646 418 679 q 311 580 348 613 q 271 543 291 562 q 232 505 250 525 q 216 485 220 492 q 327 392 270 436 q 442 301 385 347 z "},">":{"ha":509,"x_min":35,"x_max":478,"o":"m 178 836 q 231 782 201 808 q 294 728 262 755 q 357 672 326 701 q 413 612 388 643 q 456 546 439 581 q 476 473 473 511 q 469 431 478 450 q 444 394 459 411 q 410 362 429 376 q 377 335 392 347 q 282 259 330 296 q 186 182 235 221 q 142 163 165 165 q 99 168 119 161 q 64 191 79 176 q 42 225 48 206 q 41 264 35 244 q 67 301 46 284 q 142 361 104 332 q 216 420 179 390 q 255 452 236 436 q 294 484 275 467 l 295 486 q 240 547 271 518 q 179 603 210 575 q 117 658 148 630 q 59 717 85 686 q 38 760 41 737 q 43 802 35 782 q 65 838 50 822 q 100 860 81 853 q 139 861 119 866 q 178 836 160 856 z "},"?":{"ha":667,"x_min":-4,"x_max":636,"o":"m 568 933 q 614 865 597 902 q 633 789 630 828 q 626 711 636 750 q 591 637 615 672 q 539 572 568 604 q 482 506 509 540 q 435 435 455 472 q 410 357 414 399 q 393 313 408 331 q 359 286 378 295 q 317 277 339 277 q 278 286 296 277 q 250 313 260 295 q 242 357 239 330 q 271 473 249 420 q 330 576 292 526 q 364 619 345 598 q 401 661 383 640 q 436 705 420 682 q 463 752 452 728 q 464 806 477 783 q 422 841 451 829 q 356 857 394 854 q 280 851 317 859 q 212 825 243 844 q 169 776 182 806 q 140 738 159 751 q 99 722 121 725 q 56 724 77 718 q 21 743 35 730 q 1 776 6 756 q 7 821 -4 795 q 68 917 29 875 q 155 986 107 958 q 258 1025 203 1013 q 368 1031 313 1037 q 475 1002 423 1026 q 568 933 526 978 m 316 165 q 361 153 343 165 q 388 122 379 140 q 397 81 397 103 q 388 41 397 60 q 361 10 379 22 q 316 -3 343 -3 q 271 10 289 -3 q 244 41 253 22 q 235 81 235 60 q 244 122 235 103 q 271 153 253 140 q 316 165 289 165 z "},"¿":{"ha":662,"x_min":21,"x_max":660,"o":"m 488 254 q 517 292 498 279 q 557 309 536 305 q 600 306 579 312 q 636 287 621 300 q 655 254 650 274 q 650 210 660 235 q 588 114 627 155 q 501 44 549 72 q 398 5 453 17 q 288 -1 343 -7 q 182 28 233 4 q 88 97 130 52 q 43 165 59 128 q 24 241 26 202 q 32 319 21 280 q 66 393 42 358 q 118 458 89 426 q 174 524 147 490 q 222 595 201 558 q 246 673 242 631 q 263 717 249 699 q 298 744 278 735 q 339 753 317 753 q 379 744 361 753 q 407 718 397 735 q 415 673 418 700 q 386 557 408 610 q 328 454 364 505 q 293 411 311 432 q 256 369 274 390 q 221 325 237 347 q 194 277 205 302 q 193 223 180 245 q 234 188 206 201 q 301 173 262 176 q 377 178 340 170 q 444 205 414 186 q 488 254 475 224 m 341 865 q 296 877 314 865 q 269 908 278 890 q 260 949 260 927 q 269 989 260 970 q 296 1020 278 1008 q 341 1033 314 1033 q 386 1020 368 1033 q 413 989 404 1008 q 422 949 422 970 q 413 908 422 927 q 386 877 404 890 q 341 865 368 865 z "},"⁄":{"ha":787,"x_min":14,"x_max":772,"o":"m 614 1206 q 645 1240 626 1230 q 685 1249 665 1250 q 724 1236 705 1247 q 755 1208 743 1225 q 769 1168 767 1190 q 760 1122 772 1145 q 453 489 597 809 q 186 -161 309 169 q 159 -200 177 -186 q 119 -217 140 -214 q 77 -215 98 -221 q 41 -196 56 -210 q 20 -163 26 -183 q 24 -117 14 -142 q 298 554 150 224 q 614 1206 446 884 z "},"≤":{"ha":509,"x_min":31,"x_max":488,"o":"m 456 791 q 378 733 418 760 q 299 677 339 705 q 263 653 281 665 q 230 626 245 641 q 330 554 279 588 q 431 484 381 519 q 461 447 453 469 q 468 405 470 426 q 455 365 466 383 q 427 335 444 346 q 389 324 410 324 q 346 339 368 323 q 249 407 297 374 q 152 476 200 441 q 119 500 136 488 q 87 526 102 512 q 60 555 72 539 q 42 592 48 572 q 43 660 31 627 q 81 723 56 693 q 143 780 107 753 q 215 830 178 806 q 284 873 251 853 q 338 909 317 893 q 382 928 359 926 q 425 923 405 930 q 460 900 445 916 q 482 866 476 884 q 483 827 488 847 q 456 791 477 807 m 431 227 q 461 190 453 211 q 468 147 470 168 q 455 107 466 125 q 427 77 444 88 q 389 66 410 66 q 346 81 368 66 q 261 141 303 112 q 176 201 218 171 q 143 224 160 213 q 110 248 126 236 q 79 274 94 260 q 54 304 64 288 q 39 348 39 327 q 51 387 39 370 q 81 414 62 404 q 121 427 100 425 q 163 420 142 429 q 199 389 184 412 q 192 401 191 401 q 198 397 193 401 q 207 388 202 393 q 213 382 212 382 q 248 356 231 369 q 282 332 264 344 q 356 279 319 305 q 431 227 393 253 z "},"«":{"ha":861,"x_min":45,"x_max":827,"o":"m 454 303 q 481 266 475 286 q 480 228 486 246 q 458 194 473 209 q 422 171 443 178 q 379 165 402 163 q 336 184 357 168 q 230 268 283 227 q 126 353 177 309 q 95 381 110 367 q 68 411 79 395 q 51 446 56 427 q 47 488 45 465 q 67 557 50 524 q 111 621 85 590 q 168 679 136 651 q 231 734 199 707 q 293 787 263 762 q 344 838 322 812 q 382 863 361 858 q 422 862 403 868 q 456 840 441 855 q 479 804 472 824 q 484 762 486 784 q 463 719 481 739 q 395 648 431 682 q 323 582 360 615 q 283 546 303 564 q 244 507 262 527 q 228 487 232 494 q 339 394 282 438 q 454 303 397 349 m 795 303 q 822 266 817 286 q 821 228 827 246 q 799 194 814 209 q 763 171 783 178 q 720 165 743 163 q 676 184 697 168 q 570 268 623 227 q 467 353 517 309 q 435 381 450 367 q 409 411 420 395 q 391 446 397 427 q 387 488 385 465 q 408 557 391 524 q 451 621 425 590 q 508 679 477 651 q 572 734 540 707 q 633 787 604 762 q 684 838 663 812 q 723 863 702 858 q 763 862 743 868 q 797 840 782 855 q 820 804 812 824 q 824 762 827 784 q 804 719 821 739 q 736 648 771 682 q 664 582 701 615 q 624 546 644 564 q 585 507 604 527 q 575 495 578 500 q 568 487 571 490 q 681 394 623 438 q 795 303 738 349 z "},"»":{"ha":861,"x_min":33,"x_max":817,"o":"m 517 838 q 570 784 540 810 q 632 730 600 758 q 695 674 665 703 q 752 614 726 645 q 794 548 777 583 q 815 475 811 513 q 808 433 817 452 q 783 396 798 413 q 749 365 768 379 q 716 338 731 350 q 621 261 669 298 q 525 184 573 223 q 481 165 504 168 q 438 171 458 163 q 402 194 418 178 q 381 228 387 209 q 380 266 374 246 q 406 303 385 286 q 481 363 444 334 q 555 422 518 392 q 594 454 575 438 q 632 486 613 469 q 633 488 633 488 q 579 549 609 520 q 517 605 549 577 q 455 660 486 632 q 397 719 424 688 q 377 762 380 739 q 381 804 374 784 q 404 840 389 824 q 438 862 419 855 q 478 863 458 868 q 517 838 499 858 m 650 503 q 652 505 652 505 q 650 503 652 505 m 474 475 q 467 433 476 452 q 442 396 457 413 q 408 365 427 379 q 375 338 390 350 q 280 261 328 298 q 184 184 233 223 q 140 165 163 168 q 97 171 117 163 q 62 194 77 178 q 40 228 46 209 q 39 266 33 246 q 65 303 44 286 q 140 363 102 334 q 214 422 177 392 q 253 454 234 438 q 292 486 273 469 q 293 488 292 486 q 238 549 269 520 q 177 605 208 577 q 115 660 146 632 q 57 719 83 688 q 36 762 39 739 q 41 804 33 784 q 63 840 48 824 q 98 862 79 855 q 137 863 117 868 q 176 838 158 858 q 230 784 199 810 q 292 730 260 758 q 355 674 323 703 q 411 614 386 645 q 454 548 437 583 q 474 475 471 513 m 309 503 q 312 505 311 505 q 309 503 312 505 z "},"≥":{"ha":518,"x_min":25,"x_max":482,"o":"m 168 339 q 124 324 145 323 q 86 335 103 324 q 59 365 70 346 q 46 405 47 383 q 52 447 44 426 q 83 484 60 469 q 185 552 132 519 q 285 625 238 586 q 278 631 281 628 q 272 637 275 633 q 233 664 253 651 q 194 691 214 677 q 125 740 159 715 q 57 791 91 764 q 31 827 36 807 q 31 866 25 847 q 53 900 37 884 q 89 923 68 916 q 132 928 109 930 q 176 909 155 926 q 230 873 197 893 q 299 830 262 853 q 371 780 335 806 q 432 723 406 753 q 470 660 458 693 q 472 592 482 627 q 454 556 466 572 q 427 526 442 540 q 395 500 412 512 q 361 476 378 488 q 265 408 313 441 q 168 339 216 374 m 315 389 q 351 420 330 412 q 393 427 372 429 q 433 414 414 425 q 463 387 452 404 q 475 348 474 370 q 460 304 475 327 q 435 274 449 288 q 404 248 420 260 q 371 224 388 236 q 338 201 354 213 q 253 141 296 171 q 168 81 210 112 q 124 66 145 66 q 86 77 103 66 q 59 107 70 88 q 46 147 47 125 q 52 190 44 168 q 83 227 60 211 q 157 279 120 253 q 232 332 195 305 q 267 356 250 344 q 300 382 283 369 q 306 388 301 382 q 316 397 311 393 q 321 401 320 401 q 315 389 322 401 z "},"÷":{"ha":768,"x_min":37,"x_max":732,"o":"m 384 689 q 339 702 357 689 q 312 733 321 714 q 302 773 302 751 q 312 813 302 795 q 339 845 321 832 q 384 857 357 857 q 429 845 411 857 q 457 813 448 832 q 466 773 466 795 q 457 733 466 751 q 429 702 448 714 q 384 689 411 689 m 384 315 q 429 302 411 315 q 457 271 448 290 q 466 231 466 252 q 457 190 466 209 q 429 159 448 172 q 384 146 411 146 q 339 159 357 146 q 312 190 321 172 q 302 231 302 209 q 312 271 302 252 q 339 302 321 290 q 384 315 357 315 m 651 584 q 696 572 678 584 q 723 541 714 559 q 732 500 732 522 q 723 460 732 479 q 696 428 714 441 q 651 416 678 416 q 517 414 584 415 q 384 414 450 414 q 251 415 317 414 q 117 422 184 417 q 73 438 91 424 q 46 471 55 452 q 37 512 37 490 q 45 552 37 534 q 72 582 54 570 q 117 591 90 593 q 384 582 252 581 q 651 584 517 583 z "},"•":{"ha":352,"x_min":15,"x_max":335,"o":"m 332 536 q 334 514 334 527 q 326 449 335 480 q 297 393 316 417 q 251 353 279 368 q 187 334 223 337 q 124 343 155 332 q 68 375 93 354 q 29 426 43 396 q 18 489 15 455 q 33 552 20 522 q 67 608 45 583 q 117 647 88 632 q 182 663 146 662 q 235 653 210 663 q 280 628 260 644 q 314 588 300 611 q 332 536 327 564 l 332 536 l 332 536 z "},"°":{"ha":472,"x_min":16,"x_max":453,"o":"m 449 1046 q 452 1024 452 1034 q 441 934 453 978 q 406 855 430 890 q 344 797 381 820 q 256 771 307 774 q 169 782 213 768 q 91 824 125 796 q 37 891 57 852 q 20 979 16 931 q 41 1067 24 1024 q 89 1144 59 1110 q 158 1200 118 1179 q 246 1221 198 1221 q 320 1209 286 1222 q 381 1173 355 1196 q 425 1118 408 1150 q 449 1046 442 1085 l 449 1046 m 249 939 q 269 951 262 943 q 279 970 276 960 q 283 994 283 981 q 284 1019 284 1006 q 279 1037 282 1028 q 271 1049 276 1046 q 264 1053 267 1052 q 261 1054 262 1054 q 259 1054 260 1054 q 254 1053 258 1053 q 232 1047 242 1053 q 212 1031 221 1041 q 197 1009 203 1022 q 189 983 191 996 q 192 962 187 971 q 206 946 197 952 q 227 938 215 940 q 249 939 238 935 z "},"…":{"ha":926,"x_min":55,"x_max":871,"o":"m 136 168 q 181 156 163 168 q 209 124 199 143 q 218 84 218 106 q 209 44 218 62 q 181 13 199 25 q 136 0 163 0 q 91 13 109 0 q 64 44 73 25 q 55 84 55 62 q 64 124 55 106 q 91 156 73 143 q 136 168 109 168 m 463 168 q 508 156 490 168 q 535 124 526 143 q 545 84 545 106 q 535 44 545 62 q 508 13 526 25 q 463 0 490 0 q 418 13 436 0 q 391 44 400 25 q 382 84 382 62 q 391 124 382 106 q 418 156 400 143 q 463 168 436 168 m 789 168 q 834 156 817 168 q 862 124 852 143 q 871 84 871 106 q 862 44 871 62 q 834 13 852 25 q 789 0 817 0 q 744 13 762 0 q 717 44 726 25 q 708 84 708 62 q 717 124 708 106 q 744 156 726 143 q 789 168 762 168 z "},"ø":{"ha":1065,"x_min":43,"x_max":1022,"o":"m 912 849 q 977 745 951 805 q 1012 617 1002 685 q 1018 479 1022 550 q 997 341 1015 408 q 949 218 980 275 q 876 121 919 161 q 763 47 825 74 q 633 11 701 20 q 496 10 566 2 q 360 42 426 18 q 236 102 294 65 q 133 189 178 139 q 67 300 88 238 q 44 430 46 362 q 58 567 43 497 q 103 700 74 636 q 171 819 132 764 q 256 912 210 873 q 358 976 300 950 q 477 1014 415 1002 q 603 1022 540 1025 q 725 1000 667 1019 q 831 943 783 980 q 912 849 880 905 m 785 278 q 814 346 801 308 q 837 425 828 383 q 848 509 845 466 q 846 593 851 553 q 827 670 841 634 q 788 734 813 706 q 780 742 784 738 q 773 752 777 747 q 770 757 772 755 q 715 819 749 796 q 640 850 681 842 q 555 856 600 859 q 470 838 511 852 q 392 801 428 824 q 333 748 357 778 q 290 685 312 722 q 251 606 268 648 q 222 519 233 564 q 211 432 211 475 q 226 352 212 390 q 273 286 240 315 q 347 237 304 260 q 438 198 389 214 q 538 175 487 182 q 636 177 589 169 q 722 209 683 184 q 785 278 760 233 m 781 977 q 819 1003 798 998 q 859 1001 840 1008 q 893 979 878 995 q 916 944 909 964 q 921 901 924 924 q 900 858 918 878 q 747 665 819 764 q 610 461 675 565 q 483 250 544 357 q 363 34 422 142 q 331 0 351 10 q 292 -8 312 -9 q 252 5 271 -6 q 221 33 233 16 q 208 73 210 50 q 218 119 205 95 q 343 343 279 232 q 477 563 408 455 q 621 775 546 671 q 781 977 696 880 z "},"Ø":{"ha":1065,"x_min":43,"x_max":1023,"o":"m 913 849 q 977 745 952 805 q 1013 617 1002 685 q 1019 479 1023 550 q 998 341 1015 408 q 950 218 981 275 q 876 121 920 161 q 764 47 826 74 q 634 11 701 20 q 496 10 566 2 q 361 42 427 18 q 237 102 295 65 q 134 189 178 139 q 68 300 89 238 q 45 430 47 362 q 59 567 43 497 q 103 700 75 636 q 172 819 132 764 q 256 912 211 873 q 358 976 301 950 q 478 1014 416 1002 q 604 1022 541 1025 q 725 1000 667 1019 q 832 943 783 980 q 913 849 881 905 m 785 278 q 815 346 802 308 q 837 425 829 383 q 849 509 846 466 q 847 593 852 553 q 828 670 842 634 q 789 734 814 706 q 781 742 785 738 q 774 752 777 747 q 770 757 772 755 q 715 819 749 796 q 641 850 682 842 q 556 856 600 859 q 470 838 512 852 q 393 801 429 824 q 334 748 357 778 q 291 685 313 722 q 251 606 269 648 q 223 519 234 564 q 212 432 212 475 q 227 352 212 390 q 274 286 241 315 q 347 237 304 260 q 439 198 390 214 q 539 175 488 182 q 637 177 590 169 q 722 209 684 184 q 785 278 761 233 m 781 977 q 820 1003 799 998 q 860 1001 840 1008 q 894 979 879 995 q 917 944 909 964 q 921 901 924 924 q 901 858 918 878 q 748 665 820 764 q 610 461 676 565 q 484 250 545 357 q 364 34 422 142 q 332 0 351 10 q 292 -8 313 -9 q 253 5 272 -6 q 222 33 234 16 q 208 73 210 50 q 219 119 206 95 q 344 343 280 232 q 477 563 408 455 q 622 775 547 671 q 781 977 697 880 z "},"Æ":{"ha":1453,"x_min":17,"x_max":1424,"o":"m 1343 169 q 1388 158 1370 170 q 1415 127 1406 146 q 1424 87 1424 109 q 1415 47 1424 66 q 1388 15 1406 28 q 1343 1 1370 1 q 1230 -3 1285 -1 q 1119 -9 1174 -5 q 1008 -18 1063 -12 q 897 -31 954 -23 q 785 -25 833 -41 q 700 43 737 -9 q 681 88 686 61 q 674 146 675 115 q 677 211 673 177 q 685 278 680 245 q 695 343 690 312 q 704 401 701 375 q 565 396 634 396 q 429 408 495 395 q 300 227 362 319 q 177 38 237 135 q 142 6 163 15 q 101 -2 122 -3 q 61 11 80 0 q 31 39 43 22 q 18 78 20 56 q 31 123 17 100 q 191 366 109 248 q 362 596 273 484 q 548 813 451 708 q 753 1019 645 919 q 754 1020 753 1019 q 755 1021 755 1020 q 758 1022 757 1022 q 792 1040 774 1036 q 828 1040 810 1044 q 831 1039 830 1040 l 832 1039 q 837 1038 834 1038 q 841 1037 839 1038 q 1062 1033 952 1036 q 1284 1030 1172 1031 q 1329 1018 1311 1030 q 1356 986 1347 1005 q 1365 946 1365 968 q 1356 905 1365 924 q 1329 874 1347 886 q 1284 862 1311 862 q 1090 864 1186 863 q 896 867 994 866 q 893 724 895 795 q 890 579 892 652 q 983 582 935 581 q 1080 585 1031 583 q 1174 591 1128 587 q 1261 603 1220 595 q 1309 598 1288 608 q 1344 573 1330 589 q 1363 536 1358 557 q 1365 495 1369 515 q 1347 460 1362 475 q 1306 440 1333 445 q 1094 417 1202 422 q 880 410 986 413 q 860 209 873 309 q 862 166 856 181 q 882 145 869 151 q 913 141 895 140 q 950 146 931 142 q 989 156 970 151 q 1023 163 1008 161 q 1102 170 1062 169 q 1182 171 1142 172 q 1263 169 1223 170 q 1343 169 1303 168 m 552 562 q 632 562 591 560 q 713 567 673 564 q 718 659 716 613 q 722 751 720 705 q 635 657 677 705 q 552 562 593 610 z "},"æ":{"ha":1453,"x_min":17,"x_max":1424,"o":"m 1343 169 q 1388 158 1370 170 q 1415 127 1406 146 q 1424 87 1424 109 q 1415 47 1424 66 q 1388 15 1406 28 q 1343 1 1370 1 q 1230 -3 1285 -1 q 1119 -9 1174 -5 q 1008 -18 1063 -12 q 897 -31 954 -23 q 785 -25 833 -41 q 700 43 737 -9 q 681 88 686 61 q 674 146 675 115 q 677 211 673 177 q 685 278 680 245 q 695 343 690 312 q 704 401 701 375 q 565 396 634 396 q 429 408 495 395 q 300 227 362 319 q 177 38 237 135 q 142 6 163 15 q 101 -2 122 -3 q 61 11 80 0 q 31 39 43 22 q 18 78 20 56 q 31 123 17 100 q 191 366 109 248 q 362 596 273 484 q 548 813 451 708 q 753 1019 645 919 q 754 1020 753 1019 q 755 1021 755 1020 q 758 1022 757 1022 q 792 1040 774 1036 q 828 1040 810 1044 q 831 1039 830 1040 l 832 1039 q 837 1038 834 1038 q 841 1037 839 1038 q 1062 1033 952 1036 q 1284 1030 1172 1031 q 1329 1018 1311 1030 q 1356 986 1347 1005 q 1365 946 1365 968 q 1356 905 1365 924 q 1329 874 1347 886 q 1284 862 1311 862 q 1090 864 1186 863 q 896 867 994 866 q 893 724 895 795 q 890 579 892 652 q 983 582 935 581 q 1080 585 1031 583 q 1174 591 1128 587 q 1261 603 1220 595 q 1309 598 1288 608 q 1344 573 1330 589 q 1363 536 1358 557 q 1365 495 1369 515 q 1347 460 1362 475 q 1306 440 1333 445 q 1094 417 1202 422 q 880 410 986 413 q 860 209 873 309 q 862 166 856 181 q 882 145 869 151 q 913 141 895 140 q 950 146 931 142 q 989 156 970 151 q 1023 163 1008 161 q 1102 170 1062 169 q 1182 171 1142 172 q 1263 169 1223 170 q 1343 169 1303 168 m 552 562 q 632 562 591 560 q 713 567 673 564 q 718 659 716 613 q 722 751 720 705 q 635 657 677 705 q 552 562 593 610 z "},"¨":{"ha":565,"x_min":37,"x_max":527,"o":"m 119 1029 q 164 1017 146 1029 q 191 986 182 1004 q 200 945 200 967 q 191 904 200 923 q 164 873 182 886 q 119 861 146 861 q 74 873 92 861 q 46 904 56 886 q 37 945 37 923 q 46 986 37 967 q 74 1017 56 1004 q 119 1029 92 1029 m 446 1029 q 491 1017 473 1029 q 518 986 509 1004 q 527 945 527 967 q 518 904 527 923 q 491 873 509 886 q 446 861 473 861 q 400 873 418 861 q 373 904 382 886 q 364 945 364 923 q 373 986 364 967 q 400 1017 382 1004 q 446 1029 418 1029 z "},"ß":{"ha":902,"x_min":95,"x_max":884,"o":"m 650 585 q 738 523 694 557 q 813 450 781 490 q 865 363 846 410 q 879 261 884 317 q 855 178 875 215 q 805 113 836 142 q 735 64 774 85 q 654 30 696 43 q 569 8 612 16 q 489 -1 526 1 q 444 9 462 -3 q 416 38 425 20 q 408 78 408 56 q 417 120 408 100 q 444 153 426 139 q 489 168 462 166 q 550 177 517 169 q 612 199 583 185 q 664 232 641 213 q 694 273 686 250 q 692 323 703 296 q 647 378 682 349 q 565 438 607 411 q 479 493 523 466 q 448 526 458 507 q 439 566 438 545 q 451 605 440 586 q 479 639 461 625 q 529 699 517 668 q 533 758 541 730 q 504 808 526 785 q 453 842 482 830 q 393 853 425 854 q 335 834 361 852 q 292 777 309 816 q 275 675 275 739 q 279 379 275 527 q 277 83 283 231 q 262 38 275 56 q 229 11 248 20 q 188 1 210 1 q 148 11 166 1 q 118 38 130 20 q 108 83 106 56 q 107 255 112 168 q 99 432 103 343 q 96 607 95 520 q 114 778 98 694 q 150 877 124 829 q 214 960 176 924 q 302 1014 252 995 q 408 1030 351 1034 q 525 1004 473 1026 q 612 949 576 983 q 670 871 649 915 q 697 779 692 827 q 691 681 703 730 q 650 585 679 631 z "},"≈":{"ha":737,"x_min":43,"x_max":701,"o":"m 195 593 q 151 574 174 576 q 107 579 127 572 q 72 602 87 587 q 50 636 56 617 q 49 675 43 655 q 75 712 54 695 q 130 751 102 734 q 186 778 157 768 q 246 787 215 787 q 312 775 277 787 q 348 755 327 770 q 390 727 368 741 q 431 702 411 713 q 466 694 452 692 q 524 715 498 698 q 576 749 551 732 q 620 764 599 764 q 659 752 642 763 q 686 722 675 741 q 699 682 697 703 q 692 640 701 661 q 661 604 684 618 q 610 571 635 587 q 557 545 584 555 q 500 529 530 534 q 439 528 471 524 q 396 541 418 531 q 355 564 375 551 q 314 589 334 576 q 274 607 294 601 q 235 611 254 613 q 195 593 215 609 m 576 447 q 620 461 599 462 q 659 449 642 460 q 686 419 675 438 q 699 379 697 400 q 692 337 701 358 q 661 301 684 316 q 610 269 635 284 q 557 242 584 253 q 500 227 530 231 q 439 226 471 222 q 396 239 418 229 q 355 261 375 249 q 314 286 334 274 q 274 304 294 298 q 235 309 254 311 q 195 290 215 307 q 151 272 174 274 q 107 277 127 269 q 72 299 87 284 q 50 334 56 315 q 49 373 43 353 q 75 410 54 393 q 130 449 102 431 q 186 475 157 466 q 246 485 215 485 q 312 473 277 485 q 348 453 327 467 q 390 425 368 439 q 431 399 411 410 q 466 391 452 389 q 525 412 498 395 q 576 447 551 429 z "},"¶":{"ha":907,"x_min":23,"x_max":892,"o":"m 811 1019 q 856 1003 838 1017 q 883 970 873 989 q 892 928 892 950 q 883 889 892 907 q 856 860 874 871 q 811 851 838 848 q 777 853 793 852 q 743 856 760 854 q 738 461 739 657 q 730 66 736 264 q 716 21 729 39 q 684 -6 703 3 q 643 -16 665 -16 q 603 -6 621 -16 q 573 21 585 3 q 562 66 561 39 q 570 464 568 266 q 574 862 571 662 q 513 861 544 862 q 452 859 483 861 q 447 462 448 661 q 439 66 445 264 q 425 21 438 39 q 393 -6 412 3 q 352 -16 374 -16 q 312 -6 330 -16 q 281 21 293 3 q 271 66 269 39 q 275 256 274 161 q 278 447 277 351 q 269 448 272 447 q 154 490 203 460 q 76 563 106 521 q 35 656 46 606 q 31 760 23 707 q 67 864 39 812 q 143 958 95 915 q 207 995 170 982 q 283 1014 243 1008 q 362 1023 323 1021 q 436 1026 402 1025 q 624 1029 530 1030 q 811 1019 717 1027 z "},"€":{"ha":907,"x_min":18,"x_max":885,"o":"m 723 297 q 760 327 739 319 q 803 333 782 335 q 844 319 825 330 q 873 292 863 309 q 885 254 884 275 q 869 212 885 233 q 782 118 831 161 q 675 46 732 75 q 554 7 617 18 q 425 12 490 -3 q 322 55 367 24 q 245 126 278 85 q 190 218 212 168 q 155 322 168 268 q 127 323 141 323 q 99 326 113 324 q 55 343 73 328 q 27 377 37 357 q 18 418 18 397 q 27 458 18 440 q 54 487 36 476 q 99 494 72 497 q 118 493 109 493 q 136 492 127 492 q 137 526 136 509 q 140 561 138 543 q 119 562 130 562 q 99 564 109 562 q 55 581 73 566 q 27 614 37 595 q 18 656 18 634 q 27 696 18 678 q 54 724 36 713 q 99 732 72 735 q 137 729 118 730 q 174 728 155 728 q 243 863 199 801 q 352 968 286 926 q 476 1020 414 1008 q 600 1021 539 1031 q 719 979 661 1010 q 830 903 777 948 q 856 865 850 886 q 854 825 861 844 q 832 791 848 806 q 797 768 817 776 q 754 764 777 761 q 711 785 731 767 q 606 846 656 831 q 512 850 556 860 q 431 809 468 840 q 368 734 395 778 q 492 740 430 737 q 616 738 553 743 q 660 722 642 736 q 687 689 678 708 q 696 647 696 669 q 688 607 696 625 q 661 578 679 589 q 616 569 643 567 q 461 570 538 575 q 308 562 385 566 q 304 527 305 544 q 303 492 303 510 q 459 501 382 496 q 616 500 537 506 q 660 484 642 498 q 687 451 678 470 q 696 410 696 431 q 688 370 696 388 q 661 341 679 352 q 616 332 643 330 q 472 333 543 337 q 328 326 400 330 q 348 270 336 296 q 378 222 361 243 q 418 188 395 201 q 471 174 441 175 q 544 180 509 172 q 612 204 580 188 q 673 243 645 220 q 723 297 701 267 z "},"¥":{"ha":837,"x_min":15,"x_max":836,"o":"m 687 1010 q 730 1031 707 1028 q 772 1027 752 1034 q 808 1004 792 1020 q 830 970 823 989 q 831 930 836 951 q 806 891 826 909 q 729 815 765 855 q 660 732 693 774 q 593 647 626 690 q 526 562 561 604 l 564 562 q 609 551 591 563 q 636 520 627 538 q 646 480 646 502 q 636 439 646 458 q 609 408 627 420 q 564 394 591 395 q 495 393 530 393 q 427 393 461 393 l 427 336 q 495 336 461 336 q 564 337 530 336 q 609 326 591 338 q 636 295 627 313 q 646 255 646 277 q 636 214 646 233 q 609 182 627 195 q 564 169 591 170 q 493 168 528 168 q 422 168 458 168 q 417 111 420 139 q 408 55 413 83 q 387 14 402 28 q 351 -4 371 -1 q 311 -2 332 -8 q 273 17 290 3 q 249 52 257 31 q 245 100 240 73 q 251 135 249 117 q 255 171 254 153 q 123 177 189 173 q 78 192 96 178 q 51 225 60 205 q 41 266 41 244 q 51 306 41 288 q 78 335 60 324 q 123 345 96 347 q 259 339 191 341 q 259 368 259 353 q 258 396 259 382 q 123 402 191 398 q 78 417 96 404 q 51 450 60 431 q 41 491 41 469 q 51 531 41 513 q 78 561 60 549 q 123 570 96 572 q 160 568 141 569 q 197 567 178 568 q 138 656 166 611 q 87 750 111 702 q 47 848 64 798 q 20 953 30 899 q 24 1000 15 979 q 49 1035 33 1021 q 87 1055 66 1049 q 127 1057 108 1061 q 162 1038 147 1053 q 182 997 178 1023 q 209 896 192 944 q 250 802 227 847 q 301 713 273 756 q 359 627 329 669 q 441 723 402 673 q 518 823 479 773 q 598 921 557 873 q 687 1010 639 968 z "},"‰":{"ha":1444,"x_min":34,"x_max":1421,"o":"m 817 1002 q 855 1027 834 1023 q 895 1026 876 1032 q 930 1004 914 1019 q 952 968 945 988 q 956 926 960 948 q 935 883 953 903 q 748 667 841 775 q 562 450 655 558 q 374 235 469 342 q 182 23 279 127 q 142 -1 163 3 q 101 1 121 -6 q 66 23 82 7 q 44 58 51 38 q 40 100 37 78 q 62 142 44 122 q 255 353 160 246 q 443 569 349 460 q 629 786 536 677 q 817 1002 722 895 m 274 576 q 187 587 231 572 q 109 629 143 601 q 54 696 75 656 q 38 784 34 736 q 59 872 41 829 q 106 949 77 915 q 176 1005 136 983 q 264 1027 216 1026 q 339 1015 304 1027 q 399 979 373 1002 q 443 923 425 956 q 467 851 460 890 l 467 850 q 469 840 469 845 q 471 829 470 835 q 459 739 471 783 q 423 660 448 694 q 362 602 399 625 q 274 576 325 579 m 207 789 q 210 767 205 777 q 223 751 214 757 q 244 742 233 745 q 267 743 256 740 q 287 756 280 747 q 298 775 294 764 q 301 799 301 786 q 302 823 302 811 q 297 842 300 833 q 289 854 294 851 q 282 858 284 857 q 279 859 280 859 q 277 859 278 859 q 271 859 275 859 q 249 852 260 859 q 230 837 239 846 q 215 814 221 827 q 207 789 209 802 m 957 292 q 960 271 960 283 q 949 180 960 224 q 913 101 937 136 q 851 44 888 66 q 764 17 814 21 q 676 28 720 14 q 598 70 633 42 q 544 138 564 98 q 528 226 524 178 q 549 314 531 271 q 596 391 566 357 q 665 447 625 425 q 753 468 705 468 q 828 456 794 469 q 889 420 863 444 q 932 365 915 397 q 957 293 950 332 l 957 292 m 756 185 q 776 198 769 189 q 787 217 783 206 q 791 240 791 228 q 791 265 791 253 q 787 283 790 275 q 779 296 784 292 q 772 299 774 298 q 769 300 770 300 q 766 300 768 300 q 761 300 765 300 q 739 294 749 300 q 720 278 728 288 q 705 256 711 269 q 696 230 699 243 q 699 208 694 218 q 713 193 704 199 q 734 184 722 186 q 756 185 745 182 m 1418 292 q 1421 271 1421 281 q 1410 180 1421 224 q 1374 101 1398 136 q 1313 44 1350 66 q 1225 17 1276 21 q 1138 28 1181 14 q 1060 70 1094 42 q 1005 138 1025 98 q 989 226 985 178 q 1010 314 992 271 q 1057 391 1027 357 q 1126 447 1086 425 q 1215 468 1166 468 q 1290 456 1255 469 q 1350 420 1324 444 q 1394 365 1376 397 q 1418 293 1411 332 l 1418 292 m 1218 185 q 1238 198 1231 189 q 1249 217 1245 206 q 1252 240 1252 228 q 1253 265 1253 253 q 1248 283 1251 275 q 1240 296 1245 292 q 1233 299 1235 298 q 1230 300 1232 300 q 1227 300 1229 300 q 1223 300 1226 300 q 1200 294 1211 300 q 1181 278 1190 288 q 1166 256 1173 269 q 1158 230 1160 243 q 1161 208 1156 218 q 1175 193 1166 199 q 1196 184 1184 186 q 1218 185 1207 182 z "},"`":{"ha":399,"x_min":15,"x_max":385,"o":"m 357 970 q 380 930 376 951 q 378 888 385 908 q 355 853 371 869 q 320 831 340 838 q 279 828 300 824 q 238 851 257 832 q 140 950 189 901 q 42 1048 91 999 q 19 1088 23 1067 q 22 1130 15 1110 q 44 1165 28 1149 q 79 1187 59 1181 q 120 1190 98 1194 q 161 1167 142 1186 q 259 1069 210 1118 q 357 970 309 1020 z "},"´":{"ha":399,"x_min":15,"x_max":385,"o":"m 238 1167 q 279 1190 257 1186 q 320 1187 300 1194 q 355 1165 340 1181 q 378 1130 371 1149 q 380 1088 385 1110 q 357 1048 376 1067 l 161 851 q 120 828 142 832 q 79 831 98 824 q 44 853 59 838 q 22 888 28 869 q 19 930 15 908 q 42 970 22 951 q 140 1069 91 1020 q 238 1167 189 1118 z "},"$":{"ha":759,"x_min":54,"x_max":709,"o":"m 516 568 q 597 508 558 541 q 663 436 636 475 q 699 350 689 397 q 693 250 709 304 q 661 185 684 216 q 608 126 639 154 q 538 77 577 99 q 458 38 500 54 q 457 -28 457 5 q 456 -96 456 -62 q 442 -141 455 -123 q 410 -168 429 -159 q 370 -177 391 -177 q 329 -168 348 -177 q 298 -141 311 -159 q 287 -96 286 -123 q 288 -47 288 -71 q 289 2 288 -22 q 170 18 225 0 q 77 79 114 36 q 57 122 60 100 q 62 165 54 145 q 84 201 69 185 q 119 223 100 216 q 159 224 138 229 q 197 198 179 219 q 237 173 212 180 q 292 170 262 167 q 294 331 293 251 q 295 492 294 411 q 221 525 254 510 q 174 549 189 540 q 102 627 126 582 q 74 721 77 671 q 88 819 71 770 q 141 911 105 869 q 216 981 176 954 q 300 1023 256 1008 q 301 1086 300 1055 q 302 1148 301 1117 q 315 1193 302 1175 q 347 1220 328 1211 q 387 1230 366 1230 q 428 1220 409 1230 q 458 1193 446 1211 q 470 1148 471 1175 q 469 1090 469 1119 q 469 1032 469 1061 q 621 966 547 1017 q 652 930 644 951 q 659 887 661 909 q 646 847 657 866 q 618 818 635 829 q 580 806 602 806 q 536 821 559 805 q 467 858 501 844 q 466 727 466 792 q 465 596 465 662 q 491 582 478 589 q 516 568 503 575 m 284 678 q 290 674 288 676 q 296 671 293 673 q 297 753 297 712 q 298 834 297 793 q 281 817 288 826 q 256 781 267 800 q 244 744 245 762 q 251 709 242 726 q 284 678 260 692 m 521 279 q 534 311 533 295 q 526 342 534 326 q 500 373 517 357 q 463 404 484 389 q 462 317 463 360 q 461 231 462 274 q 496 256 481 243 q 521 279 511 268 z "},"‡":{"ha":676,"x_min":36,"x_max":640,"o":"m 558 435 q 604 423 585 435 q 631 392 622 411 q 640 352 640 374 q 630 311 640 330 q 603 279 621 292 q 558 266 585 267 q 492 265 526 265 q 426 265 459 265 q 422 87 425 176 q 408 42 421 60 q 376 15 395 24 q 335 6 357 6 q 295 15 313 6 q 265 42 277 24 q 254 87 253 60 q 256 178 255 133 q 258 268 256 222 q 117 274 187 270 q 72 290 90 276 q 45 322 54 303 q 36 363 36 341 q 45 403 36 385 q 72 432 54 421 q 117 442 90 444 q 189 439 153 440 q 260 436 224 437 l 262 613 q 190 616 226 614 q 117 620 154 617 q 72 635 90 621 q 45 668 54 648 q 36 709 36 687 q 45 749 36 730 q 72 778 54 767 q 117 788 90 789 q 264 782 191 784 q 266 873 265 828 q 267 965 266 919 q 281 1010 268 992 q 313 1037 294 1028 q 353 1046 332 1046 q 394 1037 375 1046 q 425 1010 412 1028 q 436 965 437 992 q 434 872 435 918 q 433 779 433 825 q 496 779 465 779 q 558 780 527 779 q 604 768 585 781 q 631 738 622 756 q 640 697 640 720 q 630 657 640 675 q 603 625 621 638 q 558 612 585 612 q 495 610 526 610 q 431 610 463 610 l 429 433 q 493 433 461 433 q 558 435 526 433 z "},"†":{"ha":639,"x_min":18,"x_max":622,"o":"m 541 780 q 586 768 568 781 q 613 738 604 756 q 622 697 622 720 q 613 657 622 675 q 586 625 604 638 q 541 612 568 612 q 477 610 509 610 q 413 610 446 610 q 410 349 412 479 q 404 87 408 219 q 390 42 404 60 q 358 15 377 24 q 317 6 339 6 q 277 15 296 6 q 247 42 259 24 q 236 87 235 60 q 242 350 240 220 q 245 613 243 481 q 172 616 208 614 q 100 620 136 617 q 55 635 73 621 q 27 668 37 648 q 18 709 18 687 q 27 749 18 730 q 55 778 37 767 q 100 788 73 789 q 247 782 173 784 q 248 873 248 828 q 250 965 248 919 q 263 1010 250 992 q 295 1037 276 1028 q 336 1046 314 1046 q 376 1037 357 1046 q 407 1010 395 1028 q 418 965 419 992 q 416 872 417 918 q 415 779 416 825 q 478 779 447 779 q 541 780 509 779 z "},"©":{"ha":1046,"x_min":39,"x_max":1001,"o":"m 998 621 q 1000 611 999 616 q 1000 600 1000 606 q 992 465 1001 533 q 962 333 983 397 q 908 214 941 270 q 829 115 876 158 q 721 45 782 72 q 583 13 660 18 q 451 19 517 8 q 323 56 385 31 q 208 122 261 82 q 117 214 155 162 q 59 330 79 266 q 45 467 39 393 q 71 600 51 533 q 122 727 90 666 q 199 842 155 789 q 297 936 243 896 q 416 999 352 976 q 552 1023 480 1023 q 722 995 646 1024 q 853 913 797 966 q 946 786 909 861 q 998 623 982 712 l 998 621 m 606 186 q 688 223 652 199 q 748 277 723 246 q 790 344 774 307 q 816 422 806 381 q 829 506 825 463 q 832 593 832 549 q 803 693 822 646 q 753 777 784 741 q 679 834 723 813 q 575 855 635 856 q 450 826 509 854 q 344 752 391 798 q 265 647 297 707 q 221 524 233 588 q 221 419 211 470 q 255 326 231 369 q 317 250 279 283 q 401 197 355 217 q 499 174 447 178 q 606 186 551 170 m 576 439 q 622 430 604 441 q 649 400 640 418 q 658 360 658 382 q 649 319 658 338 q 622 286 640 300 q 576 270 604 272 q 481 281 528 267 q 395 323 433 295 q 333 394 357 352 q 307 488 309 435 q 321 584 306 536 q 366 672 336 632 q 435 742 395 713 q 525 780 476 770 q 572 776 551 785 q 607 751 593 768 q 627 713 621 734 q 629 673 633 692 q 611 637 625 653 q 570 617 596 622 q 535 603 552 614 q 504 577 517 593 q 483 544 490 562 q 475 506 475 525 q 485 471 476 484 q 509 449 494 457 q 541 439 523 441 q 576 439 558 437 z "},"§":{"ha":593,"x_min":29,"x_max":567,"o":"m 558 523 q 505 407 541 460 q 420 320 469 355 q 449 296 435 309 q 472 267 462 283 q 505 180 499 224 q 500 93 511 136 q 466 12 490 51 q 410 -62 442 -28 q 339 -123 377 -96 q 262 -168 300 -150 q 215 -175 237 -178 q 174 -159 192 -172 q 145 -127 157 -146 q 133 -89 134 -109 q 142 -51 132 -69 q 177 -22 152 -33 q 229 8 203 -10 q 276 47 255 26 q 310 92 297 68 q 322 139 322 115 q 305 183 321 162 q 251 222 289 205 q 183 253 218 237 q 122 293 149 269 q 77 343 97 316 q 46 402 58 371 q 32 467 34 433 q 39 534 29 500 q 91 650 55 598 q 177 737 127 703 q 148 762 161 749 q 125 791 135 775 q 92 878 98 833 q 96 964 85 922 q 131 1046 106 1006 q 187 1119 155 1085 q 257 1180 219 1154 q 334 1225 296 1207 q 381 1232 359 1236 q 422 1216 404 1229 q 451 1185 440 1204 q 464 1146 463 1166 q 454 1108 465 1126 q 420 1079 444 1090 q 368 1050 394 1067 q 321 1011 342 1032 q 287 966 300 989 q 275 919 275 942 q 292 873 275 895 q 346 835 308 852 q 413 805 379 820 q 475 764 447 789 q 519 714 500 741 q 551 655 539 686 q 565 591 562 624 q 558 523 567 557 m 241 437 q 286 431 264 427 q 326 447 308 434 q 358 480 345 460 q 379 523 372 500 q 385 570 386 546 q 372 615 384 594 q 364 618 368 616 q 355 621 359 619 q 310 627 332 630 q 270 610 289 623 q 238 577 252 597 q 217 534 224 557 q 211 487 210 511 q 224 442 212 463 q 233 440 229 441 q 241 437 237 439 z "},"£":{"ha":954,"x_min":9,"x_max":928,"o":"m 785 222 q 824 247 803 242 q 864 244 845 251 q 899 223 884 238 q 921 188 914 208 q 925 145 928 168 q 904 103 922 123 q 846 53 878 75 q 779 19 814 31 q 706 8 743 7 q 629 24 668 8 q 576 50 603 35 q 524 78 549 64 q 473 99 498 91 q 424 106 448 108 q 379 89 401 104 q 337 40 357 74 q 296 4 321 12 q 247 2 271 -4 q 201 23 220 5 q 180 73 181 41 q 181 96 178 83 q 182 245 186 170 q 173 398 178 321 q 132 397 152 397 q 90 396 111 397 q 45 408 63 395 q 18 438 27 420 q 9 479 9 457 q 18 519 9 500 q 45 551 27 538 q 90 565 63 564 q 130 566 110 566 q 169 566 149 566 q 180 676 171 623 q 210 781 189 730 q 265 878 231 831 q 351 964 299 924 q 446 1016 396 1000 q 548 1032 496 1032 q 650 1018 600 1032 q 746 976 701 1003 q 829 911 791 949 q 894 828 867 873 q 906 782 907 804 q 892 743 904 760 q 862 715 880 726 q 822 702 843 704 q 782 710 802 701 q 748 743 762 720 q 666 836 711 808 q 576 863 622 863 q 488 838 531 863 q 412 772 446 812 q 356 679 378 731 q 331 570 334 626 q 486 572 409 571 q 642 573 564 573 q 687 561 669 573 q 714 529 705 548 q 724 489 724 511 q 714 449 724 467 q 687 417 705 430 q 642 405 669 405 q 490 404 566 404 q 338 401 414 403 q 349 267 345 334 q 389 278 368 274 q 434 281 410 281 q 495 269 465 281 q 557 241 526 257 q 617 211 587 226 q 676 189 648 196 q 732 189 705 182 q 785 222 760 195 z "},"₷":{"ha":787,"x_min":18,"x_max":776,"o":"m 673 940 q 727 876 703 914 q 764 795 751 838 q 773 709 776 752 q 745 629 770 665 q 660 545 710 578 q 549 490 609 511 q 424 457 489 469 q 294 439 358 446 q 290 382 290 411 q 379 385 334 384 q 468 386 423 386 q 513 373 495 386 q 541 342 532 361 q 550 301 550 323 q 541 260 550 279 q 513 229 532 241 q 468 216 495 216 q 373 216 420 216 q 279 214 326 215 q 277 147 278 180 q 275 81 275 115 q 262 35 275 54 q 231 8 250 17 q 190 -1 212 -1 q 150 8 168 -1 q 118 35 131 17 q 106 81 106 54 l 106 118 q 106 125 106 121 q 107 132 106 128 q 109 170 108 151 q 110 208 109 189 l 100 208 q 55 220 73 208 q 27 251 37 232 q 18 291 18 269 q 27 332 18 313 q 55 363 37 351 q 100 377 73 376 q 110 378 105 378 q 120 378 115 378 q 122 404 121 391 q 123 430 122 417 l 114 430 q 68 441 87 429 q 41 471 50 453 q 33 512 33 490 q 42 553 33 534 q 69 585 51 572 q 114 599 87 598 q 125 600 119 600 q 136 600 131 600 q 147 770 142 685 q 153 940 152 854 q 171 991 153 972 q 212 1018 188 1010 q 224 1022 218 1020 q 237 1025 230 1023 q 349 1031 291 1030 q 465 1025 408 1033 q 576 997 523 1017 q 673 940 629 977 m 546 675 q 584 707 569 688 q 600 745 598 725 q 591 785 602 765 q 551 821 579 805 q 496 844 524 836 q 439 858 468 853 q 380 863 410 862 q 320 862 350 863 q 314 736 318 798 q 307 611 311 674 q 432 633 370 618 q 546 675 493 647 z "},"₹":{"ha":787,"x_min":18,"x_max":776,"o":"m 673 940 q 727 876 703 914 q 764 795 751 838 q 773 709 776 752 q 745 629 770 665 q 660 545 710 578 q 549 490 609 511 q 424 457 489 469 q 294 439 358 446 q 290 382 290 411 q 379 385 334 384 q 468 386 423 386 q 513 373 495 386 q 541 342 532 361 q 550 301 550 323 q 541 260 550 279 q 513 229 532 241 q 468 216 495 216 q 373 216 420 216 q 279 214 326 215 q 277 147 278 180 q 275 81 275 115 q 262 35 275 54 q 231 8 250 17 q 190 -1 212 -1 q 150 8 168 -1 q 118 35 131 17 q 106 81 106 54 l 106 118 q 106 125 106 121 q 107 132 106 128 q 109 170 108 151 q 110 208 109 189 l 100 208 q 55 220 73 208 q 27 251 37 232 q 18 291 18 269 q 27 332 18 313 q 55 363 37 351 q 100 377 73 376 q 110 378 105 378 q 120 378 115 378 q 122 404 121 391 q 123 430 122 417 l 114 430 q 68 441 87 429 q 41 471 50 453 q 33 512 33 490 q 42 553 33 534 q 69 585 51 572 q 114 599 87 598 q 125 600 119 600 q 136 600 131 600 q 147 770 142 685 q 153 940 152 854 q 171 991 153 972 q 212 1018 188 1010 q 224 1022 218 1020 q 237 1025 230 1023 q 349 1031 291 1030 q 465 1025 408 1033 q 576 997 523 1017 q 673 940 629 977 m 546 675 q 584 707 569 688 q 600 745 598 725 q 591 785 602 765 q 551 821 579 805 q 496 844 524 836 q 439 858 468 853 q 380 863 410 862 q 320 862 350 863 q 314 736 318 798 q 307 611 311 674 q 432 633 370 618 q 546 675 493 647 z "},"₺":{"ha":787,"x_min":18,"x_max":776,"o":"m 673 940 q 727 876 703 914 q 764 795 751 838 q 773 709 776 752 q 745 629 770 665 q 660 545 710 578 q 549 490 609 511 q 424 457 489 469 q 294 439 358 446 q 290 382 290 411 q 379 385 334 384 q 468 386 423 386 q 513 373 495 386 q 541 342 532 361 q 550 301 550 323 q 541 260 550 279 q 513 229 532 241 q 468 216 495 216 q 373 216 420 216 q 279 214 326 215 q 277 147 278 180 q 275 81 275 115 q 262 35 275 54 q 231 8 250 17 q 190 -1 212 -1 q 150 8 168 -1 q 118 35 131 17 q 106 81 106 54 l 106 118 q 106 125 106 121 q 107 132 106 128 q 109 170 108 151 q 110 208 109 189 l 100 208 q 55 220 73 208 q 27 251 37 232 q 18 291 18 269 q 27 332 18 313 q 55 363 37 351 q 100 377 73 376 q 110 378 105 378 q 120 378 115 378 q 122 404 121 391 q 123 430 122 417 l 114 430 q 68 441 87 429 q 41 471 50 453 q 33 512 33 490 q 42 553 33 534 q 69 585 51 572 q 114 599 87 598 q 125 600 119 600 q 136 600 131 600 q 147 770 142 685 q 153 940 152 854 q 171 991 153 972 q 212 1018 188 1010 q 224 1022 218 1020 q 237 1025 230 1023 q 349 1031 291 1030 q 465 1025 408 1033 q 576 997 523 1017 q 673 940 629 977 m 546 675 q 584 707 569 688 q 600 745 598 725 q 591 785 602 765 q 551 821 579 805 q 496 844 524 836 q 439 858 468 853 q 380 863 410 862 q 320 862 350 863 q 314 736 318 798 q 307 611 311 674 q 432 633 370 618 q 546 675 493 647 z "},"₻":{"ha":787,"x_min":18,"x_max":776,"o":"m 673 940 q 727 876 703 914 q 764 795 751 838 q 773 709 776 752 q 745 629 770 665 q 660 545 710 578 q 549 490 609 511 q 424 457 489 469 q 294 439 358 446 q 290 382 290 411 q 379 385 334 384 q 468 386 423 386 q 513 373 495 386 q 541 342 532 361 q 550 301 550 323 q 541 260 550 279 q 513 229 532 241 q 468 216 495 216 q 373 216 420 216 q 279 214 326 215 q 277 147 278 180 q 275 81 275 115 q 262 35 275 54 q 231 8 250 17 q 190 -1 212 -1 q 150 8 168 -1 q 118 35 131 17 q 106 81 106 54 l 106 118 q 106 125 106 121 q 107 132 106 128 q 109 170 108 151 q 110 208 109 189 l 100 208 q 55 220 73 208 q 27 251 37 232 q 18 291 18 269 q 27 332 18 313 q 55 363 37 351 q 100 377 73 376 q 110 378 105 378 q 120 378 115 378 q 122 404 121 391 q 123 430 122 417 l 114 430 q 68 441 87 429 q 41 471 50 453 q 33 512 33 490 q 42 553 33 534 q 69 585 51 572 q 114 599 87 598 q 125 600 119 600 q 136 600 131 600 q 147 770 142 685 q 153 940 152 854 q 171 991 153 972 q 212 1018 188 1010 q 224 1022 218 1020 q 237 1025 230 1023 q 349 1031 291 1030 q 465 1025 408 1033 q 576 997 523 1017 q 673 940 629 977 m 546 675 q 584 707 569 688 q 600 745 598 725 q 591 785 602 765 q 551 821 579 805 q 496 844 524 836 q 439 858 468 853 q 380 863 410 862 q 320 862 350 863 q 314 736 318 798 q 307 611 311 674 q 432 633 370 618 q 546 675 493 647 z "},"₼":{"ha":787,"x_min":18,"x_max":776,"o":"m 673 940 q 727 876 703 914 q 764 795 751 838 q 773 709 776 752 q 745 629 770 665 q 660 545 710 578 q 549 490 609 511 q 424 457 489 469 q 294 439 358 446 q 290 382 290 411 q 379 385 334 384 q 468 386 423 386 q 513 373 495 386 q 541 342 532 361 q 550 301 550 323 q 541 260 550 279 q 513 229 532 241 q 468 216 495 216 q 373 216 420 216 q 279 214 326 215 q 277 147 278 180 q 275 81 275 115 q 262 35 275 54 q 231 8 250 17 q 190 -1 212 -1 q 150 8 168 -1 q 118 35 131 17 q 106 81 106 54 l 106 118 q 106 125 106 121 q 107 132 106 128 q 109 170 108 151 q 110 208 109 189 l 100 208 q 55 220 73 208 q 27 251 37 232 q 18 291 18 269 q 27 332 18 313 q 55 363 37 351 q 100 377 73 376 q 110 378 105 378 q 120 378 115 378 q 122 404 121 391 q 123 430 122 417 l 114 430 q 68 441 87 429 q 41 471 50 453 q 33 512 33 490 q 42 553 33 534 q 69 585 51 572 q 114 599 87 598 q 125 600 119 600 q 136 600 131 600 q 147 770 142 685 q 153 940 152 854 q 171 991 153 972 q 212 1018 188 1010 q 224 1022 218 1020 q 237 1025 230 1023 q 349 1031 291 1030 q 465 1025 408 1033 q 576 997 523 1017 q 673 940 629 977 m 546 675 q 584 707 569 688 q 600 745 598 725 q 591 785 602 765 q 551 821 579 805 q 496 844 524 836 q 439 858 468 853 q 380 863 410 862 q 320 862 350 863 q 314 736 318 798 q 307 611 311 674 q 432 633 370 618 q 546 675 493 647 z "},"₽":{"ha":787,"x_min":18,"x_max":776,"o":"m 673 940 q 727 876 703 914 q 764 795 751 838 q 773 709 776 752 q 745 629 770 665 q 660 545 710 578 q 549 490 609 511 q 424 457 489 469 q 294 439 358 446 q 290 382 290 411 q 379 385 334 384 q 468 386 423 386 q 513 373 495 386 q 541 342 532 361 q 550 301 550 323 q 541 260 550 279 q 513 229 532 241 q 468 216 495 216 q 373 216 420 216 q 279 214 326 215 q 277 147 278 180 q 275 81 275 115 q 262 35 275 54 q 231 8 250 17 q 190 -1 212 -1 q 150 8 168 -1 q 118 35 131 17 q 106 81 106 54 l 106 118 q 106 125 106 121 q 107 132 106 128 q 109 170 108 151 q 110 208 109 189 l 100 208 q 55 220 73 208 q 27 251 37 232 q 18 291 18 269 q 27 332 18 313 q 55 363 37 351 q 100 377 73 376 q 110 378 105 378 q 120 378 115 378 q 122 404 121 391 q 123 430 122 417 l 114 430 q 68 441 87 429 q 41 471 50 453 q 33 512 33 490 q 42 553 33 534 q 69 585 51 572 q 114 599 87 598 q 125 600 119 600 q 136 600 131 600 q 147 770 142 685 q 153 940 152 854 q 171 991 153 972 q 212 1018 188 1010 q 224 1022 218 1020 q 237 1025 230 1023 q 349 1031 291 1030 q 465 1025 408 1033 q 576 997 523 1017 q 673 940 629 977 m 546 675 q 584 707 569 688 q 600 745 598 725 q 591 785 602 765 q 551 821 579 805 q 496 844 524 836 q 439 858 468 853 q 380 863 410 862 q 320 862 350 863 q 314 736 318 798 q 307 611 311 674 q 432 633 370 618 q 546 675 493 647 z "},"₾":{"ha":787,"x_min":18,"x_max":776,"o":"m 673 940 q 727 876 703 914 q 764 795 751 838 q 773 709 776 752 q 745 629 770 665 q 660 545 710 578 q 549 490 609 511 q 424 457 489 469 q 294 439 358 446 q 290 382 290 411 q 379 385 334 384 q 468 386 423 386 q 513 373 495 386 q 541 342 532 361 q 550 301 550 323 q 541 260 550 279 q 513 229 532 241 q 468 216 495 216 q 373 216 420 216 q 279 214 326 215 q 277 147 278 180 q 275 81 275 115 q 262 35 275 54 q 231 8 250 17 q 190 -1 212 -1 q 150 8 168 -1 q 118 35 131 17 q 106 81 106 54 l 106 118 q 106 125 106 121 q 107 132 106 128 q 109 170 108 151 q 110 208 109 189 l 100 208 q 55 220 73 208 q 27 251 37 232 q 18 291 18 269 q 27 332 18 313 q 55 363 37 351 q 100 377 73 376 q 110 378 105 378 q 120 378 115 378 q 122 404 121 391 q 123 430 122 417 l 114 430 q 68 441 87 429 q 41 471 50 453 q 33 512 33 490 q 42 553 33 534 q 69 585 51 572 q 114 599 87 598 q 125 600 119 600 q 136 600 131 600 q 147 770 142 685 q 153 940 152 854 q 171 991 153 972 q 212 1018 188 1010 q 224 1022 218 1020 q 237 1025 230 1023 q 349 1031 291 1030 q 465 1025 408 1033 q 576 997 523 1017 q 673 940 629 977 m 546 675 q 584 707 569 688 q 600 745 598 725 q 591 785 602 765 q 551 821 579 805 q 496 844 524 836 q 439 858 468 853 q 380 863 410 862 q 320 862 350 863 q 314 736 318 798 q 307 611 311 674 q 432 633 370 618 q 546 675 493 647 z "},"₿":{"ha":787,"x_min":18,"x_max":776,"o":"m 673 940 q 727 876 703 914 q 764 795 751 838 q 773 709 776 752 q 745 629 770 665 q 660 545 710 578 q 549 490 609 511 q 424 457 489 469 q 294 439 358 446 q 290 382 290 411 q 379 385 334 384 q 468 386 423 386 q 513 373 495 386 q 541 342 532 361 q 550 301 550 323 q 541 260 550 279 q 513 229 532 241 q 468 216 495 216 q 373 216 420 216 q 279 214 326 215 q 277 147 278 180 q 275 81 275 115 q 262 35 275 54 q 231 8 250 17 q 190 -1 212 -1 q 150 8 168 -1 q 118 35 131 17 q 106 81 106 54 l 106 118 q 106 125 106 121 q 107 132 106 128 q 109 170 108 151 q 110 208 109 189 l 100 208 q 55 220 73 208 q 27 251 37 232 q 18 291 18 269 q 27 332 18 313 q 55 363 37 351 q 100 377 73 376 q 110 378 105 378 q 120 378 115 378 q 122 404 121 391 q 123 430 122 417 l 114 430 q 68 441 87 429 q 41 471 50 453 q 33 512 33 490 q 42 553 33 534 q 69 585 51 572 q 114 599 87 598 q 125 600 119 600 q 136 600 131 600 q 147 770 142 685 q 153 940 152 854 q 171 991 153 972 q 212 1018 188 1010 q 224 1022 218 1020 q 237 1025 230 1023 q 349 1031 291 1030 q 465 1025 408 1033 q 576 997 523 1017 q 673 940 629 977 m 546 675 q 584 707 569 688 q 600 745 598 725 q 591 785 602 765 q 551 821 579 805 q 496 844 524 836 q 439 858 468 853 q 380 863 410 862 q 320 862 350 863 q 314 736 318 798 q 307 611 311 674 q 432 633 370 618 q 546 675 493 647 z "},"⃀":{"ha":787,"x_min":18,"x_max":776,"o":"m 673 940 q 727 876 703 914 q 764 795 751 838 q 773 709 776 752 q 745 629 770 665 q 660 545 710 578 q 549 490 609 511 q 424 457 489 469 q 294 439 358 446 q 290 382 290 411 q 379 385 334 384 q 468 386 423 386 q 513 373 495 386 q 541 342 532 361 q 550 301 550 323 q 541 260 550 279 q 513 229 532 241 q 468 216 495 216 q 373 216 420 216 q 279 214 326 215 q 277 147 278 180 q 275 81 275 115 q 262 35 275 54 q 231 8 250 17 q 190 -1 212 -1 q 150 8 168 -1 q 118 35 131 17 q 106 81 106 54 l 106 118 q 106 125 106 121 q 107 132 106 128 q 109 170 108 151 q 110 208 109 189 l 100 208 q 55 220 73 208 q 27 251 37 232 q 18 291 18 269 q 27 332 18 313 q 55 363 37 351 q 100 377 73 376 q 110 378 105 378 q 120 378 115 378 q 122 404 121 391 q 123 430 122 417 l 114 430 q 68 441 87 429 q 41 471 50 453 q 33 512 33 490 q 42 553 33 534 q 69 585 51 572 q 114 599 87 598 q 125 600 119 600 q 136 600 131 600 q 147 770 142 685 q 153 940 152 854 q 171 991 153 972 q 212 1018 188 1010 q 224 1022 218 1020 q 237 1025 230 1023 q 349 1031 291 1030 q 465 1025 408 1033 q 576 997 523 1017 q 673 940 629 977 m 546 675 q 584 707 569 688 q 600 745 598 725 q 591 785 602 765 q 551 821 579 805 q 496 844 524 836 q 439 858 468 853 q 380 863 410 862 q 320 862 350 863 q 314 736 318 798 q 307 611 311 674 q 432 633 370 618 q 546 675 493 647 z "}}}
